<?xml version="1.0" encoding="UTF-8"?>
<svg id="chrono-tool-02" xmlns="http://www.w3.org/2000/svg" viewBox="0 0 24 24">
  <path id="icon" d="M14.63.7c.1.1.24.32.28.45.08.25.09,1.16.04,1.42-.13.63-.84.97-1.44.89v.92c1.66.29,3.26,1,4.5,2.14h.05s1.07-1.12,1.07-1.12c-.26-.29-.98-.74-.48-1.16.23-.2.45-.11.66.05.53.42,1.03,1.11,1.58,1.55.34.4-.13.98-.59.69-.09-.06-.48-.51-.52-.51l-1.08,1.12c3.3,3.47,3.61,8.82.75,12.68-3.58,4.82-10.28,5.17-14.33.72C.95,15.93,2.08,8.56,7.47,5.48c.93-.53,1.92-.85,2.96-1.1l.02-.93c-.52.05-1.08-.13-1.31-.63-.15-.32-.18-1.2-.11-1.56.1-.48.56-.87,1.05-.91,1.23.06,2.55-.09,3.77,0,.29.02.58.13.79.33ZM12.61,4.28v-1.65s-.03-.02-.03-.04l.05-.05h1.24s.11-.07.13-.09c.12-.15.12-1.05-.07-1.14h-3.85s-.14.09-.15.12c-.05.11-.03.87.02.97.01.02.11.13.12.13h1.26v1.78l1.28-.04ZM17.64,20.44c4.17-3.93,3.66-10.89-1.24-13.96-5.22-3.26-11.75.12-12.74,6.01-1.32,7.9,7.94,13.65,13.98,7.95Z" fill="currentColor"/>
  <path id="_0" data-name="0" d="M8.28,11.99c-.05-.19-.17-.31-.36-.37h0s-.04-.01-.04-.01l-.09-.02v.02s-1.81,0-1.81,0c-.19.05-.31.17-.37.36h-.02s0,.05,0,.05l-.02.07h.02v1.61l.13.13-.13.13v1.6h-.02s.02.1.02.1v.04h.01c.05.18.18.3.39.36h1.78v.02s.1-.02.1-.02h.04,0c.18-.07.31-.19.36-.41v-1.68l-.13-.13.13-.13v-1.71ZM7.59,14.18v1.15h-1.28v-1.15l-.36-.36.36-.36v-1.16h1.28s0,1.16,0,1.16l.36.36-.36.36ZM11.31,11.99c-.05-.19-.17-.31-.36-.37h0s-.04-.01-.04-.01l-.09-.02v.02s-1.81,0-1.81,0c-.19.05-.31.17-.37.36h-.02s0,.05,0,.05l-.02.07h.02v1.61l.13.13-.13.13v1.6h-.02s.02.1.02.1v.04h.01c.05.18.18.3.39.36h1.78v.02s.1-.02.1-.02h.04,0c.18-.07.31-.19.36-.41v-1.68l-.13-.13.13-.13v-1.71ZM10.61,14.18v1.15h-1.28v-1.15l-.36-.36.36-.36v-1.16h1.28s0,1.16,0,1.16l.36.36-.36.36ZM11.66,12.54h.7v.7h-.7v-.7ZM11.66,14.41h.7v.7h-.7v-.7ZM15.38,11.99c-.05-.19-.17-.31-.36-.37h0s-.04-.01-.04-.01l-.09-.02v.02s-1.81,0-1.81,0c-.19.05-.31.17-.37.36h-.02s0,.05,0,.05l-.02.07h.02v1.61l.13.13-.13.13v1.6h-.02s.02.1.02.1v.04h.01c.05.18.18.3.39.36h1.78v.02s.1-.02.1-.02h.04,0c.18-.07.31-.19.36-.41v-1.68l-.13-.13.13-.13v-1.71ZM14.69,14.18v1.15h-1.28v-1.15l-.36-.36.36-.36v-1.16h1.28s0,1.16,0,1.16l.36.36-.36.36ZM18.41,13.7v-1.71c-.05-.19-.18-.31-.36-.37h0s-.04-.01-.04-.01l-.09-.02v.02s-1.81,0-1.81,0c-.19.05-.31.17-.37.36h-.02s0,.06,0,.06l-.02.06h.02v1.61l.13.13-.13.13v1.6h-.02s.02.1.02.1v.04h.01c.05.18.18.3.39.36h1.78v.02s.1-.02.1-.02h.04,0c.18-.07.31-.19.36-.41v-1.68l-.13-.13.13-.13ZM17.71,14.18v1.15h-1.28v-1.15l-.36-.36.36-.36v-1.16h1.28s0,1.16,0,1.16l.36.36-.36.36Z" fill="currentColor"/>
</svg>