<?xml version="1.0" encoding="UTF-8"?>
<svg id="Bottombar" xmlns="http://www.w3.org/2000/svg" viewBox="0 0 24 24">
  <g id="diapason">
    <path d="M23.22,1.64v20.72c0,.15-.14.25-.28.2l-8.83-2.92c-.09-.03-.15-.11-.15-.2V4.58c0-.09.05-.18.14-.2l8.83-2.94c.14-.05.28.06.28.2ZM12.55,4.9l-4.24,1.39c-.09.03-.15.11-.15.2v10.95c0,.09.05.17.14.2l4.25,1.45c.14.05.29-.06.29-.2V5.1c0-.15-.14-.25-.28-.2ZM7.12,6.69l-1.25.41c-.09.03-.15.11-.15.21v4.7h-1.03v4.32c0,.09.06.17.15.2l2.4.82c.14.05.29-.06.29-.2V6.98c0-.21-.2-.36-.4-.29ZM3.43,7.91c-.25.15-.74.19-.96.32-.05.03-.08.04-.08.1v7.33s.08.1.08.1l1.53.5c.14.05.28-.06.28-.21v-4.06h-.85v-4.09ZM.93,8.78c-.09.03-.14.11-.14.2v6.05c.01.09.07.17.16.2l1.18.4v-7.28l-1.2.43Z" fill="currentColor"/>
  </g>
</svg>