<?xml version="1.0" encoding="UTF-8"?>
<svg id="docv" xmlns="http://www.w3.org/2000/svg" viewBox="0 0 24 24" fill="currentColor">
  <path id="icon" d="M23.16,6.97h-.97c-.05-.58.08-1.3,0-1.86-.02-.15-.17-.43-.33-.43h-10.3v-1.28c0-.08-.26-.32-.38-.29H3.46c-.57.09-.26,1.17-.34,1.57h-1.01c-.09,0-.27.27-.29.38-.09.57.06,1.32,0,1.9h-.92c-.21,0-.47.39-.38.61l1.26,11.94c.12.71.57,1.28,1.32,1.38h17.46c.6-.05,1.09-.57,1.24-1.13.52-3.8,1.11-7.6,1.56-11.41.03-.22.11-.5.13-.7.01-.12,0-.24,0-.36-.06-.07-.26-.31-.34-.31ZM2.76,5.58h.97c.06,0,.29-.23.29-.29v-1.21l.07-.07h6.51l.07.07v1.21c0,.06.23.29.29.29h10.3v1.21l-18.49.18v-1.39ZM20.93,19.46c-.06.24-.22.45-.48.51H3.13c-.34-.12-.4-.41-.45-.73L1.5,7.92h21.01l-1.58,11.55ZM6.76,13.48c1.15,0,2.11-.81,2.34-1.89h5.47c.34,0,.61.28.61.61v.82h-1.71c-.09,0-.26.13-.26.22v4.89h.47c.13,0,.29.2.29.33v.43h3.92s.08-.03.09-.04c.11-.05.15-.16.16-.27v-5.27c-.01-.16-.1-.28-.27-.3h-1.7v-.82c0-.89-.72-1.61-1.61-1.61h-5.47c-.23-1.08-1.19-1.89-2.34-1.89-1.32,0-2.39,1.07-2.39,2.39s1.07,2.39,2.39,2.39ZM13.99,16.61h3.41c.1.04.09.17-.01.19h-3.39c-.13,0-.14-.17,0-.19ZM13.99,15.85h3.35c.12,0,.19.11.08.18h-3.44c-.11,0-.11-.16.01-.18ZM17.4,18.31h-1.39c-.08,0-.13-.11-.06-.16.02-.01.05-.02.07-.02h1.34c.11.01.12.14.03.19ZM17.4,17.56h-3.45c-.09-.05-.07-.16.02-.19h3.43c.08.05.08.15,0,.19ZM17.41,15.28h-3.47c-.08-.04-.08-.14,0-.18h3.46c.07.04.07.14,0,.18ZM17.34,14.53h-3.33c-.12,0-.17-.14-.06-.19h3.46c.1.07.04.2-.07.19ZM16.6,13.74s-.03.02-.05.03h-1.74c-.1-.04-.09-.18.02-.19h1.69c.09-.01.14.1.08.16ZM13.78,18.45v.29l-.43-.42h.32s.11.09.11.13Z"/>
</svg>