<?xml version="1.0" encoding="UTF-8"?>
<svg id="setlist" xmlns="http://www.w3.org/2000/svg" viewBox="0 0 24 24">
  <path id="icon" fill="currentColor" d="M17.72.52s.1.03.15.03c.27,0,.57-.02.83,0,.08,0,.24.02.28.1.35,1.01.69,2.03.93,3.07.9,3.79.87,7.84,0,11.63-.1.44-.23.87-.34,1.31-.08.02-.16.03-.25.03-.37.02-.87.03-1.24,0-.03,0-.14-.01-.15-.04.2-.74.42-1.49.58-2.24.86-4.04.61-8.37-.68-12.29H3.48c.11.5.26.97.38,1.45.99,4.09.94,8.42-.15,12.49-.41,1.55-1.34,3.1-.3,4.61,1.24,1.8,3.98,1.55,4.85-.46.25-.59.22-1.29.24-1.93h14.24v.16l-.03.07c.25,2.7-1.85,5.11-4.6,4.96-3.59,0-7.19,0-10.77-.03-1.01-.01-2.12.14-3.06-.21-1.09-.4-1.98-1.19-2.49-2.24-.98-2.03-.08-3.48.43-5.43.81-3.12.99-6.26.53-9.45-.28-1.92-.85-3.76-1.5-5.58h16.47ZM17.59,14.09l-3.32-1.92c-.15-.09-.34.02-.34.2v3.83c0,.17.19.28.34.2l3.32-1.92c.15-.09.15-.31,0-.39ZM16.15,6c0-.55-.45-1-1-1H6.67c-.55,0-1,.45-1,1s.45,1,1,1h8.48c.55,0,1-.45,1-1ZM16.79,10.15c0-.55-.45-1-1-1H7.31c-.55,0-1,.45-1,1s.45,1,1,1h8.48c.55,0,1-.45,1-1ZM12.55,14.29c0-.55-.45-1-1-1h-4.88c-.55,0-1,.45-1,1s.45,1,1,1h4.88c.55,0,1-.45,1-1Z"/>
</svg>