<?xml version="1.0" encoding="UTF-8"?>
<svg id="documents-sidebar" xmlns="http://www.w3.org/2000/svg" viewBox="0 0 24 24" fill="currentColor">
  <path id="icon" d="M6.12,22.13v-1.5c0-.43-.54-1.13-.99-1.13h-1.63V2.63c0-.29.57-.79.89-.76h15.2c.56.07.88.48.92,1.03v18.18c-.03.4-.17.75-.54.94-.05.03-.28.12-.32.12H6.12ZM15.15,4.38c.19-.21.03-.6-.27-.56h-5.82c-.38.05-.42.52-.08.65h6.01s.13-.05.16-.09ZM6.04,6.45c-.39.19-.23.67.19.67h11.5c.39.01.59-.41.24-.65l-11.94-.02ZM6.04,9.07c-.28.11-.3.48-.03.62h11.96c.23-.15.24-.47,0-.6l-11.94-.02ZM6.14,11.66c-.42.07-.42.62-.04.66l11.88-.03c.36-.26.13-.66-.28-.65H6.14ZM6.14,14.28c-.45.08-.42.66.02.67h11.7c.36-.08.38-.52.04-.65H6.14ZM6.11,16.9c-.34.08-.39.46-.08.64h11.89c.31-.11.31-.47.02-.62l-11.83-.02ZM12.95,19.59c-.23.2-.08.56.21.6l4.78-.03c.32-.17.27-.6-.11-.65h-4.64c-.08,0-.18.03-.24.08ZM5.44,20.64c0-.14-.26-.45-.39-.45h-1.09l1.48,1.44v-.99Z"/>
</svg>