<?xml version="1.0" encoding="UTF-8"?>
<svg id="dossier-sidebar" xmlns="http://www.w3.org/2000/svg" viewBox="0 0 24 24" fill="currentColor">
  <path id="icon" d="M23.87,7.31l-.02-.18-.1-.11c-.21-.24-.37-.42-.6-.42h-.6c0-.15,0-.31.02-.48.02-.35.04-.72-.01-1.06-.04-.26-.28-.75-.7-.75h-9.93v-.9c0-.22-.17-.4-.32-.51-.16-.13-.32-.18-.47-.16H3.4c-.74.12-.69.97-.65,1.48,0,.03,0,.06,0,.09h-.64c-.39,0-.63.53-.66.7-.05.34-.03.71-.01,1.08,0,.18.02.35.02.51h-.56c-.22,0-.44.14-.6.37-.15.22-.21.48-.15.68l1.26,11.92c.17.95.78,1.58,1.69,1.69h17.5c.72-.07,1.37-.65,1.58-1.46.18-1.37.38-2.73.58-4.1.34-2.4.7-4.87.99-7.32.01-.09.04-.2.06-.31.03-.15.06-.29.07-.41h0c0-.08,0-.16,0-.23,0-.05,0-.09,0-.13ZM10.95,5.96h9.93v.47l-17.74.17v-.64h.59c.26,0,.67-.41.67-.67v-.9h5.89v.9c0,.26.41.67.67.67ZM22.08,8.29l-1.52,11.08c-.02.08-.07.21-.12.23H3.2c-.07-.05-.11-.12-.15-.39l-1.13-10.92h20.16Z"/>
</svg>