<?xml version="1.0" encoding="iso-8859-1"?>
<!-- Generator: Adobe Illustrator 29.4.0, SVG Export Plug-In . SVG Version: 9.03 Build 0)  -->
<svg version="1.1" id="Calque_2_00000026158952792226705180000013379398534187758489_"
	 xmlns="http://www.w3.org/2000/svg" xmlns:xlink="http://www.w3.org/1999/xlink" x="0px" y="0px" viewBox="0 0 500 80" fill="currentColor"
	 enable-background="new 0 0 500 80" xml:space="preserve">
<path d="M-42.18,87.58c2.85-1.32,6.11-2.26,8.9-3.64c4.91-2.44,9.34-5.28,14.08-7.91c6.03-3.34,12.68-6.13,18.07-10.32
	c1.03-0.8,4.15-3.9,5.12-4.11c0.43-0.09,0.9,0.05,1.31-0.17c-0.05,0.47-0.19,0.81-0.55,1.15c-6.36,6.02-14.81,10.03-22.72,14.14
	c-4.8,2.89-9.62,5.74-14.69,8.22c-2.02,0.99-4.21,1.61-6.2,2.64h-3.34H-42.18z M81.22,82.93c2.35-2.46,3.67-4.83,5.01-7.78
	c0.35-0.77,1.43-1.73,0.32-2.25c-0.95-0.07-2.37,3.91-2.83,4.71c-2.09,3.64-5.79,6.73-8.53,9.97h1.75L81.22,82.93z M222.1,2.11
	l-0.63-0.14l0.32-0.14c-0.57,0.27-1.05-0.3-1.18-0.3c-1.49,0.02-3.39,0.34-4.93,0.45c-0.46,0.03-0.94-0.14-1.26-0.11
	c-0.34,0.03-0.85,0.42-1.37,0.25l0.79,0.28l-3.49,0.43l0.16-0.28c-0.52,0.09-1.33,0.05-1.8,0.14c-0.33,0.07-0.15,0.07-0.81,0.13
	c-0.77,0.08-1.52,0.35-2.31,0.29l0.63,0.28l-0.95,0.22c0.71,0.16,1.19,0.61,2.07,0.5l-0.32-0.28c1.74,0.48,3.36-0.37,5.08-0.29
	l-1.27-0.28c0.54-0.1,1.11-0.09,1.66-0.15c0.62-0.07,1.39-0.21,2.09-0.27l0.15,0.28c0.99-0.64,2.21-0.09,3.16-0.15
	c0.6-0.04,1.39-0.49,2.16-0.29l0.16-0.65l1.91,0.22V2.11L222.1,2.11z M122.52-0.74c-0.05-0.46,0.19-1.07-0.24-1.43l-0.4,1.43
	c-0.23-0.25-0.18-0.33-0.16-0.72l-1.43-0.29l0.47-0.5l-0.95-0.5c0.42,0.6-0.28,0.5-0.13,1.11l0.61,0.46l-0.95,0.22
	c0.58,0.76,1.16-0.18,1.9,0.36v0.28l-0.29,0.02l0.13,0.41h-0.48l0.16,0.29l-0.95,0.14v-0.71l-0.64,0.36
	c0.35,0.03,0.74,0.76,0.8,0.78c0.4,0.21,0.19-0.43,0.63-0.28l0.16,0.57L121,0.83l0.37,0.21l-0.13,0.36l1.43,0.14
	c-0.03,0.49-0.9,0.57-0.79,1.14l0.95-0.28l-0.47,0.5c0.16,0.35,0.61,0.34,0.47,0.79h-0.95l0.32-0.28h-0.47v0.43l0.48,0.14l-0.6,0.17
	l-0.03,0.4c0.48,0.03,1.39-0.15,1.43,0.43c0.36-0.1,0.07-0.85,0.16-1.14l0.86,0.44l0.16-0.29l1.04,0.43l0.16-0.43l0.08,0.28
	c0.4-0.25,0.16-0.51,0.08-0.86l-0.63,0.43V3.28l0.95-0.09l0.16-0.43l-0.32-0.14c1.08-0.78,0.53,0.06,0.74,0.46
	c0.25,0.46,0.95,0.27,0.51,1.07c-0.1,0.19-0.64,0.35-0.46,0.83l0.78-0.15l0.27-0.86h0.85l-0.48,0.72l0.78-0.16V3.4l0.49,0.14
	c-0.33-0.46,0.25-0.09,0.16-0.57c-0.19,0-0.39-0.14-0.57-0.14c-0.35,0-0.7,0.45-0.85,0.07c-0.13-0.31,0.53-0.12,0.56-0.5l0.56,0.22
	c0.09-0.86-0.87-0.21-1.11-0.36V1.55l0.48,0.07c-0.52-0.58-0.48-1.2-0.48-1.93l0.47-0.07l-0.31-0.35l1.11-0.72v-0.28l-0.31-0.08
	c0.07-0.19,0.76-0.54,0.79-0.29v0.64l0.39-0.01l0.56,1.73l0.16-0.71l0.32,0.28l0.39-0.3l1.02,0.29c0.31-0.4,0.34-0.3,0.18-0.84
	l0.63-0.14l-0.32,0.85c0.26,0.2,0.75-0.54,0.48-0.79l0.31-0.07c0.26,0.65,1.46,0.69,2.06,1.22c0.15,0.14,0.11,0.37,0.27,0.5
	c0.13,0.1,1.43,0.47,1.48,0.42l-0.32-0.86l0.48-0.07c-0.46-0.36-1.07-0.14-1.68-0.35c-0.45-0.15-0.8-0.65-1.33-0.74l0.15-0.7
	l-0.79,0.29v-0.43c-0.77,0.32-0.63-0.11-1.05-0.41c-0.07-0.05-1.18-0.44-1.25-0.44c-0.6,0,0.39,0.67,0.24,0.85l-1.11-0.29l0.48-0.14
	c-0.29-0.3-0.27-0.46-0.14-0.85l0.59,0.02l0.19,0.26c-0.12-0.54,0.31-0.53,0.8-0.57c0.05-0.3,0-0.31-0.32-0.29
	c0.21-0.57,0.7-0.38,1.11-0.64l-0.47-0.07l0.32-0.21c-0.48-0.63-0.59-0.14-1.03-0.1c-0.14,0.02-1.37,0.13-1.19-0.19l1.83-1.22
	l-0.08,0.57l0.79-0.14c-0.48,0.4,0.04,0.53-0.16,1c0.54-0.18,0.95-0.38,1.11-0.93l-0.32-0.22l-0.32,0.28
	c0.48-0.47,0.17-1.05,0.88-1.29c0.47,0.87,0.24-0.28,0.59-0.54c0.19-0.14,0.54-0.02,0.75-0.12c0.49-0.24,1.1-1.02,1.76-1.26
	c0.7-0.26,1.67,0.03,1.42-1.08l0.47,0.43c-0.15-0.8,0.59-0.86,1.27-0.71l-0.32,0.71c0.13,0.16,1.84-0.14,1.34,0.72l-0.54,0.07
	l0.95,0.36c-0.27,0.54-0.8,1.31-0.08,1.7l0.4-0.27l0.16,0.71c0.03-0.24-0.06-0.53,0-0.76c0.04-0.15,0.47,0,0.32-0.38l-0.47,0.14
	v-0.57l0.47,0.28c0.01-0.71,0.34-1.3,0-2l-0.48,0.14l0.13-0.26c-0.97-0.41-0.04-0.87-0.13-1.45l-0.88,0.43L142-10.91l-0.24,0.57
	l-0.16-0.71c-0.44-0.22-0.66,0.71-0.79,0.07l0.87-0.79l0.08,0.57l0.63-0.28c0,0.16-0.1,0.55,0.24,0.43c0.53-0.2-0.24-0.42-0.12-0.67
	l-0.59-0.26c0.5-0.65,0.9-0.86,1.74-1.07c0.15,0.58-0.15,0.51-0.47,0.86h0.64c0.16,0.13-0.34,1.41,0.32,1.29l-0.16-1l0.79-0.22
	h-0.64c0.08-0.38-0.08-0.76,0.48-0.79v-0.27l-0.3-0.02v-0.27c0.63-0.01,0.25-0.56,0.33-0.89c0.12-0.53,2.25-2.14,2.83-2.61
	c2.81-2.28,5.81-4.43,8.58-6.71c1.07-0.89,1.99-1.96,3.17-2.73l0.32,0.16l-0.16,0.78l0.4-0.14c0.12,0.38,0.21,0.88-0.16,1.14
	l-0.4-0.85c-0.14,0.86-0.42,1.6-1.11,2.22c0.3,0.24,0.49-0.28,0.75-0.34c0.24-0.05,0.45,0.11,0.68,0.13l-0.08,0.28l-0.4-0.08
	l-0.26,0.38l-0.77-0.02l-0.4,1.01c0.41,0.17,0.26-0.28,0.41-0.29c0.1,0,0.25,0.14,0.36,0.12c0.09-0.02,1.24-1.13,1.27-1.21
	c0.08-0.25-0.02-0.54,0.06-0.81c0.13-0.4,1.03-1.2,1.05-1.78l0.04-0.23l-0.33-0.15c0.19-0.37,0.53-0.66,0.32-1.08l-0.31,0.43
	l-0.29-0.69c1.57-1.11,2.91-2.61,4.26-3.96c0.28-0.28,0.71-0.49,0.9-0.69c1.8-1.83,3.39-3.87,5.13-5.74
	c0.04-0.34-0.05-0.18-0.28-0.11c-0.6,0.18-0.27,0.36-0.59,0.75c-0.8,0.94-1.9,1.71-2.73,2.62c-6.45,7.09-14.06,13.24-21.95,19.07
	C144.78-15.41,142.22-15,142-15c-0.33,0-0.16-0.36-0.46-0.31s-0.69,0.31-1.17,0.39c-1.92,0.32-3.98,0.56-5.91,0.75
	c-0.03,0.64,1.35,0.68,1.51,0.85l0.08,0.58h-0.48l0.16,0.29l-0.64,0.14l4.13-0.43l-1.11-0.28c1.87-0.4,3.8-0.39,5.72-0.57v0.43
	h-3.02c0.35,0.48,1.47-0.11,1.75,0.43c-0.93-0.24-0.9,0.38-1.59,0.43l0.16,0.57l-0.47-0.57v0.85c-0.96-0.16-0.74,0.77-1.53,0.99
	c-0.31,0.09-0.13-0.43-0.62-0.27c-0.45,0.15,0.04,0.63-0.15,0.86c-0.08,0.11-0.46,0.16-0.65,0.29c-0.77,0.52-1.61,1.23-2.41,1.69
	c-0.27,0.16-0.75,0.19-0.91,0.29c-0.17,0.12-0.1,0.42-0.25,0.52c-0.08,0.05-0.34-0.08-0.52-0.04c-0.29,0.06-0.43,0.35-0.92,0.11
	l0.25,0.57c-0.84,0.79-3.51,2.01-1.04,2.58c0,0.66-0.53,0.25-0.84,0.31c-0.21,0.04-0.3,0.34-0.59,0.26L130.64-4h-0.47l-0.01,0.86
	h-0.63l0.32-0.43h-0.64l0.08-1l-0.7,0.21l0.46,0.65c-0.38-0.03-0.7,0.24-1.04,0.28c-0.63,0.08-1.23-0.3-1.65,0.08
	c0.41,0.43,1.02,0.37,1.58,0.36l-0.63-0.28c0.55-0.24,1.57,0.62,1.54,1.05c-0.02,0.23-1.04,1.72-1.23,1.88
	c-0.23,0.19-0.94,0.17-1.27,0.46c-0.56,0.49-0.3,1.14-0.47,1.75l-0.47-0.14c0.26,0.69-0.12,1.14-0.95,1.01v0.42
	c-0.69-0.38-0.25,0.2-0.8,0.14l0.32-0.71c-0.4,0.17-0.77-0.09-0.95-0.43l0.93-0.02l0.1-0.27l0.4,0.29V1.3l0.32,0.28V1.01l-0.47,0.14
	V0.72L124.15,1h-0.31c0.06-0.54-0.43-0.17-0.72-0.2c-0.19-0.03-0.27-0.31-0.55-0.22v0.71c-0.09-0.46-0.16-0.92-0.79-0.86
	c-0.08-0.38,0.21-0.55,0.47-0.79c0.08-0.27-0.12-0.14-0.31-0.35h0.63L122.52-0.74z M144.59,0.75c0.05,0.11,0.27,0.23,0.35,0.4
	c0.35,0.76,0.99,1.3,0.92,1.96c0.27-0.02,0.49-0.02,0.72,0.14c0.48,0.35,1.49,1.61,1.92,2.13c0.32,0.37,0.89,0.6,0.86,1.3
	c-0.64,0.25-1.18-0.49-1.53-0.53c-0.19-0.02-0.41,0.12-0.6,0.1c-0.07,0-1.2-0.38-1.26-0.41c-0.12-0.07-0.31-0.71-0.58-0.87
	l0.95,0.28c0-0.65-0.25-0.32-0.42-0.47s-0.27-0.42-0.52-0.62s-0.7-0.14-0.65-0.49l-0.31,0.28c0-0.31-0.09-0.63-0.48-0.57
	c0.31,0.34,0.33,0.44,0.16,0.86c-0.48-0.29-0.91,0-1.43-0.06c-0.93-0.1-2.26-0.48-3.21-0.7c-0.54-0.12-1.22-0.71-1.63,0.04
	l-0.56-0.36l0.79-0.07l-0.31-0.5c0.61-0.19,0.33-0.44,0.35-0.47c0.11-0.14,0.6-0.17,0.6-0.68c0-0.24-1.06-0.72-0.96-0.28
	c0.04,0.16,0.56-0.05,0.16,0.29c-1-0.22-1.06,0.08-1.83,0.49l-0.32-0.57l-0.24,0.57l-0.95-0.43c-0.15,0.58,0.33,0.47,0.78,0.59
	l0.02,0.84l-0.55-0.39l-1.1,0.38l-0.24-0.33l0.15-0.51c-0.34,0.18-0.27,0.54-0.79,0.43c0.45,0.44,0.46,0.77-0.28,0.52
	c-0.05-0.02-0.03-0.19-0.12-0.21c-0.24-0.07-1.06,0.46-1.51,0.12v0.43l0.49-0.08l0.15,0.37c0.29-0.05,0.26-0.24,0.16-0.43l2.22,0.14
	c-0.54,0.44-0.23,0.96,0.08,0.28c0.7,0.45-0.12,1.02,0.72,1.57h-0.95c0.21,0.79-0.86,0.7-1.13,1.36c0.26,1.32,0.85,2.46,0.69,3.83
	l0.92,1.68c0.28,0.03,0.15-0.32,0.14-0.48c-0.12-1.14-0.72-2.57-0.75-3.55c-0.04-1.13,0.77-0.92,1.15-1.41
	c0.19-0.25,0.15-0.65,0.29-0.81c0.26-0.3,1.17-0.09,1.33-0.76c0.76-0.04,0.6,0.4,0.84,0.66c0.13,0.14,0.37,0.16,0.49,0.31
	c0.22,0.28,0.27,1,0.78,1.19c-0.13-0.25-0.02-0.84-0.09-1c-0.06-0.13-0.31-0.27-0.42-0.46c-0.28-0.5-0.13-0.96-1.07-1.11
	c0.01-0.74,1.11-0.17,1.67-0.14c0.27,0.02,0.52-0.11,0.79-0.12c0.14,0,0.31,0.1,0.47,0.12c0.1,0-0.4-0.51,0.72-0.14l-0.24,0.28
	c-0.05,0.45,0.37,0.13,0.62,0.15c0.86,0.09,3,0.24,3.65,0.44c0.2,0.06,0.21,0.3,0.37,0.41c0.12,0.09,0.4,0.06,0.49,0.17
	c0.09,0.11,0,0.36,0.03,0.39c0.04,0.04,0.37-0.11,0.53-0.09c1.15,0.09,1.4,0.94,2.13,1.07c0.37,0.07,0.87-0.3,1.31,0.03V6.68
	l0.79-0.01l0.02-0.4c0.42,0.27,0.91-0.63,0.78-0.73l-0.48-0.14l0.47-0.14l-1.42,0.29l-0.17,0.56c-0.24-0.32,0.74-2.03,0.95-1.86
	c-0.06,0.5,0.23,0.1,0.45,0.16c0.03,0.01,0.37,0.54,0.42,0.54c0.24-0.12,0.91-0.2,0.65-0.56c-0.36-0.24-0.58-0.45-1.04-0.28
	l-0.08-0.43c-0.59,0.29-1.09,0.73-1.8,0.74l-0.03,0.76c-0.29,0.28-0.27-0.09-0.44-0.21c-0.06-0.04-0.26,0.01-0.33-0.02
	c-0.02-0.01,0.11-0.26,0-0.45c-0.07-0.12-0.7-0.53-0.8-0.75c-0.02-0.33,0.47-0.12,0.31-0.64l-1.27-0.22
	c0.37-0.26,1.14,0.03,0.95-0.64l-1.01,0.42l-0.89-0.78l0.32-0.5l-0.63-0.15l0.21-0.26l1.06,0.26l-0.24-0.43l2.74,0.89l0.04,0.45
	l-0.32,0.23c0.58,0.21,0.83-0.61,0.61-0.84c-0.06-0.06-1.47-0.63-1.69-0.7c-0.46-0.14-1.18-0.12-1.69-0.34l-0.1,0.29h-0.31
	l-0.04-0.26c-0.16,0.13-1.1-0.17-0.92,0.19L144.59,0.75z M138.71,4.11L138.43,4c-0.1,0.53-0.74,0.08-1.15,0.11
	c-0.17-0.55,0.78-0.16,0.95-0.29l-0.16-0.43h0.48l0.16,0.71V4.11z M132.7,34.18c-0.48-0.62-0.74-1.37-1.37-1.91
	c-0.23,0.11,0,0.37,0.07,0.51c1.2,2.23,2.77,4.04,5.04,5.47c2.89,1.83,6.28,3.56,9.42,4.96c4.71,2.09,9.32,4.21,13.71,6.81
	c0.42,0.25,2.85,2.05,3.12,1.83c-0.47-1.28-2.1-1.52-3.17-2.22c-1.27-0.84-2.52-1.82-3.77-2.61c-1.87-1.2-4.06-1.54-6.04-2.5
	c-0.18-0.09-0.76-0.77-1.26-0.8l-0.29,0.27l-1.03-0.43l0.32-0.28c-2.62-0.55-4.5-2.25-6.68-3.49c-2.01-1.14-5.36-2.34-6.76-4
	C133.62,35.33,133.06,34.64,132.7,34.18L132.7,34.18z M158.25,6.69l0.16,0.28c-0.67-0.03-1.47,0.1-2.1,0.3
	c-0.15,0.05-0.12,0.26-0.43,0.35c-0.75,0.22-1.61-0.05-2.32,0.35c-0.75-0.12,0.85-0.34,0.72-0.57l-1.27,0.06l-1.51,0.79l1.57,0.73
	l0.42-0.51c0.53-0.27,4.53-1.38,4.76-1.29c0.15,0.06,0.43,0.39,0.32,0.5l-0.81-0.08c-0.19,0.09,0.13,1.48-1.15,1.22
	c-0.12-0.02-0.03-0.4-0.66-0.29l-0.08,0.43c-0.4-0.2-0.71-0.14-1.03,0.14l-0.39-0.29l0.16,0.43c-0.39,0.01-0.99,0.12-0.95,0.57
	c1.07,0.25,1.93,0.84,2.9,1.29c0.89,0.41,2.14,0.67,3.06,1.17c0.12,0.06,0.08,0.15,0.08,0.25l0.25-0.43
	c-0.16-0.19-1.16-0.36-1.41-0.56s-0.05-0.75-0.9-0.58v-0.42l0.64-0.15l-0.31-0.79l0.47-0.35c-0.8-0.11-0.51,0.42-0.67,0.76
	c-0.1,0.23-0.94,0.96-0.77,0.11l-1.42-0.16l0.63-0.64c0.24-0.12,1.54-0.02,1.59-0.08c0.03-0.03-0.07-0.28,0.04-0.39
	c0.05-0.05,1.24-0.55,1.31-0.55c0.14,0,0.45,0.31,0.71,0.23c0.08,0.41-0.51,0.67-0.6,0.96c-0.14,0.43-0.04,1.92,0.68,2.04l0.25-0.92
	l-0.64-0.44l1.11-0.86l-0.63,0.07l0.34-0.69c0.66-0.28,1.43,0.48,1.83,0.52c0.42,0.04,1.49-0.49,2.12-0.11
	c-0.07,0.31-0.56,0.23-0.71,0.43c-0.12,0.16-0.06,0.47-0.22,0.66c-0.14,0.16-0.45,0.14-0.59,0.25c-0.59,0.47-0.94,1.22-1.8,1.38
	l0.47,0.15v0.47c-0.66,0.17,0.12,0.68,0.53,0.83c1.5,0.54,3.21,1.12,4.61,1.82c0.07,0.03,0.18,0.56,0.42,0.29
	c0.51-0.55-2.36-1.48-2.6-1.59c-0.4-0.18-0.82-0.42-1.21-0.63c0.47-0.15,1.09,0.09,1.56-0.02c0.54-0.13,0.34-0.44,0.74-0.47
	c0.56,0.33-0.25,0.52,0.09,0.91l1.11,0.45c-0.02,0.73,0.41,0.66,1.1,0.79c-0.34-0.48,0.27-0.8,0.79-0.86v1l-0.63-0.07
	c0.54,0.41,1.38,0.44,1.94,0.78c0.49,0.29,0.59,0.95,1.39,0.86c0.04-0.71-0.52-0.45-0.98-0.72c-0.38-0.22-0.74-0.69-1.26-0.79
	c0.06-0.51-0.06-1.06,0.02-1.55c0.04-0.26,0.3-0.42,0.33-0.86c0.04-0.56-0.25-1.09-0.18-1.65l-0.16,0.43l-0.32-0.15l-0.07,2.29
	c-0.79,0.61-2.26,0.36-2.67-0.47c-0.22-0.43,0.6-1.27-0.03-1.67c-0.76,0.67-0.53,1.76-1.9,1.56c-0.41-0.06-0.57-0.32-0.84-0.39
	c-0.46-0.11-1.12-0.01-1.63-0.18c-0.06-0.22,0.21-0.08,0.31-0.25c0.66-1.09,1.69-2.03,3.04-2.53c0.17-0.06,0.38,0.06,0.43,0.02
	c0.06-0.04,0-0.23,0.03-0.24c0.04-0.03,0.78,0.62,0.79,0.67c0.12,0.53-0.48,0.95-0.08,1.33c0.42-0.75,0.7-1.61,1.75-1.69l0.23,0.27
	l0.16-0.86c-0.46-0.03-0.86,0.19-1.33,0.14c-0.61-0.07-0.77-0.64-1.36-0.57v0.57l-0.4-0.12l-0.71,0.41
	c-0.05-0.23,0.14-0.36,0.27-0.54c0.2-0.28,0.6-0.1,0.13-0.46c-0.36,0.75-0.52,0.25-1.13,0.18c-0.2-0.02-0.42,0.12-0.73,0.07
	c-0.4-0.07-1.27-0.66-1.47-0.68c-0.25-0.01-1.84,0.65-1.36,0c-0.92-0.15-1.5-0.04-2.38,0.14l1.39-0.74l-0.12-0.25l0.95,0.14
	l-0.5-0.68l-1.25-0.03L158.25,6.69z M126.17-21.68c0.53-0.55,0.82-1.49,0.87-2.22c-0.61,0.78-2.36,4.39-3.35,4.54
	c-0.16,0.03-0.46-0.16-0.54-0.11c0.27,0.38-0.16,0.6-0.16,1l-0.63-0.28c-0.2,0.17,1.47,2.29-0.16,2.14l-0.02-0.55l-1.41-0.45
	l0.94,0.8c-0.46,0.75-0.08,0.44,0.02,1.05h0.47l0.01-0.55l0.93-0.02l0.02-0.99c0.51,0.36,1.44-0.8,1.74-0.57
	c0,0.45,0.12,0.75,0.64,0.86l0.16-0.43l-0.14,0.84l0.62,0.37c0.06,0.14-1.33,0.38-0.95,0.64l1.27,0.14c-0.62,0.24-1.12,0.11-1.75,0
	l0.16-0.28l-0.48-0.14l0.63-0.29c-0.39,0.11-0.68-0.35-0.87-0.37c-0.68-0.09-0.91,0.52-0.97,0.52c-0.24,0.01-0.68-0.39-0.86,0.14
	l0.64,0.43l-0.48,0.43c0.72,0.05,0.74,0.19,1.03,0.71l0.55-0.43v-0.28l-0.31-0.07c0.86-0.71,1.64,0.18,2.54,0.21l-0.08-0.29
	l0.71-0.35l-0.32-0.14c0.31-0.2,0.32-0.35,0.16-0.64c0.46-0.09,0.21,0.27,0.62,0.37c0.27,0.06,0.54,0.07,0.81,0.06l-0.32,0.43
	l1.03-0.43c0.25,0.5,0.58,0.66,1.12,0.86l0.08-0.43l0.25,0.29l0.7-0.15l-0.32,0.57l0.4,0.15c0.13-0.46,0.75-0.26,1.19-0.43
	c-0.96-0.64-2.31-1.08-3.46-1.39c-0.28-0.08-0.95-0.27-1.06-0.29c-0.32-0.07-0.74-0.1-0.8,0.25c-0.2-0.16-0.48-0.36-0.4-0.64
	c0.12-0.42,1.12,0.04,0.95-0.5c-0.56-0.25-1.06,0.29-1.17,0.27c-0.1-0.01-1.32-0.97-1.38-1.05c-0.66-0.86,0.64-1.9,0.88-2.8h0.55
	c0.05-0.28,0.02-0.29-0.29-0.3l-0.03-0.19L126.17-21.68z M168.42-1.32l0.32-1.57l0.47,0.14c0.06-0.69-0.53-1.51,0.16-2.07L168.9-5.1
	c0.66-0.62,0.83-1.53,1.43-2.25c1.01-1.23,1.32-1.74,2.2-3.06c1.18-1.77,3.01-4.09,3.9-5.92c0.13-0.27,0.15-0.63,0.25-0.92
	c-0.51,0.1-0.66,0.88-0.93,1.31c-1.86,2.98-4.05,5.81-5.9,8.8c-0.84,0.59-1.4,1.01-2.54,0.82l1.52,0.28l-0.09,1.72l-0.4-0.71
	l-0.61,0.28L166.9-5.6c-0.52,0.22-1-0.03-1.58-0.01c-0.38,0-2.65,0.17-2.78,0.22c-0.07,0.03-0.19,0.17-0.16,0.21
	c1.33,0.43,2.63-0.27,3.97,0c-0.23,1.2-2.19,0.55-3.26,0.56c-0.88,0.01-1.84,0.28-2.77,0.15c0.19,0.52,0.68,0.1,1,0.17
	c0.16,0.03,0.27,0.26,0.51,0.26c0.14,0,0.04-0.22,0.15-0.26c0.9-0.32,2.43-0.07,3.35,0.19c0.31-0.24,2.98-0.61,3.09-0.51
	L168.42-1.32L168.42-1.32z M152.73-9.98c-0.05-0.25,0.35-0.76-0.04-0.99c-0.12-0.07-0.46,0.12-0.7,0.08
	c-0.83-0.14-2.05-0.87-2.88-0.44c-0.31,0.16-0.51,0.67-0.57,0.71c-0.05,0.03-0.74-0.09-1.28,0.06s-0.81,0.53-0.86,0.54
	c-0.18,0.01-0.39-0.14-0.59-0.11c-0.12,0.02-2.14,0.99-2.01,1.1c0.31,0.06,0.91,0,0.8,0.43l-0.48,0.14l0.86-0.13l0.25,0.56
	c-2.12-0.27-0.52,1.48-0.32,2.43c-0.48,0.08-0.41-0.46-0.68-0.67c-0.17-0.14-0.53-0.2-0.74-0.33l0.48,1.57
	c0.32-0.24,3.01-0.02,2.53-0.57c-0.58,0.5-1.33-0.15-1.48-0.74c-0.05-0.22,0.08-0.47,0.03-0.59c-0.08-0.22-0.45-0.19-0.47-0.32
	c-0.07-0.57,0.59-0.44,0.92-0.6c0.55-0.27,1.01-0.73,1.63-0.89l-0.32-0.21c0.11-0.21,0.46-0.16,0.59-0.25
	c0.15-0.11,0.12-0.43,0.37-0.6c0.34-0.23,0.88-0.18,1.18-0.76l0.4,0.11l-0.08,0.43c0.54-0.26,1.45,0.11,1.51-0.57h0.15
	c-0.06,0.54,0.22,0.1,0.61,0.07c0.29-0.02,0.58,0.11,0.88,0.08l0.1-0.29c0.35,0.07,0,0.77,0,1.06c-0.04,0.88,0.04,1.77,0,2.65
	l0.31-0.28v1.86h1.75l-1.59-0.14c-0.18-1.43,0.31-2.69,0.88-4c0.18-0.24,0.18-0.07,0.34-0.03c0.84,0.24,1.32,0.57,1.88,1.17
	l-0.08-0.57l0.71,0.57c0.27-0.27-0.44-0.49-0.4-0.86c-0.09-0.05-0.39,0.27-0.55,0.25c-0.05,0-0.79-0.41-0.83-0.44
	c-0.14-0.11-0.14-0.4-0.28-0.53c-0.18-0.16-1.04-0.97-1.11-1c-0.49-0.19-0.07,0.93-0.08,1.07c0,0.25-0.15,1-0.23,1.23
	c-0.1,0.28-0.34,0.26-0.36,0.31c-0.11,0.22,0.09,0.56-0.2,0.54v-1.64l0.31,0.07c0.1-0.26-0.24-0.34-0.28-0.52L152.73-9.98z
	 M207.96,71.08c-2.81-1.84-6.4-3.97-9.38-5.57c-0.41-0.22-2.02-1.18-2.37-0.94c1.26,1.67,3.8,2.57,5.68,3.67
	c1.32,0.77,2.68,1.66,3.93,2.47c0.39,0.25,2.33,1.44,2.62,1.52c0.31,0.08,0.75-0.13,0.79-0.09c0.02,0.02-0.02,0.3,0.16,0.5
	c0.16,0.17,2.73,1.63,2.94,1.65s0.33-0.02,0.24-0.21s-1.38-1.18-1.67-1.36c-0.79-0.49-1.87-0.81-2.59-1.17
	C208.24,71.52,208.17,71.22,207.96,71.08L207.96,71.08z M196.84,65c0.74,0.21,1.56,0.7,2.21,1.08c0.44,0.26,1,0.51,1.28,0.92
	C199.16,66.53,197.73,65.83,196.84,65z M126.35-26.88c-0.09,0.05-1.4,1.08-1.65,1.27c-0.52,0.41-0.95,1-1.39,1.36
	c-1.45,1.18-2.95,2.3-4.37,3.51l-1.83-0.16c0.12,0.45,1.39,0,1.27,0.57c-0.77-0.38-0.32,0.25-0.56,0.3h-0.87l0.48,0.35l-0.48,0.21
	l1.43,0.29l-0.32,0.43l0.61,0.12c0.13-0.35,0.65-0.8,0.74-0.26c0.37-0.28,0.65-0.52,0.56-1l-0.63,0.5c0.46-1.32,1.59-2.35,2.85-3.08
	v0.43l0.46-0.14l0.26,0.42h0.32l0.15-0.27l0.4,0.13c0.14-0.37-0.41-0.37-0.47-0.44c-0.04-0.05,0.42-0.8,0.16-1.12l0.95-0.15
	l-0.17-0.48c0.45-0.15,0.33-0.51,0.57-0.8c0.43-0.53,1.91-1.28,1.98-1.86c0.9-0.04,0.95-0.63,1.31-0.76c0.27-0.1,0.82-0.05,0.9-0.11
	c0.04-0.03,0.11-0.51,0.33-0.77c0.27-0.31,1.01-0.71,1.39-1.04c0.16-0.14,0.45-0.14,0.36-0.46c-0.8,0.53-1.67,1.03-2.46,1.57
	c-0.31,0.22-0.56,0.56-0.88,0.78c-0.18,0.13-0.98,0.34-1.08,0.53c-0.05,0.1,0.13,0.22,0.13,0.26c-0.14,0-0.39-0.16-0.45-0.12
	L126.35-26.88z M174.65,5.79c-1.04,0.25-2.11-0.06-2.58,1.04l0.95-0.14l-0.16,0.28l1.43,0.36h-0.79c0.13,0.53,0.75,0.28,0.95,0.64
	h-1.11c0.17,0.37,0.74,0.38,1.11,0.43c0.04,0.24-0.39,0.13-0.47,0.37c-0.05,0.15,0.14,0.37,0.1,0.53c-0.05,0.24-0.44,0.55-0.27,0.95
	l-0.79-0.21c0.15,0.27,0.59,0.38,0.74,0.53c0.09,0.09,0.32,0.41,0.61,0.68c0.79,0.74,1.48,1.6,2.45,2.15
	c0.29-0.31-1.67-1.91-2.06-2.07c0.61-0.32,0.66-1.2,0.47-1.79l-0.55,1.14l-0.71-0.51l0.47-1.2l0.63,0.14l-0.48-0.86
	c2.03,0.3,4.13,0.5,6.03,1.24c0.2,0.08,0.38,0.36,0.63,0.42c0.17,0.04,0.39-0.23,0.72-0.24s1.31,0.47,1.2-0.13l-9.69-2.58
	c-0.03-0.23,0.34-0.16,0.52-0.29c0.13-0.09,0.48-0.56,0.52-0.57c0.47-0.09,0.34,0.25,0.49,0.28c0.3,0.06,0.69-0.03,1,0l-0.48-0.14
	l0.16-0.35l-0.48-0.08l0.63-0.43c-0.54-0.12-0.8,0.29-1.23,0.39L174.65,5.79z M104.09,49.71c0.04,0.45-0.24,0.84-0.48,1.22
	c-2.11,3.4-5.22,7.11-7.61,10.46c-1.71,2.39-4,4.56-5.88,6.98c-0.57,0.73-0.95,1.73-1.89,2.24c0.05,0.84,0.42,0.56,0.83,0.1
	c0.49-0.55,1.91-2.44,2.48-2.64c0.2-0.07,0.43-0.06,0.64-0.07c0.2-0.35-0.32-0.26-0.33-0.36c-0.03-0.58,0.7-0.59,0.77-0.67
	c0.08-0.09,0.01-0.36,0.12-0.54c0.06-0.09,0.7-0.56,0.87-0.79c0.41-0.55,0.65-1.17,0.94-1.73c0.9-1.78,3.51-4.36,4.81-6.1
	c1.76-2.35,3.18-4.88,4.61-7.22c0.09-0.15,1.25-0.66,0.12-0.89L104.09,49.71z M159.21-4.67l0.31,1.35c-0.3,0.3-0.91-1.2-1.2-1.26
	c-3.89,0.42-7.83,0.3-11.72,0.7c-0.62,0.06-1.49,0.59-1.92,0.13c-0.44,0.25,0.14,0.64-0.4,0.93l0.32,0.16v0.41l-0.88,0.5
	c-0.38,0.16-0.34-1.08-0.87-1.14l-0.13,0.4L143-2.46v0.28l-0.31,0.06l0.47,0.65c-0.67,0.07-0.41,0.4-0.3,0.84l0.61,0.02l-0.16-0.57
	l0.63,0.14v-0.71l0.4,0.28c0.3-0.71,0.33-0.42,0.72-0.57c0.03-0.01-0.18-0.29-0.14-0.47c0.18-0.7,1.3-0.96,1.98-1.06
	c0.52-0.07,0.71-0.17,0.93-0.2c2.38-0.34,5.08-0.08,7.41-0.2c0.65-0.03,1.1-0.37,1.17-0.36c0.12,0.01,0.39,0.24,0.67,0.25
	c0.29,0.01,0.55-0.2,0.77-0.19c0.87,0.05,1.09,1.21,1.83,1.51c0.31-0.58-0.08-0.94-0.17-1.5l0.48-0.5l-0.78,0.08V-4.67z
	 M200.26,4.69c-2.37,0.24-4.03,1.42-6.36,0.78c-1.96,0.23-3.73,0.15-5.68,0.06c-2.96-0.13-5.92-0.11-8.92,0.16
	c-0.75,0.07-1.59,0.14-2.3,0.36c0.43,0.38,1.08-0.02,1.52-0.06c0.6-0.05,1.34-0.12,1.92-0.14c2.61-0.11,6.52-0.37,9.03-0.16
	c0.47,0.04,0.75,0.16,1.17,0.3l-0.15,0.27h0.64l-0.32-0.28c1.46-0.2,2.99-0.28,4.45,0l-0.16,0.28c1.38,0.29,1.95-0.79,3.16-1.06
	c1.26-0.01,2.76-0.19,4.01-0.41c0.21-0.04,0.77-0.02,0.77-0.24C202.13,4.74,201.17,4.6,200.26,4.69z M186.05,22.91
	c-0.16-0.05-0.51-0.2-0.48,0.07c2.71,1.02,5.39,2.11,7.99,3.32c0.2,0.09,0.57,0.09,0.59,0.11c0.02,0.02-0.19,0.29-0.14,0.47
	c0.14,0.55,1.01,0.85,1.33,1.1c1.43,1.14,2.84,2.3,4.29,3.43l0.24-0.07l-0.47-0.64c0.19-0.16,1.54,0.99,1.64,1.18
	c0.13,0.26-0.08,0.52,0.02,0.67c0.14,0.21,3.41,2.97,3.9,3.36c0.21,0.17,1.92,1.48,2.07,1.35c-0.13-0.37-0.67-0.94-0.97-1.2
	c-0.99-0.85-2.28-1.58-3.24-2.51c-1.34-1.3-2.28-2.43-3.81-3.72c-1.77-1.5-3.54-3.17-5.66-4.16c-0.24-0.11-0.77-0.6-1.03-0.68
	l-0.29-0.03l-0.11,0.26c-0.29,0.11-5.01-2.08-5.84-2.33L186.05,22.91z M157.38-21.47c-2.26,2.39-3.99,5.23-6.59,7.36
	c0.47,0.47,1.17,0.58,1.43,1.21l-1.27-0.43l0.32,0.57c-0.73-0.32-1.34,0.3-0.63,0.78c0.51,0.34,1.57,0.21,2.22,0.36l-0.38-0.27
	l-0.09-0.29c0.45-0.29,0.65-0.38,1.26-0.3l-0.6-0.95l0.45-0.56l-0.17-0.48l-0.16,0.36l-0.47,0.07l0.32,0.28
	c-0.68-0.04-0.19,0.83,0.16,1.07c-0.21,0.24-0.77-0.15-0.86-0.35l-0.23-1.49c0.7-0.67,1.25-1.51,1.88-2.27
	c0.16-0.2,0.48-0.28,0.71-0.55c0.69-0.83,0.74-2.23,2.47-1.85c0.08-0.06-0.3-0.91-0.3-1.08c0-0.07,0.23-0.05,0.29-0.17
	c0.08-0.16,0.06-0.36,0.16-0.51c0.07-0.11,0.3-0.09,0.31-0.1c0.11-0.16-0.1-0.32-0.23-0.42V-21.47z M141.63-1.59l-0.3-0.02
	l-0.15,0.28l-0.57-0.13l0.33,0.22l-0.17,0.49l1.04-0.24l0.4,0.59l-0.48,0.3l0.47,0.93c-0.5,0.08-0.7,0.21-1.11-0.14l-0.17,1.2
	l0.48,0.37c-0.76,0.29-1.09-0.06-1.35-0.71c-0.5-0.08,0.07,0.45-0.08,0.57c-0.08,0.07-0.53-0.14-0.48,0.14
	c0.97,0.2,1.68,0.6,2.47,1.14h0.22l0.01-0.28l0.47,0.43l0.16-0.57l-0.47-0.21l0.47-0.07V1.99l-0.4,0.14l-0.08-0.28
	c0.9,0.21,0.98-0.62,1.52-0.72c0.5-0.09,0.47,0.6,1.02,0.36c-0.26-0.45-0.76-0.83-1.33-0.65l-0.26-0.35c0-0.15,0.98-0.24,0.79-0.64
	h-1.27l0.47,0.36l-0.78,0.37c0.37,0.32-0.54,1.52-0.81,1.27c-0.03-0.42,0.49-0.62,0.57-0.77c0.04-0.08,0.18-1.64,0.16-1.73
	c-0.04-0.24-0.43-0.27-0.53-0.38c-0.04-0.04,0.13-0.4-0.31-0.52L141.63-1.59z M169.86-0.66c0.02-0.1,0.22-0.53-0.1-0.51
	c-0.54,0.03-0.54,2.64-0.72,3.14c-0.54,0.52-0.57-1.79-0.55-2l-0.35,0.27l-0.05,2.02l-0.17-0.41h-0.54
	c-0.31,0.53,0.46,0.7,0.87,0.84l0.16-1l0.08,0.57l0.4-0.14v0.71l-0.31-0.28c0,1.03,0.5,0.15,0.55,0.14
	c0.54-0.13,0.39,0.37,0.71,0.51c0.26,0.12,0.9-0.34,0.79,0.49L170,3.41l0.47,0.45l-0.15,0.41c0.98-0.32,0.47,0.06,0.66,0.25
	c0.08,0.08,0.44,0.07,0.6,0.18l-0.08-0.39l-0.21,0.09l-0.5-0.77l0.79-0.36c0.25-0.31-1.47-1.81-2.04-1.73
	c-0.22-0.78,0.2-1.45,0.31-2.18L169.86-0.66z M29.41,44.7c-3.19,2.02-5.98,4.26-8.94,6.43c-2.16,1.59-5.31,3.49-7.17,5.19
	c-0.14,0.13-0.28,0.36-0.37,0.52c0.36,0.26,1.98-1.18,2.27-1.37c0.06-0.04,0.42,0.11,0.45-0.33l0.46,0.13V54.7
	c0.75,0.14,0.85-0.33,1.18-0.53c1.17-0.71,2.75-1.91,3.73-2.85c0.6-0.58,0.79-0.56,1.52-1.06c2.47-1.7,4.49-3.76,7.23-5.22
	l1.59-1.35c-0.66,0.24-1.36,0.63-1.94,1L29.41,44.7z M173.17,17.06c-0.42-0.1-1.18-0.98-1.74-0.73l0.95,0.72l-0.63,0.5
	c1.06-0.14,1.81,0.24,2.7,0.64s1.56,1.07,2.52,1.24l0.02,0.55c0.55-0.23,0.82,0.22,1.27,0.43l-0.16-0.71h0.79l-2.08-0.93v-0.5
	c-0.96,0.45-1.28-0.11-2.21-0.29c0.48-1.32-0.94-0.8-1.44-0.92L173.17,17.06z M135.26-4.15c-0.23-0.05-0.46,0.07-0.6,0.05
	c-0.24-0.03-0.43-0.51-0.87-0.37l0.47,0.57h-1.27l0.32,0.15l-0.32,0.43c1-0.17,1.42-0.28,1.99,0.57c0.54-0.79,0.36-0.4,1.19-0.28
	l-0.16-0.43c0.41-0.16,0.28,0.29,0.4,0.29c0.26-0.01,0.36-0.26,0.64-0.29c0.38-0.04,1,0.32,1.26,0.27c0.19-0.04,0.2-0.43,0.55-0.49
	l2.39-0.06c0.34-0.45-0.98-0.24-1.17-0.28c-0.15-0.04-0.09-0.28-0.11-0.29c-0.05-0.03-0.85,0.22-1.16,0.29
	c-0.14,0.03-0.12,0.27-0.19,0.28c-0.33,0.08-0.9-0.72-1.35-0.22l0.32,0.14c-0.21,0.31-0.45,0.06-0.79,0.07l0.16-0.28
	c-0.7,0.21-1.08,0-1.71-0.12H135.26z M152.3,66.43c-0.42,0.63-1.33,1.45-1.67,2.07c-0.16,0.3,0.03,0.14,0.17,0.14
	c0.3,0.01,1.14-0.13,0.94,0.42L150.33,69c-0.1,0.57-0.6,0.98-0.77,1.53c-0.27,0.85-0.11,2.13-0.36,3.04l0.55-1.14l0.56,0.28
	l-0.64-1.35l1.04-1.79l0.31-0.14l1.04,0.28c0-0.38-0.05-0.78,0.07-1.16c0.1-0.34,0.39-0.17,0.41-0.41
	c-1.01-0.12,0.26-1.06-0.24-1.72L152.3,66.43z M157.21-11.45c-0.52-0.38,0.08-2.76,0.54-3.25c0.02-0.19-0.31-0.52-0.53-0.48
	c-0.15,0.03-0.51,1.12-0.49,1.21c0.02,0.13,0.24,0.26,0.25,0.43c0.02,0.32-0.6,0.73-0.15,1.22c-0.47,0.12-0.36-0.46-0.48-0.71
	l-0.63,0.15c-0.16,0.7,0.24,0.11,0.47,0.56c-0.53-0.11-0.46,0.25-0.79,0.43l0.08-0.57c-0.32-0.39-0.36,0.59-0.88,0.29
	c-0.1-0.06-0.02-0.72-0.32-0.71v0.86l-0.4-0.28c0,0.54,0.41,1.13,0.79,0.29c0.26,0.39,0.64,0.36,1.02,0.51
	c0.16,0.06,0.26,0.26,0.45,0.32c0.26,0.07,0.62-0.04,0.81,0.06c0.06,0.03,0.55,0.97,0.59,1.11c0.08,0.3,0.05,0.62,0.2,1.11
	c0.11,0.37-0.11,0.93,0.51,0.89c-0.65-0.51,0-0.76-0.03-1.05s-0.55-0.77-0.61-1.18c-0.04-0.29,0.21-0.99,0.15-1.05
	c-0.02-0.02-0.39,0-0.56-0.14L157.21-11.45z M141.26-36.62c-0.52,0.19-1.17,0.18-1.43,0.71c0.47-0.15,0.76-0.34,1.27-0.07
	c-0.16,0.42-0.54,0.42-0.73,0.55c-0.13,0.09-0.17,0.28-0.32,0.36c-0.29,0.16-0.96,0.28-1,0.32s0,0.89-0.42,0.99
	c-0.71,0.17-0.09-0.53-0.71-0.43c0.56,1.22-0.68,0.8-0.78,0.86c-0.08,0.06-0.09,0.51-0.33,0.64s-0.65,0.04-0.96,0.13
	c-0.39,0.11-0.85,0.74-1.12-0.05h-0.22c-0.09,0.23-1.12,0.63-0.88,0.84l0.57,0.14c-0.18,1.05,0.32,0.08,0.42,0.04
	c0.19-0.09,0.51,0.03,0.76-0.1c0.16-0.08,0.22-0.41,0.52-0.54c0.45-0.19,1.6,0.38,1.81-0.68l1.79-1.16l-0.15-0.55
	c0.6,0.06,0.82-0.32,1.19-0.58c0.16-0.11,0.43-0.1,0.51-0.18l0.2-1.25L141.26-36.62z M181.61-57.85c-0.74-0.59-0.42-1.03-0.35-1.72
	c0.02-0.16,0.14-0.51-0.14-0.48c-0.19,0.56-0.14,1.37-0.33,1.89c-0.13,0.36-1.23,0.5-0.62,1.25l-0.63,0.22
	c0.81,0.75,0.24,1.5,0.16,2.36c0.67-0.68,0.72-1.88,1.19-2.72h1.51c0.15-0.59-0.46-0.53-0.78-0.79L181.61-57.85z M131.41,45.85
	c-0.07,0.27,0.17,0.34,0.32,0.5c0.79,0.86,1.54,1.25,2.27,2.18c0.08,0.1,0.5,0.29,0.59,0.54v0.14l-0.31,0.07l0.24,0.28
	c0.34-0.38,0.84-0.35,1.31-0.17c0.96,0.36,1.82,1.83,2.59,2.39c0.14,0.1,1.98,0.86,2.06,0.79c-0.09-0.59-0.1-0.76-0.8-0.78
	c-0.15-0.07-0.01-0.41-0.23-0.63c-0.18-0.19-1.15-0.93-1.35-0.8l1.25,1.02l-0.22,0.48c-0.14,0-0.71-0.37-0.82-0.48
	c-0.26-0.25-0.78-1.09-1.09-1.37c-0.29-0.26-0.77-0.32-1.02-0.65c0.04-0.29,1.24,0.58,0.79,0l-0.73-0.35l-0.29,0.27
	c-0.29-0.36-0.82-0.2-1.1-0.28s0.15-0.64-0.41-0.29l0.63-0.71l-3.65-2.14L131.41,45.85z M173.66,58.79
	c-0.69-0.57-2.04-0.99-2.91-1.54c-1.45-0.92-2.46-2.39-4.24-2.83c1.55,1.15,3.34,2.93,5.08,3.79c0.26,0.13,0.78,0.14,0.92,0.25
	s0.11,0.42,0.36,0.6c0.11,0.08,0.73,0.26,0.79,0.22C173.7,59.25,173.82,58.92,173.66,58.79L173.66,58.79z M160.57,0.83
	c-0.43-0.04-1.57-0.58-2.12-0.68c-1.1-0.2-2.43-0.3-3.53-0.18l1.19,0.44c0.26,0.07,0.22-0.3,0.33-0.31
	c0.18-0.02,2.18,0.21,1.97,0.44l-0.32,0.14c0.37,0.23,0.66-0.09,0.87-0.09c0.25,0,1,0.38,1.54,0.42c0.75,0.06,1.51-0.33,2.19,0.04
	c0.33,0.17,2.99,2.69,2.71,2.92l-0.94-0.02l-0.03-0.38c-0.63,0.11-0.68-0.35-0.81-0.42c-0.18-0.1-0.62,0-0.92-0.1
	c-0.69-0.22-2.13-1.27-2.69-0.93l0.08,0.29c-1.01-0.17-1.55-0.87-2.62-0.36l0.32,0.43c-0.75,0.62-1.17,0.21-1.9-0.07l-0.16,0.64
	l0.64,0.22l-0.16,0.28l1.11-0.15l-0.13-0.26c0.44-0.08,0.62-0.49,0.94-0.65c1.27-0.66,2.95,0.65,4.04,1.2l0.08-0.43
	c0.56-0.36,2.75,0.76,1.39,0.81c-0.33,0.01-0.46-0.16-0.75,0.33c0.58,0.25,1.51-0.26,1.8-0.25c0.37,0,0.81,0.48,1.13,0.4
	c0.56-0.13-0.32-1.28,0.09-1.72l0.47,0.14V2.55l0.64-0.01V2.11l-0.79-0.15l-0.15,0.52l-0.62-0.1l-0.02-0.7l-0.41,0.41
	c-0.78,0.03-0.6-0.38-0.75-0.52c-0.17-0.17-1.17-0.59-1.48-0.89c-0.21-0.2-0.36-0.44-0.39-0.72c-0.28-0.05-0.09,0.25-0.2,0.39
	c-0.17,0.23-1.28,0.5-1.62,0.47L160.57,0.83z M188.67,3.68c-0.4,0.01-0.75,0.25-1.13,0.28c-1.31,0.12-2.55,0-3.8,0
	c-1.53,0-3.54,0.58-5.23,0.31l-1.2,0.42c1.23-0.19,2.49-0.08,3.73-0.14c1.75-0.1,3.56-0.26,5.26-0.42c1.48-0.13,2.09-0.06,3.48,0.14
	c0.17,0.02,1.01,0.1,1.04-0.15c-0.93,0.3-1.48-0.46-2.14-0.44L188.67,3.68z M131.01,15.4l0.08,0.29h-2.22
	c0.12,0.14-0.01,0.37,0.09,0.44c0.38,0.25,2.36,0.71,2.86,0.72c0.05,0,0.76-0.4,0.79-0.43c0.05-0.06-0.26-0.92,0.55-0.87
	c0.03,0.6-0.65,1.01,0.08,1.43l0.87-0.93l-0.57-0.21l0.09-0.43c-0.92-0.22-0.97,0.38-1.68,0.56c-0.07,0-0.07-0.17-0.13-0.2
	c-0.26-0.12-0.53-0.27-0.81-0.35L131.01,15.4z M216.94,46.98c-0.11-0.2,0.09-0.48-0.16-0.7c-0.45-0.4-0.96-0.18-1.03-1.23
	c-0.27-0.37-0.42,0.06-0.65,0.02c-0.21-0.04-0.73-0.57-0.78-0.51l0.63,1.37l3.1,2.49c0.22-0.1-0.03-0.42-0.13-0.53
	c-0.24-0.26-0.75-0.5-0.97-0.91L216.94,46.98z M158.09,4.9c-0.42-1-0.9-0.48-1.51-0.43c-0.49,0.04-1.07-0.06-1.51,0
	c-0.98,0.11-1.43,0.57-2.34,0.75l-1.95,1.47l0.47,0.29c0.08-0.76,2.04-1.74,2.77-1.72l0.25,0.29c0.13-0.7,1.94-0.85,2.62-0.86
	c0.04,0,0.99,0.08,0.8,0.29c-0.29,0.28-0.94,0.43-1.2,0.65c-0.22,0.18,0.07,0.72-1.11,0.5v0.5l-0.79,0.07
	c0.12,0.42,1.16-0.08,1.27,0l-0.32,0.43l1.11-0.14l-0.63-0.43c0.46,0.13,1.1-0.68,1.35-0.67c0.14,0,0.28,0.32,0.55,0.24l0.16-0.57
	h-0.63l0.63-0.65L158.09,4.9z M180.81,21.05c-0.33-0.31-1.94-0.48-2.31-1.07l0.09,0.49l-0.33,0.22c0.24,0.14,1.35,0.27,1.4,0.31
	c0.07,0.05,0.02,0.32,0.17,0.47c0.19,0.18,2.11,0.74,2.51,0.75c0.2,0,0.33-0.18,0.44-0.19c0.31-0.01,1.18,0.52,1.67,0.37l-1.11-0.71
	h1.11c-0.54-0.21-1.1-0.49-1.6-0.76c-0.1-0.06-0.21,0.02-0.15-0.24c-0.38,0.15-0.31,0.75-0.02,0.95l-0.22,0.34
	c-0.36-0.34-1.14,0.06-1.47-0.32c-0.1-0.11,0.02-0.42-0.19-0.62L180.81,21.05z M159.12-5.6c0,0,0.36-0.14,0.39-0.21
	c-0.24-0.69-0.78-0.86-1.21-1.27c-0.62-0.59-0.57-1.08-1.72-1.09l1.98,2.43c-0.34,0.1-0.61-0.28-0.85-0.26
	c-0.18,0.01-0.41,0.23-0.68,0.26c-0.44,0.05-0.82-0.15-1.25-0.15c-0.16,0-0.99,0.09-1.04,0.29h4.37H159.12z M180.75,17.14
	c-1.14,0.8,0.89,1.92,1.4,2.57l0.88-0.02c0-0.3-0.75-0.24-0.79-0.29c-0.06-0.07,0.29-1.56-0.79-1.14l0.63-0.71L180.75,17.14
	L180.75,17.14z M171.91,7.12l0.16,1h-0.63l0.32,0.57c-0.23,0.17-0.77-0.74-1.28-0.37c-0.07,0.91-0.99,0.15-1.1,0.94l-0.47-0.29
	c-0.32,0.52,0.14,1.33-0.48,1.5l0.63,0.36c-0.46-1.16,0.26-0.87,0.49-1.08c0.17-0.15,0.12-0.45,0.16-0.48
	c0.15-0.13,0.65,0.14,0.76,0.11c0.07-0.02,0.55-0.76,1.28-0.53c-0.05,0.45,0.69,1,1.13,0.77c0.35-0.18-0.35-0.46-0.16-0.65
	c0.33-0.33,0.27,0.48,0.48,0.21c-0.03-0.75-0.73-1.19-0.32-1.93l-0.95-0.14L171.91,7.12z M159.22-51.11
	c-1.59,1.08-3.24,2.22-4.46,3.63c0.29,0.04,0.5-0.15,0.71-0.29c1.1-0.73,2.58-1.88,3.61-2.72c0.13-0.11,1.05-0.88,0.92-0.99
	S159.36-51.21,159.22-51.11z M150.33-0.05l-0.02-0.69c0.5,0,1.14-0.07,1.51,0.29l-0.56,0.57c0.71,0,0.39-0.22,0.48-0.28
	c0.24-0.17,0.45,0.53,0.95,0.28l-0.48-0.36l0.48-0.36c-1.02,0.09-1.59-0.71-2.84-0.41l-0.18,1.41h0.79l-0.32,0.43l0.62-0.02
	c-0.12-0.63,0.59-0.21,0.5-0.69c-0.33,0-0.64-0.03-0.93-0.16L150.33-0.05z M172,5.11c-0.27,0.53-0.84-0.14-0.72,0.43
	c0.36-0.04,0.82,0.07,1.16,0c0.13-0.03,0.04-0.26,0.34-0.29c0.58-0.07,1.54,0.25,1.84-0.27l-0.4-0.15l-0.17,0.3l-0.71-0.15
	c0.42-0.53-0.35-0.38-0.32-1c-0.78,0.11-1.27,0.41-1.02,1.14L172,5.11z M150.7,60.14l-0.33,0.29l-0.38,0.06l2.38,2.22
	c-0.04-0.3-0.06-1.19-0.19-1.4c-0.06-0.1-0.52-0.2-0.7-0.37c-0.24-0.22-0.42-0.62-0.77-0.81L150.7,60.14z M155.39-11.04
	c0.07,0.21-0.13,0.51-0.11,0.66c0.01,0.08,1.21,0.99,1.39,1.1c0.17,0.1,0.23,0.15,0.46,0.1c-0.17-0.29,0.02-0.71,0-0.91
	c-0.01-0.1-0.22-0.08-0.26-0.16c-0.06-0.12-0.05-0.52-0.24-0.61l-1.24-0.17V-11.04z M211.77,41.63c-0.13-0.12-0.45-0.15-0.62-0.3
	c-0.19-0.16-1.91-1.79-2.07-1.63l1.2,1.72c0.76,0.24,1.05,1.05,1.97,1.28c0.04-0.04-0.42-1.02-0.47-1.07H211.77z M159.53-2.59
	c0.07,0.55-0.2,0.65-0.64,0.92l0.32,0.35c-0.41,0.05-0.94-0.08-1.32,0c-0.12,0.03-0.09,0.24-0.22,0.28
	c-0.21,0.06-0.56-0.12-0.52,0.14l1.27,0.29l-0.32-0.57l1.9,0.14c0.05-0.3-0.34-0.65-0.29-0.91c0.05-0.25,0.54-0.33,0.44-0.66h-0.62
	V-2.59z M183.66-28.9c-1.1,1.16-1.82,2.74-2.54,4.14C182.32-25.9,182.91-27.5,183.66-28.9z M161.73,5.02
	c-0.35-0.07-0.79-0.38-1.02-0.41c-0.42-0.05-1.17,0.18-1.67,0.07v1.29h0.64l-0.48-0.63c0.66-0.76,0.96-0.16,1.52-0.09
	c0.19,0.02,0.41-0.12,0.6-0.1c0.17,0.02,0.46,0.26,0.74,0.33c0.31,0.08,0.7-0.19,0.8,0.2l-1.11,0.14h1.17l0.26-0.28
	c-0.07,0.38,0.4,0.29,0.72,0.38l0.23-0.38c-0.59,0.26-0.99-0.47-1.14-0.55c-0.1-0.05-0.89,0.1-1.25,0.03L161.73,5.02z M143.8-4.6
	l-0.24,0.44h-1.66v0.42c0.31-0.02,1.04,0.13,1.23,0.32c0.21,0.21,0.05,0.65,0.36,0.68l0.32-1.86H143.8z M145.87-0.39
	c0.36,0.46,1.03,0.39,1.58,0.5l-0.3,0.16l0.14,0.41c0.28,0.06,0.1-0.22,0.17-0.27c0.04-0.03,0.35,0.15,0.54,0.13
	c0.26-0.02,0.6-0.18,0.77-0.16c0.21,0.03,0.2,0.72,0.58,0.23l-0.55-0.64l-0.31,0.3l-1.52-0.3c-0.12-0.56,0.52-0.12,0.8-0.22
	c0.25-0.09,0.5-0.7,1.1-0.49l0.16,0.43v-0.57c-0.37,0-0.76-0.03-1.13,0.06c-0.32,0.08-0.3,0.33-0.33,0.34
	c-0.29,0.12-1.14-0.82-1.72,0.1L145.87-0.39z M12.69,57c-0.55,0.56-1.48,0.81-2.05,1.16c-0.53,0.33-1.11,0.9-1.76,1.27
	c-0.75,0.42-1.82,0.72-2.45,1.22c-0.18,0.14-0.39,0.22-0.33,0.49c0.11,0.1,2.03-0.98,2.31-1.14s1.08-0.83,1.15-0.85
	c0.23-0.08,0.74-0.02,0.79-0.05c0.55-0.34,1.55-1.24,2.01-1.68c0.12-0.11,0.38-0.12,0.4-0.14L12.68,57L12.69,57z M155.07,1.76
	c0.88,0.18,1.89,0.21,1.59-0.79h-0.47l0.16,0.43h-0.64C156.1,0.31,154.47,1.04,155.07,1.76z M163.49,52.57
	c0.19,0.43,2.46,1.88,2.7,1.71c-0.05-0.12-0.12-0.29-0.21-0.38C165.48,53.4,164.24,52.67,163.49,52.57L163.49,52.57z M167.31,15.27
	l-0.17,0.42c0.45-0.14,0.59,0.35,0.67,0.39c0.32,0.14,0.9-0.01,1.18,0.6c0.95,0.22,0.68-0.63,0.26-0.7
	c-0.28-0.04-0.55,0.17-0.88,0.01c-0.13-0.06-0.57-0.66-0.63-0.68c-0.14-0.06-0.28-0.06-0.43-0.03L167.31,15.27z M143.16,14.48
	l-0.47-1.22c-0.11,0.87,0,1.85,0.27,2.68c0.05,0.17,0.13,0.6,0.36,0.6l-0.16-2.07V14.48z M150.39,28.84
	c-0.07-0.03-0.26-0.04-0.24,0.07c0.79,0.7,1.64,1.76,2.7,2.07c-0.31-0.39-0.95-1.09-1.32-1.38C151.4,29.5,150.46,28.86,150.39,28.84
	L150.39,28.84z M205.04,3.7l-2,0.55c0.46,0.08,0.93-0.17,1.36-0.16c0.29,0,0.21,0.27,0.34,0.3c0.28,0.06,0.92,0,0.85-0.35
	c-0.04-0.2-0.34-0.09-0.44-0.14c-0.04-0.02-0.03-0.21-0.11-0.21V3.7z M182.55-66.63l-0.77,3.23l0.14,0.77l0.64-4H182.55z
	 M138.72,7.55c-0.09,0.09,0.89,1.66,1.04,1.85c0.07,0.09,0.23,0.26,0.23,0.05l0.32-0.26c0,0-0.47-0.28-0.57-0.41
	C139.43,8.39,139.27,7.63,138.72,7.55L138.72,7.55z M185.73,22.41c0.08,0.21,0.58,0.41,0.79,0.5c0.86,0.35,1.82,0.61,2.7,0.93
	C188.27,23.17,186.88,22.8,185.73,22.41L185.73,22.41z M137.92,20.41c0.17,0.57,0.88,0.68,1.35,1c0.13-0.08,0.34-0.29,0.24-0.42
	c-0.07-0.09-1.33-0.73-1.59-0.57L137.92,20.41z M456.93,31.85c0.88,0.15,1.58,0.44,2.45,0.44l0.43-0.58l-1.02-0.43l2.72,0.28
	l-1.7-0.85h1.52l0.25,0.54l0.6-0.11l-0.51-0.71c0.58,0,0.85,0.58,0.85,1l1.12-0.85l0.75,0.5c0.6,0.22,0.17-1.59,0.12-1.82
	c-0.18-0.94-0.17-0.88-0.19-1.76c0-0.32-0.66-2.1-0.83-2.53c-0.06-0.15-0.27-0.78-0.31-0.81c-0.25-0.17-1.05,0.28-1.32-0.82
	c-0.08-0.34,0.74-0.2,1-0.34l0.08-0.43c0.74,0.48,0.61,1.17,0.85,1.72c0.57,1.28,1.35,2.94,2,4.18c0.11,0.22,0.92,1.4,1.14,1.25
	l0.09-0.28l0.71,0.73l0.74-0.16l-1.5,0.59c0,0.6-0.11,0.6,0.48,0.98c-0.68,0.21-1.64,0.37-1.95,0.86h-0.25
	c-0.23-0.99-0.86,0.17-1.36-0.36l1.19-0.36l-1.01-0.57c-0.08,0.28-0.5,0.74-0.83,0.6c-0.38,0.17,0.27,0.78,0.44,0.82
	c0.43,0.1,0.96-0.06,1.4,0.29l0.17-0.29l0.17,1.14c-0.78,0.14-0.83-0.35-1.87-0.43c0-0.04-0.47-0.62-0.51-0.64
	c-0.2-0.12-0.57-0.07-0.8-0.18c-0.62-0.3-1.07-1.02-1.74-0.18l0.85,0.14c-0.99,0.14-2.08,0.32-3.06,0.07
	C457.81,32.37,457.31,31.97,456.93,31.85L456.93,31.85z M465.38,29.31c-0.09-0.08-0.44-0.23-0.56-0.04
	c-0.41,0.83,0.67,1.12,0.95,1.79c0.12,0.1,0.57,0.3,0.67,0.22c0.06-0.05-0.35-0.6-0.4-0.66c-0.11-0.13-0.38-0.16-0.5-0.38
	c-0.16-0.28,0.13-0.66-0.15-0.93L465.38,29.31z M463.55,33.28c0.02,0.16-0.42,0.46-0.34,0.71c0.16,0,0.3,0.09,0.45,0.09
	c1.37,0.05,3.1-0.32,4.38-0.23c0.44,0.03,0.65,0.37,1.04,0.42s2.49-0.15,2.62,0l-0.17,0.43l0.59-0.15c0.42,0.52-0.51,0.41-0.42,0.86
	c0.49,0.04,0.86,0.72,1.2,0.92c0.25,0.14,0.64,0.05,0.84,0.3l-0.51,0.21c0.87,0.18,1.51-0.3,2.43-0.14l0.29-0.43h-0.49l-0.02-0.72
	h0.68l-0.26-0.43l0.59,0.57c-0.15-0.34,0.19-0.83,0.17-1.06c0-0.08-0.29-0.06-0.34-0.18c-0.06-0.18,0.05-0.41-0.09-0.62
	c-0.07-0.11-0.41-0.1-0.44-0.23c-0.05-0.26,0.28-0.5,0.31-0.72c0.02-0.18-0.2-1.91-0.46-1.63c0.26,1.16,0.51,2.64-1.36,2.57
	l0.51-0.5l-1.53-0.57c0-0.11,1.32-0.15,1.02-0.79l-1.02,0.43l0.34-0.57h-0.92l-0.1-0.43c0.56-0.12,0.15,0.38,0.59,0.29l0.09-0.29
	l0.17,0.29c1.17-0.6,0.82,0.1,1.09,0.29c0.11,0.07,1.06,0.48,1.12,0.43v-0.57l-0.51,0.14l0.17-1.29c-0.3,0.05-0.29,0.41-0.58,0.58
	c-0.67,0.4-0.59-0.15-0.71-0.15c-0.24-0.01-0.47,0.32-0.75-0.07c0.48-0.58,0.82-0.27,1.43-0.07l0.26-0.43
	c-1.56-0.02-2.93-0.61-4.59-0.5c0-0.22,3.69-0.3,4.13-0.39s0.64-0.54,1.14-0.26c0-0.28-0.14-0.51,0.34-0.43l0.15,1.48l1.19,0.24
	l0.02,0.84l0.65-0.13l0.28,0.42l0.59-0.29l-0.17,0.43l1.36-0.28c-0.75,0.64-1.98,0.18-2.21,1.28l0.85-0.14v0.57l-0.75-0.28
	c-0.65,0.26,0.03,1.05-0.95,0.71c0.53,0.7-0.42,0.69-0.17,1.43c0.52-0.39,1.44-0.22,2.12-0.15l0.1-0.41
	c0.45,0.16,1.27-0.68,1.18-0.01l-0.85,0.15l0.34,0.43l-1.46,0.27l-0.24-0.27c0.05,0.33-0.51,0.52-0.81,0.39
	c-0.12-0.05,0.15-0.35-0.55-0.1l0.81,1.15c0.81,0.39,1.74-1.02,2.25,0.07c-0.7-0.15-0.8,0.1-1.28,0.22
	c-0.33,0.09-0.79-0.02-0.91,0.38c-0.15,0.51,0.8,2.43,0.48,2.61c-0.76,0.06-1.21-0.69-1.66-1c-0.25-0.17-0.61-0.28-0.89-0.5
	c-0.45-0.35-0.51-0.95-1.02-1.15s-1.03,0.14-1.43,0.07s-0.55-0.39-0.94-0.43l0.68-0.14c0.07-0.24-0.3-0.06-0.34-0.24
	s0.08-0.45-0.02-0.6c-0.03-0.05-1.11-0.43-1.26-0.44c-0.39-0.05-1.59,0.05-1.26,0.42c0.68-0.45,1.89,0.26,0.7,0.3l-0.19,0.99
	l0.51-0.57l0.61,1.14l1.26-0.43c0.19,0.16-0.74,0.81-0.78,1.07c-0.04,0.27,0.13,0.41,0.41,0.25l0.88,1.04l-0.35,0.14l0.86,1.29
	l-0.34,0.14l1.02,0.22c0.33,0.26-0.69,0.43-0.75,0.43c-0.07,0-0.89-0.72-0.61-0.86c-0.44,0.16-1.83-0.79-1.81-1.07l0.45-0.64
	c-0.36,0.04-0.39-0.35-0.61-0.42c-0.15-0.04-2.84-0.03-3,0c-0.69,0.17-0.25,0.66-0.29,0.68c-0.34,0.06-0.45-0.27-0.77-0.29
	c-0.48-0.03-0.51,0.29-1.1-0.14l0.08-0.28c0.52,0.13,0.95-0.24,1.37-0.28c0.79-0.08,2.21,0.34,3.13,0.14l-3.19-1.11
	c-0.31-0.13-0.71,0.12-0.95,0.08c-0.08-0.01-1.42-0.68-1.46-0.76c-0.22-0.48,0.54,0,0.62,0.02c0.18,0.04,0.48-0.05,0.64,0.03
	c0.24,0.13-0.12,0.56,0.44,0.45v-0.57l2.21,0.29c-0.06-0.26-0.34-0.26-0.59-0.29s-0.91,0.15-0.94-0.14l2.72-0.21
	c0.1-0.03,0.21-0.1,0.06-0.21c-0.27-0.21-0.36-0.21-0.48-0.57c-0.14-0.43,0.35-0.35-0.69-0.73l0.26-0.21
	c-0.97-0.97-1.44,0.14-2.55,0.07l0.51-0.36c-0.26-0.5-1.71-0.38-0.68,0c-0.16,0.3-0.69,0.29-0.81,0.4
	c-0.58,0.54-0.28,0.24-1.02,0.63c-0.39,0.21-0.68,0.7-1.4,0.61c-0.05,0.63,0.96,0.26,1.36,0.29l-0.34,0.21l0.34,0.21h-1.02
	l0.34,0.43l-0.68-0.09c-0.27-0.38-0.05-1.3-0.5-1.2l2.8-1.71l-0.17-0.28c-0.17,0.32-0.58,0.11-0.72,0.17
	c-0.07,0.03-0.1,0.39-0.65,0.4c-0.65,0-0.66-0.93-1.26-0.14l0.51,0.14l-3.06,0.57l0.34,0.43c-1.23,0.4-0.37-0.17-0.51-0.28
	c-0.71,0.17-0.73-0.75-1.27-0.57c-0.79,0.26,0.78,0.95,1.08,1.23c0.57,0.53,0.57,0.6,1.27,1.02c0.12,0.07,0.31,0.04,0.46,0.04
	l-0.34,1.14c-0.37-0.01-0.79-0.64-0.89-0.68c-0.25-0.11-1.1-0.02-1.49-0.32c0.19-0.6,1.48,0.05,1.36-0.57
	c-0.69,0.08-0.73-0.28-1.04-0.49c-0.13-0.09-0.42-0.06-0.47-0.11c-0.1-0.09,0.03-0.43-0.07-0.66c-0.02-0.04-0.7-0.48-0.8-0.68
	l0.35-0.15l-0.17-0.4l-0.52-0.09l0.51-0.43l-1.19,0.14l-0.17,0.71c-0.25-1-1.5-1.85-2.47-2.42c-0.86-0.51-1.37-0.35-2.12-1.08
	c-0.87-0.84-0.48-0.35-1.19-0.72c-0.15-0.08-0.61-0.69-0.93-0.92c-4.71-3.42-10.68-6.29-15.7-9.51c-2.1-1.35-4.21-2.75-6.13-4.28
	c0.29-0.22,0.66,0.31,0.94,0.5c0.59,0.39,1.24,0.62,1.77,0.94c5.79,3.59,11.56,7.08,17.21,10.5c0.99,0.6,3.33,2.42,4.45,2.39
	c0.84-0.02,1.65-0.27,2.56-0.25c1.09,0.02,2.43,0.33,3.48,0.57c0.04,0.26-0.36,0.12-0.55,0.1c-1.78-0.2-3.6-0.69-5.4-0.25l1.36,0.43
	l-0.16,0.41c1.05,0.39,2.13,0.5,3.22,0.87c-0.2-0.04-0.5,0.03-0.75,0c-0.58-0.1-1.23-0.42-1.88-0.42l-0.09,0.29l3.01,1.84
	c2.02,0,4.34-0.4,6.33-0.26L463.55,33.28z M477.31,31.71l-1.19-0.57v1c0.76-0.38,0.37,0.4,1.19,0.28l-0.34-0.21L477.31,31.71z
	 M461.48,33.46c-0.84,0.04-2.25,0-2.94,0.1c-0.24,0.04-0.45,0.12-0.42,0.35c0.08,0.31,1.75,0.1,2.11,0.07
	c0.24-0.02,0.4-0.23,0.68-0.26c0.17-0.02,2.45,0.31,2.05-0.16C462.57,33.28,461.96,33.44,461.48,33.46L461.48,33.46z M462.19,33.99
	c-0.36-0.06-0.62,0.18-0.93,0.22c-0.15,0.02-0.52-0.14-0.6-0.07c-0.03,0.02,0.08,0.27-0.11,0.44s-1.06,0.32-1.08,0.49
	c0.39,0.47,0.75-0.05,1.15-0.17c0.33-0.1,0.72-0.08,1.05-0.19l-0.34-0.28l0.85,0.14V34L462.19,33.99z M476.46,36.71l-1.53,0.36
	c0.07,0.24,1.2,0.99,1.53,0.93c-0.31,0.46,0.62,0.94,1.02,1.28c-0.03-0.48-0.26-1.09-0.47-1.53c-0.2-0.42-0.73-0.66-0.54-1.04
	H476.46z M472.69,39.59l-0.65-0.17l-0.34,1C472.28,40.63,472.96,39.84,472.69,39.59z M503.41,43.5c-0.53,0.59,0.41,0.82,0.23,1.5
	c0.46-0.22,0.63-0.93,1.36-0.72L504.83,44h2.79l0.78-0.57c0.03,0.37,0.09,0.53-0.35,0.65l0.35,0.64c-2.11-0.1-0.46,0.52-0.85,1.43
	h1.02l-0.68-0.57l0.92-0.15c0.25,0.64,0.59,0.07,0.86,0.05c0.24-0.02,0.79,0.56,1.27,0.38l-0.84-0.64l0.33-0.36h-0.68
	c0.44-0.5-0.34-0.75-0.34-0.8c-0.02-1.05,0.52-1.01,1.53-1.27c-0.52-0.52-1.6,0.13-1.97,0.5l-1.43-0.14l-0.11,0.41l-1.25,0.02
	l0.25-0.38c0.17-0.02,0.78,0.29,0.77-0.04c-0.64,0.1-0.63-0.28-0.68-0.72l-0.42,0.29c-0.4-0.16-0.07-0.86-0.51-0.71
	c-0.66,0.22-0.05,0.96-0.77,1.22c-0.49,0.18-0.6-0.21-0.9-0.2c-0.15,0-0.44,0.19-0.62,0.26l0.11,0.22L503.41,43.5z M502.78,44.93
	c-0.14-0.07,0.1-0.63-0.49-0.87c-0.16-0.06-0.58,0.43-0.68,0c-0.12-0.54,1.1-1.19,1.27-0.5c0.13-0.11,0.26-0.22,0.43-0.29
	l-0.51-0.14c0.96-0.55,0.53-1.06-0.51-1.14l0.85,0.43c0.25,0.22-2.62,0.84-2.89,0.71l0.6,0.43l-0.09,0.43l-1.25-0.26
	c-0.41,0.14-0.11,0.66-0.53,0.54c-0.08-0.02-0.33-0.16-0.14-0.28c0.09-0.06,0.39,0.06,0.14-0.29c-0.21-0.3-0.35,0.11-0.51,0.11
	c-0.69-0.2-0.18-1.01-0.34-1.25c-0.45-0.35-0.57,0.26-0.6,0.28c-0.5,0.28-0.08-0.37-0.5-0.43c-0.11,0.35,0.51,1.15,0.14,1.41
	c-0.14,0.1-0.53-0.11-0.48,0.16l1.19,0.43c-0.36,0.32-0.34,0.62-0.15,1.03c0.06,0.14,0.31,0.14,0.33,0.18
	c0.23,0.6-0.65,0.29-0.67,0.12l0.08-0.34h-0.6c0.17-0.59-0.46-0.28-0.54-0.69l-0.31-0.02l-0.26,0.43l-0.59-0.36l0.51,0.07V44.4
	l0.68,0.14v-0.43c-0.42,0.12-0.96-0.11-1.1-0.43c-0.14,0-0.16,0.57-0.59,0.43c-0.08-0.33-0.44-0.63-0.84-0.57v-0.42l0.58,0.29
	l0.43-0.5l-0.48-0.1c0.06-0.8-0.74-0.82-0.7-1.55c0.28,0.22,0.67,0.5,0.92,0.72c0.32,0.28,0.5,0.42,0.79,0.66
	c0.34,0.28,0.14,0.81,1.01,0.62l-0.02-0.71c-0.77,0.06-0.68-0.36,0.05-0.4c0.49-0.03,0.91-0.19,1.07-0.19
	c0.08,0,0.09,0.23,0.12,0.25c0.84,0.39,0.68-0.91,0.13-1.03c0.83-0.25,0.42-0.67,0.52-0.98c0.03-0.1,0.24-0.09,0.27-0.13
	c0.04-0.06-0.11-0.2-0.07-0.23c0.09-0.08,0.37,0.08,0.3-0.16c-0.47-0.05-1.38,0.06-1.7,0.36c-0.19,0.18-0.14,0.46-0.18,0.5
	c-0.05,0.05-0.52-0.22-0.67,0.07c0.52,0.2,0.84-0.03,0.85,0.64l-2.04,0.14l0.17,0.36l-0.42,0.07l0.08-1l-1.02,0.14
	c-0.09-0.27,0.74,0,0.51-0.35c-0.14-0.21-0.71-0.14-0.53-0.78h-0.49l0.17-0.44l-1.19,0.29c-0.2,0.56,1.06,0.28,0.85,0.64l-1.19,0.57
	l1.02,0.07v0.71h-1.53c-0.16-0.37,0.25-0.25,0.29-0.31c0.21-0.32,0.14-0.87-0.46-0.68c-0.17,0.04,0.72,0.26,0.08,0.43
	c-0.31,0.08-0.23-0.18-0.33-0.29l-0.43,0.15l0.17,0.28c-0.69-0.4-0.93,0.66-0.59,1c0.16,0.16,0.79,0.39,0.93,0.07
	c0.22-0.49-0.92,0.16-0.68-0.28l0.51-0.14l-0.33-0.43l0.5-0.21l0.17,0.86l0.85-0.14l-0.51,0.43l0.69,0.52l-0.18,0.62
	c0.71-0.22,0.86,0.49,1.12,0.54c0.15,0.03,0.43-0.16,0.58-0.06s0.15,0.43,0.33,0.59c0.24,0.2,0.79,0.15,1.02,0.43l-0.34,0.5
	c0.55-0.08,0.98,0.14,1.47,0.24c0.37,0.07,0.79,0.03,1.3,0.33c0.16,0.1,0.33,0.42,0.63,0.5l-1.19,0.22l0.33,0.15l-0.16,0.42
	c0.72,0.07,0.87,0.72,1.53,0.14l-0.34,0.57c0.81,0.19,0.89-0.79,1.53-0.5c-0.9,1.19-2.28,0.31-3.57,0.65
	c-0.14,0.51,0.68,0.26,1.01,0.2l0.35,0.16c-0.51,0.11-0.12,0.27-0.34,0.68c-0.29,0.54-0.98,0.35-1.53,0.25l0.43,0.28
	c0.37,0.36-1,0.17-1.15,0.14c-0.21-0.05,0.01-0.4-0.64-0.13l0.51,0.86l-1.02-0.43l0.34,0.57l-0.51,0.29
	c-0.45-0.11-0.2-0.57-0.34-0.86l-0.68,0.14c0-0.26,0.04-0.63-0.34-0.72c0.16,0.89-0.54,0.63-1.06,0.86
	c-0.28,0.12-0.41,0.54-1.15,0.43l0.17-0.71l-0.77-0.14l-0.12,0.53l-0.31,0.12l0.18,0.34c-0.59,0.2-0.68-0.25-0.8-0.28
	c-0.19-0.04-0.43,0.04-0.61,0c-0.15-0.03-0.11-0.48-0.96-0.13c-0.14,0.51,0.35,0.59,0.46,0.74s0.01,0.4,0.13,0.54
	c0.11,0.13,0.77,0.16,0.86,0.71l0.25-0.86l0.51,0.57c-0.12-0.48-0.28-0.77,0.51-0.71l-0.34,0.86c1-0.29,0.5-0.04,0.73,0.23
	c0.11,0.13,0.44,0.23,0.54,0.48l0.19-0.3l1.76,0.15l-0.17-0.28l0.43-0.15l0.19,0.29h0.57c-0.42-0.81,0.05-0.86,0.6-1.43l0.36,0.42
	l0.98-0.15l0.27,0.3c-0.13-1.12,1.21-0.73,0.77-0.14c-0.24,0.33-1.08,0.09-0.94,0.56l0.84,0.14l0.52-1c0.4,0.74-0.66,1.02-0.51,1.71
	l1.36,0.14l-0.17-0.28c0.72-0.02,1.12-0.91,2.04-0.43l-0.5-0.5l0.51-0.22l-0.34-0.28c0.73-0.17,1.05,0.02,0.68-0.72l-0.51,0.15
	c-0.08-0.13,0-0.45-0.04-0.51c-0.06-0.13-0.37,0.03-0.3-0.21l0.85,0.14c-0.42-1.32,0.78-1.09,0.99-1.31c0.1-0.1-0.05-0.45,0.19-0.63
	c0.1-0.07,0.55,0.03,0.78-0.03c0.25-0.07,0.29-0.43,0.75-0.32c-0.2-0.42-0.93,0.06-1.24,0.1c-0.62,0.08-1.19-0.32-1.81-0.24
	l0.17-0.57c0.5,0.39,1.06,0.29,1.7,0.28c0.02-0.27-0.41-0.08-0.68-0.21c-0.12-0.06-0.62-0.71-0.51-0.78h0.68
	c0.18-0.56-0.44-0.27-0.34-0.71c0.08-0.06,1.11,0.31,1.19-0.14h-1.19l0.34-0.29l-0.34-0.22l0.34-0.64l-0.76,0.28
	c-0.34-0.2-0.21-0.3-0.08-0.57l-0.68,0.14l-0.17-0.57c0.8-0.46,1.14,0.21,1.86-0.29c0.04,0.03,0.1,1.2,0.43,0.43l0.43,0.72
	l0.43-0.13l0.15,0.26c0.35-0.12,0.6-0.11,0.95-0.27l-0.87-0.07L502.78,44.93z M508.31,78.73c-0.28,0.56-1.86,0.54-2.51,0.58
	l-0.28-0.37l0.67-0.07l-0.34-0.21l0.58-0.8c0.57-0.37,1.39,0.19,1.97-0.27c0.38,0.32-1.48,0.82-1.7,0.86
	c0.11,0.35,0.86-0.08,1.13-0.1c0.19-0.02,0.34,0.1,0.39,0.1c0-0.09,0-0.19,0-0.29h0.51l-0.51-1.43l-0.85,0.14l0.51-0.43
	c-0.67-0.02-1.12,0.26-1.7-0.14l-0.15,0.56l0.32,0.16h-0.51l0.34,0.29c-0.14,0-0.34,0.05-0.42,0.15c-0.5,0.61-0.88,1.94-1.28,2.64
	c-0.93,1.61-2.49,3.67-3.69,5.18c-0.19,0.24-0.55,0.35-0.63,0.47c-0.18,0.26,0.03,0.65-0.35,0.85c-0.57,0.1-0.87-1.36-1.45-1.64
	c-0.24-0.11-0.61-0.11-0.91-0.24c-1.56-0.67-3.04-1.47-4.67-2l0.15-0.98h-0.51l0.17,0.43c-1.28-0.06-3.11-0.16-3.66-1.27
	c-0.77,0.25-1.49-0.24-2.21,0.26c-0.35,0.43,0.76,0.91-0.85,1.14c-0.3,0.04-0.61,0.01-0.92,0.01l1.36-0.35
	c0.42-0.56,0.14-0.94-0.43-0.36c-0.14,0-0.17-0.61-0.84-0.43c-0.17,0.04-0.07,0.65-0.52,0.58c-0.39-0.06-0.05-0.52-0.09-0.57
	c-0.02-0.03-0.21,0.09-0.34,0.05c-0.17-0.05-0.23-0.27-0.51-0.19c0.61,0.55,0.94,1.12,0.51,1.86c0.16,0.02,0.36-0.02,0.51,0
	c-0.05,0.3,0,0.68,0,1c-0.06,0-0.16-0.12-0.25-0.12l-0.18,0.11c0.02,0.43-0.47,1.18,0.09,1.22v0.36l-0.34-0.14v3.19
	c-0.02,0.12-0.36,0.16-0.49,0.33c-0.56,0.69,0.21,0.64,0.31,0.88c0.27,0.59,0.13,2.05-0.85,2.11c-0.05,0.84,0.91,0.53,1.02,1.29
	l-0.33,0.2c0.85,0.11,0.18,0.54,0.18,0.79c0,0.28,0.57,1.25,0.67,0.58c0.12-0.83-0.21-1.77,0.17-2.57l-0.51,0.21
	c-0.19-0.92-0.12-1.57,0.18-2.46c0.04-0.11,0.3-0.1,0.32-0.2c0.08-0.35-0.29-1.68-0.28-2.19c0.03-1.16,0.25-2.34,0.29-3.58
	c0.11,0,0.23,0,0.34,0v-0.57c0.45,0.07,0.9,0.18,1.36,0.22c0.84,0.08-0.07-0.49-0.12-0.5c-0.52-0.1-0.83,0.11-1.16,0.12
	c-0.08,0,0.04-0.2-0.41-0.27c0.02-0.11,0.2-0.27,0.18-0.43c0.26,0.08,1.59,0.31,1.75,0.25c0.35-0.13,0.56-0.79,1.07-0.93
	c0.24-0.06,1.81,0.23,2.1,0.31c1.19,0.36,2.29,1.28,3.42,1.84c2.01,0.99,4.13,1.81,6.09,2.88c0.34,0.18,0.43,0.72,1.18,0.64
	l5.14-7.84c1.06,0.05,2.45-0.17,3.28-0.73c0.42,0.35,0.44,0.89,0.61,1.32c0.11,0.29,0.12,0.42,0.22,0.68
	c0.43,1.14,0.9,2.44,1.42,3.54c0.1,0.22-0.1,0.39,0.38,0.31c-0.42-0.99-0.73-2.1-0.94-3.14c-0.08-0.41-0.47-2.43-0.4-2.63
	c0.06-0.16,0.38-0.19,0.5-0.34c1.03-1.33,1.82-2.17,3.05-3.4c0.35-0.35,0.91-0.37,0.86-1.06l-0.68-0.15l-0.2,0.76l-0.82,0.67
	c0.23-0.75,0.46-2.72,1.76-2.43c0.14,0.03,0.09,0.27,0.19,0.27l0.43-0.13l-0.17,0.43l1.51,0.31l0.02,0.41
	c0.67-0.37,0.34,0.27,1.01,0.14l0.18-0.71c-0.58,0.51-0.71,0.03-1.36,0c0.41-0.68-0.37-0.56-1.02-0.43c0.51-0.4,0.05-0.47,0.08-0.72
	c0.01-0.12,0.23-1.01,0.6-0.85l-0.06,0.43l0.23,0.14c-0.35-0.03-0.38,0.05-0.34,0.35l1.11,0.65l0.16-0.29
	c0.74,0.32,1.22,0.69,1.28,1.43c-0.57-0.24-0.41,0-0.85,0.21l1.87,0.21l-0.82-1.38c-0.02-1-0.24-2.29-1.4-2.71l-1.17-2.76l0.68,3.29
	l0.17-0.43c0.21-0.24,0.58,1.48,0.68,1.57l0.33-0.14v0.43l-0.43,0.11c-0.71-0.23-0.35-0.76-0.45-1.01c-0.08-0.2-0.54-0.22-0.49-0.52
	l-0.17,0.28l-0.75-0.29l-0.78,0.66l0.17,0.49c-1.1-0.28-0.77-0.05-1.22,0.26c-0.07,0.05-0.54-0.15-0.71-0.08
	c-0.16,0.06-0.54,0.56-0.95,0.61l0.51-0.07v0.43l-1.54,0.06c-0.27,0.63-0.32,1.43-0.93,1.93c-0.34,0.28-0.83,0.23-0.92,0.65
	c-0.03,0.14-0.13,0.91,0.17,0.93c-0.27-1.18,0.85-0.57,1.53-1.21c-1.43,0.15-0.39-0.29-0.18-0.61c0.26-0.43,0.54-0.99,0.71-1.45
	h0.67l-0.34,0.28l0.25,0.28l0.42-0.28c-0.27,0.53-0.39,1.14-0.64,1.67s-1.01,2.08-1.31,2.49c-0.1,0.14-0.35,0-0.4,0.02
	c-0.12,0.08-0.3,0.64-0.37,0.82l-0.17-0.57l-0.51,0.43l-0.17-0.71c-0.07-0.05-0.51,0.14-0.68,0.14c0,0.05,0.16,0.13,0.08,0.29
	L508.31,78.73z M483.09,48.57c1.23-0.08,2.3,0.73,3.57,0.43c-0.07,0.27-1,0.53-1.28,0.57c-0.4,0.06-0.25-0.54-0.75-0.43
	c-0.76,0.99-0.47,1.14,0.62,1.7l0.82-0.42l0.59,0.43l-0.85,0.35l0.36,0.16l-0.19,0.56l0.17,0.15c0.65-0.13,0.83,0.93-0.17,0.64
	l0.34-0.28c-0.82-0.27-1.15-1.16-2.04-1.5c-0.03-0.04,0.97-0.17-0.17-0.5L484,50.87c-0.9,0-2.05,0.57-2.28-0.51l0.34,0.07V50
	c0.82-0.17,0.82,0.79,1.36,0.21c-0.28-0.41-1.58-0.73-1.78-0.93c-0.54-0.53,0.32-1.17-1.63-0.77l-0.32-0.6L478.83,48
	c0.88,0.6-0.01,0.93,0,1.71l-0.66-0.13c-0.06,0.15-0.12,0.31-0.27,0.42c-0.8,0.55-1.82,0.92-2.55,1.57l0.08-0.29l-0.34-0.14
	l0.34-0.29c-0.84-0.18-1.43,0.06-2.21,0.28c0.01-0.56,0.66-0.62,1.19-0.57l-0.92-0.58c-2.31,0.12-4.63,0.07-6.93,0.2
	c-0.77,0.04-2.71,0.46-3.28,0.37c-0.35-0.06-0.66-0.38-0.85-0.36c-0.9,0.07-1.51,0.44-2.26,0.62c-2.29,0.57-4.57,0.23-6.92,0.32
	c-2.04,0.08-4.77,0.24-6.79,0.43c-0.77,0.07-1.9,0.49-2.57,0.53c-0.53,0.03-1.27-0.23-1.85-0.25c-2.9-0.09-6.26,0.06-9.17,0.12
	l-5.35-0.26c-0.04-0.25,0.39-0.13,0.59-0.14c1.92-0.06,3.84,0.09,5.75,0.09c2.75,0,5.44-0.09,8.19-0.1c2.45,0,4.34-0.23,6.79-0.39
	c2.92-0.19,6.05-0.06,9-0.32c1.54-0.13,3.24-0.89,4.57-0.81c2.13,0.13,4.03,0.09,6.16-0.15c0.35-0.04,0.78-0.29,0.83-0.29
	c0.14,0,0.32,0.39,0.85,0.41c0.11,0,0.61-0.48,1.17-0.45l0.18,0.3c0.24,0,0.46-0.23,0.7-0.25c0.7-0.07,1.06,0.51,1.68-0.18l0.27,0.4
	h0.39c0.29-0.68,1.06-0.71,1.29-1.26c-0.64,0.25-1.21,0.06-1.79,0.07c-0.06,0-1.06,0.43-0.92-0.26c0.06-0.3,0.68-0.49,1-0.52v0.57
	c0.29,0.07,0.08-0.28,0.27-0.29c0.55-0.03,0.66,0.43,1.09,0.44v-0.86l-1.01,0.28l-0.69-0.85c0.04,0.34-0.14,0.31-0.51,0.28
	c0.39-0.77-0.14-0.97-1.02-1l0.09,0.57c-0.46-0.41-1.1-0.22-1.66-0.32c-0.1-0.02-1.3-0.26-0.97-0.54c0.02-0.01,0.5-0.18,0.49-0.04
	c0.21,0.33,1.08,0.18,1.55,0.32l-0.34-0.28l0.17-0.29l3.74,0.86l-0.09-0.58l0.52-0.28l0.09,0.28h0.33c0.09-0.5,0.73-0.26,0.34-0.85
	c0.08-0.06,1.07,0.26,1.14,0.32c0.14,0.13,0.08,0.43,0.2,0.59c0.13,0.17,0.55,0.08,0.7,0.31h-0.85l1.1,0.59l1.44-0.24v-0.71
	l0.17,0.57c0.27,0.02,0.22-0.3,0.41-0.44c0.38-0.27,0.5,0,0.77,0.22c-0.94,0.45,0.05,1.21,0.66,1.6c0.46,0.29,0.33,0.04,0.7,0.48
	c-0.46,0.03-0.43,0.25-0.68,0.57c1.27-0.2,0.61-0.06,0.88,0.25c0.24,0.28,0.82,0.04,0.82-0.32c-0.39-0.32-0.68-0.1-1.02-0.5
	L483.09,48.57z M481.22,46.85l-1.53,0.29l0.16,0.42l-0.33,0.15l0.48,0.12c0.14-0.55,0.67-0.41,1.22-0.41L481.22,46.85L481.22,46.85z
	 M477.48,47.57l-0.93-0.43c-0.44,0.36,0.05,0.87-0.43,1.35l2.21,0.79l-0.35-0.78l0.35-0.14c-0.4-0.8-0.63-0.14-1.19-0.57l0.34-0.21
	V47.57z M387.95-8.31c0.06,0.36,1,0.83,1.41,1.03c2.71,1.31,5.41,2.48,7.99,4c0.76,0.45,2.6,1.47,3.16,1.91
	c0.26,0.21,0.32,0.61,0.36,0.63c0.14,0.08,0.54-0.18,0.83-0.07c0.4,0.14,2.14,1.51,2.73,1.85c4.11,2.39,8.35,4.48,12.06,7.29
	l6.27,3.65c0.18-0.14-2.53-1.85-2.75-2.01c-4.81-3.47-9.83-6.68-15.27-9.48c-2.22-1.14-4.37-2.63-6.59-3.9
	c-1.03-0.59-2-1.16-2.98-1.76c-0.74-0.46-2.91-1.44-3.88-1.95C390.8-7.37,388.34-8.61,387.95-8.31L387.95-8.31z M480.2,32.78
	l0.66-0.02l0.34,0.16c-0.51,1.04,0.11,0.29,0.52,0.79h-0.85c0.25,0.54,1.16,0,1.7,0c0.07,0.48-0.53,0.24-0.82,0.67
	c-0.17,0.24-0.11,0.51-0.1,0.77l-0.61,0.14l0.32,1.12l-1,0.31l0.59,0.57l0.09-0.42h1.01l0.16-1.37l1.7-0.28L483.23,35
	c0.18-0.64,2.27-0.28,2.48,0l-0.27,1c0.68,0.08,0.24-0.51,0.51-0.65c0.57,0.27,0.56-0.54,0.93-0.05c0.09,0.11,0.09,0.28,0.09,0.42
	l0.85-0.14c0.14,0.05-1.4,0.66-0.6,0.57c0.99-0.11,1.98-0.22,2.97-0.29l-1.53-0.57l1.19-0.15l-0.17-0.43
	c0.13-0.09,1.73-0.06,1.87-0.47l0.67-0.1L490.86,34l0.17,0.28h-0.51l0.17-0.28c-0.61,0.14-1.6-0.15-2.1-0.1
	c-0.26,0.02-0.45,0.24-0.86,0.24c-0.64,0-0.65-0.5-0.88-0.55c-0.35-0.08-1.94,0.16-2.5,0.12c-0.98-0.08-1.91-0.39-2.83-0.63
	l-0.17-0.15l0.34-0.36c-0.53-0.05-1.33-0.37-1.53,0.21L480.2,32.78z M460.15,46.43c0.5-0.3,0.97,0.21,1.53,0.14l-0.16-0.62
	l0.84-0.23c-0.1-0.28-0.17-0.46,0.17-0.64l-0.67-0.29l0.51-0.5L461.86,44c0.28,0.09,0.34-0.3,0.43-0.29c0.1,0,0.96,0.54,0.93,0.08
	c-0.02-0.22-1.06-0.12-1.02-0.64l0.47-0.1l0.07,0.22l0.45-0.09l0.03,0.25h0.25l0.51-0.71l0.25,0.28l0.33-1.27
	c-1.13,0-1.47-1.24-0.25-0.44l0.77-0.57c-0.09-0.32-0.53-0.28-0.85-0.28l0.51-0.43c-0.22-0.01-0.47,0.13-0.69,0.06
	c-0.29-0.09-1.35-0.85-1.64-0.89s-0.64-0.09-0.91,0.04c-0.36,0.18-0.15,0.72-0.5,0.79l0.51-1.47l0.42-0.1
	c0.31,0.73,1.07,0.5,1.44,0.63s0.79,0.42,1.21,0.57c0.26,0.09,1.1,0.17,1.17,0.23c0.18,0.16-0.07,0.37-0.34,0.29l0.35,0.22
	l-0.35,0.78c0.6,0.04,0.6-0.49,1.36-0.28l-0.17,0.43l-0.34-0.28c0.12,0.41-0.82,0.92-1.18,0.87l-0.02,0.41l-0.34-0.15
	c0.44,0.65-0.86,1.05-1.02,1.36c-0.18,0.34,1.13,0.4,1.36,0.57c0.68,0.48-0.24,0.95-0.85,0.65c0.33,0.69-0.17,0.7-0.33,0.97
	c-0.12,0.2-0.1,0.61-0.22,0.72c-0.58,0.49-1.33-0.03-1.71,0.03c-0.07,0.01-0.6,0.45-0.29,0.57l-1.02,0.15
	c-0.1,0.4,0.18,0.28,0.51,0.28l-0.16,0.27l0.41,0.16l0.16-0.29l0.75,0.44l-0.41,0.56l0.17,0.29l2.97-0.07
	c-0.63,0.58-1.54,0.15-2.11,0.21c-0.22,0.02-0.39,0.23-0.52,0.23c-0.26,0.02-1.15-0.49-1.78-0.09c-0.16-0.15,0.57-0.99-0.17-0.86
	l-0.26,0.71l-0.42-0.36c0.83-0.32,0.49-0.71,0.5-1.28c0-0.21,0.19-0.43,0.19-0.57c0-0.09-0.51-0.04-0.35-0.37
	c-0.1,0.07-0.48,0.07-0.6,0.29c-0.13,0.02-0.11-0.14-0.08-0.21c0.14-0.37,1.36-2.03,1.35-2.15c-0.03-0.45-1.05,0.23-0.85-0.36h0.67
	l0.1-0.44h0.93v0.44l-0.47,0.03l-1.04,1.97l0.32,0.08c-0.28-0.02-0.32,0.34-0.34,0.36L460.15,46.43z M464.06,44.43l-1.19-0.29
	c-0.06,0.06,0.43,0.64-0.26,0.45l-0.08,0.26l1.02,0.43v-0.71l0.43,0.14L464.06,44.43L464.06,44.43z M313.55,49.86l0.25,0.73
	c8.69,0.35,17.44,0.24,26.18,0.28c0.93,0,1.57,0.16,2.38,0.14c0.9-0.02,1.76-0.34,2.7-0.03l0.44-0.48L315,50.29l-1.1-0.15l0.17-0.28
	h-0.51H313.55z M503.81,71.58l0.34,0.28l-0.47,0.08l0.1,0.19l-3.26,1.58c-0.24,0.75-0.44,0.37-0.88,0.56
	c-1.75,0.77-3.52,2.3-5.23,3.19c-0.69,0.21-0.81-0.1-1.4-0.31l-0.24,0.28v-0.57L492.02,77l-0.07,0.28l1.17,0.94
	c0.35,1.01,1.13,1.48,1.86,2.22c-0.35-0.56,0.51-0.6,0.68-1.14h-0.68c0.14,0.22,0.11,0.43-0.25,0.43l-0.26-0.43l-0.33,0.28
	c-0.48-0.78,0.24-0.62,0.35-1.28l0.63,0.11c0.49-0.47,1.06-1.36,1.56-1.76c0.38-0.31,1.06-0.55,1.52-0.87
	c0.16-0.11,0.16-0.33,0.18-0.34c0.44-0.32,0.21,0.73,0.93,0.57c0.58-0.13-0.13-0.82-0.08-0.85l0.68,0.14l-0.1-0.43
	c0.96-0.1,0.62-0.33,0.89-0.58c0.12-0.1,2.51-1.31,2.83-1.45c0.55-0.24,0.78-0.07,1.03-0.12c0.13-0.03,0.11-0.28,0.18-0.28
	c0.23,0.01,0.89,0.38,1.24,0.4c0.4,0.03,0.58-0.2,0.81-0.21c0.3-0.01,0.65,0.32,0.94,0.17l0.14-0.49l-0.9-0.3
	c-0.36,0.66-0.84,0.42-0.26-0.14c-0.58-0.2-0.99-0.1-1.53,0.14l0.17-0.43h-1.53L503.81,71.58z M420.33,88.15l-0.44-0.92l2.72-0.36
	l-0.34-0.21l0.51-0.79c-0.39,0-0.71,0.14-1.11,0.16c-0.63,0.03-0.65-0.41-1.02,0.27l-0.25-0.28c-0.26,0.64-1.18,1.05-0.72,1.81
	c0.63,1.04,2.26-0.2,3.43,0.33c0.01-0.09-0.01-0.19,0-0.29c2.3-0.08,3.42-0.81,5.43-1.36c2.83-0.77,6.68-1.45,9.65-2.03
	c6.66-1.31,13.43-2.28,20.18-3.17c2.26-0.3,7.64-1.02,9.67-0.32c0.29,0.1,0.56,0.4,0.7,0.42c0.76,0.12,1.56-1.13-0.11-0.41v-1h-1.19
	l0.51,0.57c-1.13-0.11-2.13-0.37-3.3-0.28c-0.27,0.02-0.45,0.26-0.66,0.25c-0.3-0.02-0.68-0.44-1.03-0.56
	c-0.45-0.15-1.35-0.28-1.63,0.15l0.85,0.15c0.16,0.17-1.89,0.64-2.16,0.68c-3.28,0.46-6.68,0.71-9.96,1.19
	c-7.08,1.04-14.1,2.69-21.06,3.83c-0.13,0.02-0.09,0.28-0.21,0.29c-1.5,0.1-2.51,0.99-3.78,1.22c-0.4,0.07-1.33-0.14-1.88,0.08
	c-0.05,0.09,0,0.19,0,0.27c-1.01,0.03-1.73-0.25-2.79,0.28L420.33,88.15z M471.24,53.39c-0.42,0.2-0.33,0.64-1.06,0.46l0.34,0.43
	c-0.64-0.14-2.17,0.76-2.46,1.15c-0.1,0.14,0.09,0.32-0.08,0.49c-1.1,1.07-3.61,2.31-4.97,3.5c-0.14,0.12-0.24,0.27-0.3,0.43
	c0.28,0.21,1.34-0.86,1.54-0.94c0.31-0.12,0.61,0.09,0.66,0.06c0.15-0.08,0.76-1.11,1.55-0.99l-0.17-0.43
	c0.65-0.11,1.62-0.2,2.21-0.35c0.55-0.14,0.94-0.57,1.45-0.78c0.48-0.19,1.1-0.19,1.6-0.44l-0.34-0.22
	c-0.57,0.61-1.61,0.13-2.14,0.94l-1.43-0.43c0.23-0.08,1.25-0.26,1.33-0.32c0.05-0.04,0.12-0.79,0.71-0.47l-0.34,0.5
	c0,0,0.93-0.17,1.02-0.21c0.54-0.23-0.41-0.19-0.09-0.36c0.55-0.12,0.66-0.57,1.28-0.43c0.12-0.46-0.37-0.14-0.68-0.29v-0.42
	c0.46,0.14,2.06-1.16,1.87-1.3c-0.06-0.04-1.33,0.31-1.49,0.39L471.24,53.39z M470.34,74.23l-0.5-0.5l-0.68,2.23l0.5,0.63
	l-0.68-0.14c0,0.41-0.43,0.85,0.08,1.14c0.54-0.39,0.96-0.13,0.75-0.92l0.52-0.08l-0.68-0.5l0.51-0.57l-0.34-0.14
	c-0.07-0.59,0.16-0.21,0.3-0.26c1.31-0.48,2.11-0.58,3.62-0.3c2.55,0.49,4.42,1.35,6.73,2.31c0.56,0.23,0.94,0.62,1.75,0.6
	l-0.17,0.28h1.02c0.32-0.23-1.62-1.16-1.83-1.24c-0.93-0.4-1.7-0.64-2.75-0.62c-0.18-0.55,0.44-0.27,0.34-0.71l-2.3-0.71l-0.08,0.28
	c-0.3,0.13-1.88-0.2-2.21-0.35c-0.56-0.26,0.55-0.29,0.51-0.5l-1.36-0.14l0.34,0.28c-0.91,0.4-1.97-0.94-2.72-0.07l0.34,0.21h-1.02
	l0.34,0.29l-0.85-0.28l0.51-0.22L470.34,74.23z M494.64,58.58l0.34,0.71c0,0-0.77-0.61-0.66-0.09c0.14,0.66,0.51,0.95,1.08,1.38
	c0.32-0.14-1.19-1.21-0.34-1.14c0.11,0,0.18,0.3,0.31,0.38c0.15,0.09,0.38,0.08,0.54,0.19c0.46,0.32,1.36,1.18,1.28,1.72l1.1-0.12
	c0.3,0.1,0.04,0.3,0.19,0.41c0.47,0.38,2.33,0.99,2.63,1.34c0.27,0.33,0.07,0.57,0.16,0.83c0.02,0.06,0.86,0.68,0.94,0.67l0.34-0.43
	c0.6,0.21,0.89,0.99,1.11,1.08s0.73-0.14,0.98,0.1l0.21,0.68c0.36-0.19,0.28-0.54,0.85-0.43c-0.05-0.27-0.57-0.2-0.83-0.37
	c-1.34-0.84-2.8-1.96-4.1-2.84c-0.5-0.34-1.12-0.36-1.35-1.01l0.51-0.5l-0.51-0.07l0.68-0.64c-0.89-0.34-0.87,0-1.53,0.29l0.51,0.28
	l-0.43,0.57c-0.33-0.15-0.17-0.53-0.29-0.68c-0.09-0.11-2.18-1.21-2.55-1.47c-0.3-0.21-0.76-0.54-0.82-0.85h-0.34L494.64,58.58z
	 M473.06,30.56l-1.02,0.43l0.85,0.28c-0.61-0.02-1.16-0.01-1.74,0.16c-0.12,0.03-0.12,0.24-0.24,0.27s-2.22-0.18-2.26,0.22
	c0.19,0.72,1.54,0.14,1.02,0.93l0.68-0.43l-0.08,0.43l1.44-0.14v0.43c-1.03-0.02-2.96,0.66-3.48-0.28
	c-0.32,0.13-0.05,0.46-0.16,0.57c-0.23,0.24-0.78,0.12-1.12,0.14l0.68-0.43l-1.62,0.43c-0.65,0.01-0.42-0.85-0.09-1.08
	c0.77,0.32,0.78-0.41,1.32-0.47c0.47-0.06,0.56,0.89,1.24,0.69l-0.34-0.85l1.7-0.79l-0.85,0.07v-0.57l1.36,0.14l-0.08-0.28
	l-0.77-0.14l3.57,0.29L473.06,30.56z M471.87,30.7c-0.7-0.11-1.31,0.21-1.87,0.57c0.36,0.04,0.67,0,1.02-0.07
	C471.2,31.17,472.02,31.01,471.87,30.7z M474.8,80.4c-0.66,0.19-1.42-0.01-1.57,0.61l1.7,0.14l-0.17-0.43
	c0.97,0.14,2.19-0.04,3.1-0.32c0.33-0.1,0.51-0.5,0.98-0.39l0.08,0.42c0.78-0.6,2.17-0.1,3.14-0.43c0.03,0.48-0.47,0.68-0.85,0.93
	c0.58,1.03,0.87-0.28,1.11-0.36c0.11,0.42,0.68,0.19,1.1,0.28c-0.08-0.24-0.9-0.62-0.99-0.75c-0.07-0.1,0.14-0.3,0.07-0.4
	c-0.34-0.45-2.29-0.08-2.7-0.14c-0.12-0.02-0.1-0.22-0.15-0.25c-0.58-0.29-4.07,0.83-4.84,1.06L474.8,80.4z M489.13,55.58
	c-0.44,0.67-0.24,1.3-1.2,1.71l-0.25-0.28c-0.25,1.02-1.02,1.86-1.58,2.76c-0.13,0.21,0.04,0.45,0,0.5
	c-0.03,0.05-0.87,0.7-0.93,0.72c-1,0.25-0.91-0.3-1.11-0.51c-0.13-0.14-0.51-0.09-0.61-0.21c-0.08-0.09-0.04-0.4-0.19-0.62
	c-0.44-0.63-1.09-1.21-1.63-1.78l-0.17,0.29c-0.3-0.38-0.19-0.47-0.77-0.35c-0.24-0.12-0.04-0.41-0.13-0.61
	c-0.25-0.56-1.11-0.6-0.89-0.26c0.16,0.25,0.93,0.13,0.68,0.5c-0.05,0.08-0.79-0.49-0.51,0.43c-0.38-0.02-0.3-0.54-0.34-0.57
	c-0.05-0.04-0.87,0.31-1.19-0.14c0.03,0.31,0.33,0.49-0.09,0.71l-0.51-0.29l-0.17,0.29l-0.25-0.47l-0.51-0.1v0.86l0.34-0.28
	l0.09,0.43l3.31-0.43v0.86c0.33,0.03,0.71,0,1.02,0.1c0.27,0.08,1.39,0.78,1.48,0.94c0.11,0.18,0,0.45,0.13,0.68
	c0.18,0.34,0.78,0.33,0.43,1l0.51-0.14l0.34,0.86c-0.08-0.45,0.43-0.22,0.81-0.33c0.27-0.08,0.76-1.03,0.94-1.2
	c0.23-0.21,1.02-0.41,1.1-0.5c0.1-0.12,0.06-0.5,0.22-0.74c0.37-0.58,1.01-0.9,0.83-1.66h0.85c0.08-0.57-0.73,0.02-0.51-0.71
	l0.51,0.14l-0.17-0.86l0.51,0.29l-0.34-0.57l0.68,0.14c-0.06-0.23-0.24-0.35-0.44-0.5c-0.1-0.07-0.09-0.42-0.32-0.07L489.13,55.58z
	 M483.43,53.43l-0.02,0.56l-1.51,0.16c0.02,0.28,0.61,0.19,0.77,0.42c0.07,0.1-0.11,0.27-0.05,0.4c0.02,0.05,0.31,0.04,0.4,0.46
	c0.07,0.34-0.12,0.66,0.07,1.01c0.28,0.06,0.11-0.18,0.19-0.25c0.04-0.03,0.55,0.07,0.73,0.03c0.31-0.07,0.51-0.34,0.85-0.36
	l0.26,0.28c-0.74-0.08-0.11,0.6,0.17,0.43c0.09-0.34,0.45-0.5,0.17-0.86c0.71,0,1.11,0.18,1.45-0.41c1.08,0.16,0.58,0.11,0.62,0.48
	c0.03,0.22,0.12,0.42,0.14,0.64l0.84-0.21l-0.34-0.57l0.33-0.21l0.17,0.28l0.34-0.57c-0.39-0.19-1.29-0.05-1.19-0.43L487.06,55
	c-0.19-0.6-0.42-0.08-0.68-0.07c-1.18,0.05-2.25-0.6-3.32-0.08l-0.17-0.71h1.53c-0.11-0.68-0.07-0.79-1.02-0.72L483.43,53.43z
	 M495.74,60.72l0.25,1c-0.5,0.04-0.52-0.46-0.85-0.65c-0.13-0.07-0.55-0.19-0.51,0.07c1.9,1.01,2.98,2.67,4.67,3.86
	c0.17,0.12,0.23,0.35,0.34,0.43c0.28,0.2,0.59,0.09,0.73,0.17c0.13,0.07,0.09,0.39,0.24,0.51s0.5,0.1,0.61,0.2
	c0.03,0.03-0.16,0.24,0.1,0.41c0.51,0.33,1.16,0.53,1.8,0.57c-0.38,0.98,0.71,0.43,1.19,0.79c0.22,0.16,0.12,0.72,0,0.93h0.85
	c0.06,0.28-0.46,0-0.34,0.36c0.05,0.16,0.41,0,0.34,0.14l-0.68,0.22c0.11,0.46,0.63,0.37,0.51,1l1.27-0.86
	c0.13,0.45,0.9,0.05,0.94,0.71l0.51-0.36c-0.99-0.61-1.98-1.3-2.88-2.01c-1.04-0.82-2.06-1.27-3.15-2.07
	c-0.29-0.21-0.49-0.59-0.85-0.86c-0.96-0.73-2.32-1.41-2.81-2.42l-0.34,0.28c0.01-0.49-0.48-0.75-0.76-1.16
	c-0.1-0.16-0.04-0.44-0.13-0.53c-0.07-0.07-0.95-0.26-1.07-0.74L495.74,60.72z M481.13,72.15c-0.27,0-0.88-0.78-1.09-0.94
	s-0.53-0.17-0.68-0.28c-0.19-0.14-0.63-0.91-0.94-1.06c-0.51-0.26,0.19,0.5-0.33,0.42c-1.23-0.19-2.69-0.98-4.24-0.98
	c-0.82,0-0.99,0.41-1.05,0.42c-0.38,0.04-0.64-0.36-1-0.29l-0.26,0.22c0.77,0.2-0.03,0.17-0.17,0.5l1.25,0.15l0.45-0.73
	c0.51,0.28,0.95,0.28,1.52,0.14v0.43c0.86-0.25,1.31-0.17,2.09,0.15c0.54,0.22,0.23,0.07,0.8,0.2c1.32,0.3,3.72,2.46,4.46,3.41
	c0.29,0.38,1.73,2.62,1.67,2.88l-0.35,0.08c0.27,0.55,0.86,0.05,0.85-0.43l0.68,0.07c-0.26-0.22-0.03-0.48-0.5-0.21
	c0.04-0.65-0.55-0.49-0.85-0.8c-0.18-0.19-0.06-0.7-0.19-0.94c-0.06-0.13-0.32-0.18-0.45-0.38c-0.19-0.28-0.03-0.52-0.56-0.67v-0.35
	l0.52,0.29v-0.57c-0.28,0.08-0.73,0.22-0.85-0.14h2.04v0.57l0.34-0.28c-0.11,0.6,1.17,0.86,1.7,1.14l-0.68-0.93
	c-0.21-0.2,0.71-0.26,0.17-0.43c-0.49-0.15-1.33-0.16-1.87-0.21l1.36-0.43h-3.82L481.13,72.15z M489.95,74.6
	c-0.97-0.29-1.63,0.88-1.42,1.56c0.3,0.1,0.45-0.26,0.59-0.25c0.16,0,0.34,0.36,0.53,0.39c0.08,0.01,1.4-0.6,1.42,0.15
	c-0.49,0-2.02-0.08-2.3,0.28c-0.14,0.18-0.04,0.51-0.24,0.8c-0.39,0.56-1,0.84-1.46,1.2c-0.78,0.6-0.29,0.98,0.35,1.43l-0.1-0.92
	c1.03-0.18,0.74-0.59,1-1.04c0.15-0.25,0.4-0.54,0.58-0.81c0.07-0.11-0.03-0.31,0-0.35c0.44-0.47,1.05-0.3,1.56-0.31
	c0.53-0.01,0.76-0.32,1.28,0.14c0.23-0.21-0.86-0.93-0.96-1.05c-0.22-0.26-0.62-1.16-0.85-1.22H489.95z M470.69,42.28
	c0.41,0.84-0.45,0.39-0.51,0.43l0.34,0.43h-0.85l1.36,0.43l-0.34,0.63l1.01,0.37l-0.51,0.57l1.18,0.28
	c0.23-0.81,0.97-0.58,0.69,0.15c0.42,0.07,0.28-0.06,0.42-0.29l0.94,0.29c-0.13-0.26-1.26-0.93-1.32-1.03
	c-0.19-0.28,0.08-1.08-0.8-1.4l-0.51,0.57l-0.91-0.6c-0.06-0.1,0.06-0.38,0.13-0.46c0.2-0.2,0.65,0.09,0.52-0.37h-0.85L470.69,42.28
	z M478.5,42.57l-0.02,0.7h-1.34c-0.08,0.42,0.1,0.25,0.39,0.32c0.38,0.08,0.7,0.19,1.06,0l0.15,0.27l1.12-0.28l-0.16,0.37l0.32,0.06
	c-0.24,0.44-0.72,0.42-1.19,0.29c-0.05,0.04,0.75,0.98-0.08,1c0.04-0.44,0.05-0.82-0.28-1.2c-0.56-0.64-0.67,0.54-1.13,0.84
	c0.4,0.61,1.31,0.49,2,0.64c0.11-0.41,0.14-0.64-0.17-1l1.12-0.14c0.04-0.44-0.31-0.9,0.24-1.22c-0.29-0.06-0.83-0.58-0.89-0.6
	c-0.34-0.12-0.79,0-1.15-0.04L478.5,42.57z M501.69,89.73c-0.2,0.36,0.43,0.83,0.63,1.19c0.18,0.33,0.18,0.84,0.4,1.09
	s0.74,0.24,1,0.58c0.22,0.29,0.2,0.86,0.3,0.96c0.06,0.06,0.51,0.08,0.82,0.38c0.41,0.4,1.32,1.54,1.6,1.94
	c0.13,0.19,0.05,0.44,0.13,0.54c0.08,0.11,1.39,0.51,1.67,0.31c0.02-0.19-0.02-0.37-0.12-0.54c-0.36-0.65-1.72-1.39-2.26-1.95
	c-0.29-0.3-0.37-0.78-0.84-0.93c0.12,0.41-0.43,0.31-0.64,0.1c-0.27-0.28-0.02-0.71-0.08-0.88c-0.1-0.27-1.18-0.69-0.64-1.22
	c-1.08-0.12-1.31-1.02-1.96-1.58L501.69,89.73z M391.78,50.71c-1.13-0.03-2.27,0.03-3.4,0l0.25,0.28c-2.41,0.34-4.88,0.01-7.3,0
	c0.09,0.32,0.3,0.2,0.51,0.22c2.35,0.2,4.71,0,7.04-0.08c1.14-0.04,2.55,0.24,3.49-0.28v0.43h10.45c0.17-0.32-0.96-0.07-1.1-0.14
	l0.17-0.28h-2.21l0.34,0.28c-0.57,0.2-0.67-0.22-0.72-0.24c-0.34-0.13-6.4-0.16-7.51-0.19H391.78z M345.65,50.43l0.34,0.43
	L345.48,51c1.84-0.17,4.07,0.2,5.87,0.01c0.34-0.04,0.21-0.45,0.75-0.3l-0.34,0.28h2.77l0.28-0.43h-1.02l0.17,0.28h-0.6l0.09-0.28
	l-7.82-0.14L345.65,50.43z M429.4,81.22c0.6-0.43,1.82-0.63,1.87-1.49c-1.37,0.34-2.11,1.53-3.56,1.72l0.77,0.29L427.91,82
	l-0.11-0.26h-0.33l-1.96,1.72c1.67,0.03,2.76-1.41,3.9-2.22L429.4,81.22z M454.97,42.14c-0.65,0.03-1.74-0.21-2.12,0.29
	c0.7,0.32,1.49,0.37,2.28,0.28c0.48-0.06,0.71-0.36,1.35-0.28c0.42,0.06,0.91,0.51,1.46,0.43l0.08,0.57l0.33-0.28
	c0.34,0.05,0.44,0.38,0.48,0.4c0.14,0.05,0.35-0.12,0.48-0.05c0.17,0.08,0.03,0.45,0.41,0.36c0.06-0.88-1-0.74-1.61-1.08
	c-0.24-0.14-0.28-0.38-0.39-0.45c-0.76-0.45-1.98-0.22-2.76-0.19L454.97,42.14z M317.11,49.86V50h20.05v-0.14H317.11z M484.27,64.37
	c0.02,0.27,0.29,0.47,0.29,0.56c0,0.15-0.55,0.92-0.28,1.36l-0.34-0.15c-0.13,0.15,0.22,0.96,0.68,0.86l-0.17-1.86
	c0.3,0,0.21,0.39,0.42,0.57c0.18,0.15,0.51,0.13,0.67,0.29c0.23,0.22,0.21,0.81,0.36,1.13c0.36,0.77,0.3,0.49,0.51,1.37
	c0.12,0.54,0.61,0.74,0.7,1.02c0.18,0.51-0.83,1.38,0.9,1.62l-0.03-0.4l-0.64-0.31h1.19L488.02,69l-0.25,0.71
	c-0.87-0.66-0.91-1.52-1.27-2.36c-0.3-0.69-0.38-1.03-0.6-1.63c-0.06-0.18-0.47-0.42-0.44-0.72l-0.33,0.14
	c0.38-0.88-0.32-1.66-0.17-2.43c-0.94-0.17-0.72,1.07-0.69,1.65V64.37z M479.18,77.87l0.15,0.26l-0.48,0.31l1.53-0.14
	c-0.27,0.87-2.08,0.33-2.89,0.14l0.85-0.28h-0.9l-0.63,0.43c1.4,0.04,2.6,0.77,4.08,0.57l-0.51-0.57l1.87,0.29l-0.19-0.69
	c-1.08,0.11-1.87-0.22-2.86-0.31L479.18,77.87z M443.62,49.71c-0.78,0.58-2.64,0.55-3.72,0.47l-1.32,0.25
	c1.19-0.06,2.48,0.08,3.66,0c0.88-0.06,1.9-0.4,2.73-0.42s1.89,0.16,2.87,0.13c0.21,0,0.63,0.11,0.59-0.14
	C448.43,50,443.62,49.71,443.62,49.71z M355.45,50.56l-0.28,0.43l0.34-0.28h1.44l-0.42,0.28h4.76l-0.17-0.28
	c0.71-0.12,0.92,0.54,1.7,0.43c-0.41-0.44-1.3-0.68-1.92-0.57c-0.14,0.03-0.08,0.42-0.54,0.29l-0.25-0.29
	c0.08,0.44-0.44,0.27-0.85,0.28l0.17-0.28h-3.96L355.45,50.56z M475.79,22.21c0.15-0.79,0.08-1.51-0.01-2.44
	c-0.02-0.24-0.09-0.59-0.25-0.79c-0.3,0-0.23,4.72-0.18,5.01c0.03,0.17-0.1,0.36,0.27,0.42c-0.03-0.73,0.05-1.48,0.18-2.2
	L475.79,22.21z M475.31,62.12L474.42,62c-0.07,0.63,0.35,1.58-0.68,1.72c0.82,0.88,1.01-1.07,1.36-1.23l1.53,0.08
	c-0.13-0.41-0.38-0.53-0.17-1L475.31,62.12L475.31,62.12z M490.05,34.92l1.19,0.07l-0.34,0.43l0.77-0.14l0.17,0.43l1.08-0.17
	l0.02-0.4l0.85,0.14l-0.58-0.37c-0.97-0.38-2.12,0.02-3.16,0V34.92z M446.08-7.7c-0.17-0.33-0.35-0.85-0.71-1.05
	c0.37,1.44,1.03,3.18,2.21,4.29C447.15-5.54,446.62-6.65,446.08-7.7z M412.59,51.43c0.04-0.25-0.38-0.14-0.59-0.14
	c-0.56-0.02-1.13,0.01-1.7,0c0.09-0.75-0.26-0.01-0.5,0.01h-1.97l-0.08-0.3c-0.15,0.38-0.32,0.31-0.77,0.29l0.17-0.28
	c-0.1-0.06-2.07-0.01-2.38,0.21c0.4-0.02,0.92,0.19,1.27,0.21c2.1,0.15,4.42-0.11,6.54,0H412.59z M355,50v0.14h11.04V50H355z
	 M472.84,55.02c-0.42,0.03-1.21,0.55-1.14,0.98h2.38c0.07-0.24-0.6-0.06-0.34-0.43c0.01-0.02,0.47,0.21,0.51-0.14
	C473.66,55.68,473.11,55,472.84,55.02z M509.93,73.15c-1.07,0.03-2.72,1.11-1.27,1.71c0.24-0.46,0.75-0.79,1.03-1.2
	c0.11-0.16,0.33-0.26,0.25-0.51H509.93z M507.89,68.58l0.17,0.28c-0.39-0.31-1.09,0.25-0.78,0.58c0.45,0.48,1.57,0,2.14-0.08
	c0.39-0.41-0.4-0.27-0.61-0.35c-0.3-0.11-0.42-0.39-0.45-0.4c-0.16-0.07-0.31-0.04-0.47-0.04L507.89,68.58z M468.02,41.15
	l-1.07,0.34c0.28,0.36,1.09,0.34,1.36,0.57c0.28,0.25,0.2,0.73,0.3,1.05c0.08,0.25-0.08,0.38,0.38,0.31l-0.34-1l0.51-0.07
	l-0.34-0.79l-0.31,0.12l-0.48-0.54L468.02,41.15z M482.05,42.43l-0.58,0.28l0.94,0.57l-1.19,0.15V44l1.37-0.06
	c0-0.44,0.47-0.48,0.5-0.51c0.19-0.25-0.28-0.28-0.59-0.5c-0.19-0.14-0.39-0.27-0.44-0.49L482.05,42.43z M468.48,43.64
	c-0.02,0.82,0.57,0.79,0.67,1c0.22,0.46-0.48,0.21-0.33,0.64l1.19,0.29l0.15-0.55c-0.68-0.26-0.89-0.97-1.34-1.45L468.48,43.64
	L468.48,43.64z M458.29,37.14c0.37,0.97,0.36,1.76,0.16,2.76l1.02,0.39l-0.17-0.57l-0.68,0.14v-0.43l0.34,0.14
	c-0.12-0.78,0.32-2.04-0.68-2.43L458.29,37.14z M483.06,45.96l-0.49-0.05l-0.18,0.35l-0.49-0.13c-0.16,0.13,1.02,1.77,0.68,0.43
	c0.41,0.27,0.52,0.3,1.02,0.14l-0.17-1c-0.34-0.03-0.35-0.03-0.36,0.25L483.06,45.96z M345.82,50v0.14h8.83V50H345.82z
	 M469.84,81.37c0.24,0.03,0.51,0.45,0.55,0.46c0.4,0.17,1.97-0.73,2.68-0.54v-0.43c-1.14,0.3-2,0.5-3.23,0.5L469.84,81.37z
	 M480.37,31.7c0,0,0.87,0.42,0.94,0.43c0.67,0.1,1.05-0.15,1.1-0.71l-1.36,0.28l0.51-0.71C481.37,31.02,480.13,31.45,480.37,31.7
	L480.37,31.7z M456.59,9.12c0.27,0.93,0.66,2.22,1.53,2.86C457.83,11.02,457.49,9.8,456.59,9.12z M448.01-3.88
	c-0.37-0.03-0.15,0.36-0.09,0.5c0.29,0.73,0.75,1.35,1.54,1.78c0.06-0.37-1.29-2.27-1.44-2.28H448.01z M491.93,56.64
	c-0.36-0.3-0.32,0.18-0.45,0.21c-0.59,0.14-1.45-0.38-2.1,0.36c0.23,0.5,1.49-0.18,1.75-0.18c1.21,0.01,1.26,1.1,1.89,1.41
	c0.29,0.14,0.74,0.12,0.76,0.14c0.12,0.09-0.18,0.6,0.18,0.57c0.14-0.39,0.17-0.86-0.25-1.14c-0.35-0.23-0.68-0.07-0.9-0.17
	c-0.05-0.02-0.52-0.6-0.65-0.74c-0.11-0.12-0.11-0.35-0.23-0.45V56.64z M465.04,79.2c-0.17,0.02-0.68,0.04-0.64,0.24h0.85l0.02,0.55
	l1,0.16l-0.85-0.57h1.53v-0.57c-0.63,0.18-1.27,0.11-1.91,0.18L465.04,79.2z M415.31,50.43v0.14h7.64v-0.14H415.31z M383.2,50.14
	v0.14h7.64v-0.14H383.2z M501.61,34.28c-0.1,0.59,0.63,0.86,0.17,1.43h0.85l-0.17-0.43l0.51,0.14c0.15-0.36-0.22-0.25-0.28-0.33
	C502.41,34.73,502.31,34.17,501.61,34.28L501.61,34.28z M378.27,51.14c0.04-0.25-0.38-0.14-0.59-0.14c-1.86-0.06-3.92-0.07-5.78,0
	c-0.21,0-0.63-0.11-0.59,0.14h6.97H378.27z M482.75,31.13l0.51,0.5l-1.02,0.64c0.36,0,0.76-0.16,1.03-0.35
	c0.16-0.1,1.01-0.93,0.83-1.08l-1.36,0.29L482.75,31.13z M485.3,69.15c0.51,1,0.66,2.08,0.34,3.14c0.47,0.06,0.32-0.07,0.34-0.35
	c0.04-0.65,0.15-1.32,0-1.93l0.51,0.14L485.3,69.15z M474.25,56.07l1.02,0.36l-0.34,0.43l1.19,0.08l0.34-0.51
	c-0.72,0.05-1.55-0.03-1.7-0.72C474.11,55.64,474.87,55.96,474.25,56.07L474.25,56.07z M460.83,41.14L460.49,43l1.7-0.43
	c-0.02-0.3-0.63,0.02-0.51-0.43l-0.18,0.27l-0.64-0.15L460.83,41.14z M370.8,51.14c-0.07-0.22-0.93-0.2-1.17-0.2
	c-1.2-0.02-2.58-0.03-3.78,0c-0.2,0-0.99-0.02-1,0.2H370.8z M468.39,39.85l-0.08,0.43l-0.51-0.14c-0.18,0.85,1.1,0.6,1.19,1.14
	l0.17-0.57l0.34-0.07c-0.55-0.54-0.49,0.04-0.53,0.05c-0.7,0.19-0.17-0.65-0.58-0.83L468.39,39.85z M468.9,77.87
	c-0.36,0.48-0.47,0.95-1.28,1l0.17,0.43l0.93-0.71l0.76,0.71c0.18-0.48-0.37-0.76-0.46-0.9c-0.12-0.2,0.04-0.44-0.14-0.53H468.9z
	 M474.77,59.86v0.76l0.68,0.67c-0.24-0.58,0.59-0.38,0.67-0.65l-0.16-0.63l-0.41,0.4c-0.14-0.09-0.51-0.07-0.58-0.14
	c-0.12-0.12,0.12-0.45-0.2-0.4V59.86z M397.64,50.28v0.14h6.12v-0.14H397.64z M441.64-13.46v1.29c0.68-0.18,0.77-0.82,1.36-1.14
	c-0.59,0.01-0.89,0.26-1.36-0.14V-13.46z M484.7,36.28c0.68-0.11-0.29-0.05-0.08-0.51c0.16-0.36,0.65-0.05,0.68-0.07
	C484.78,34.51,482.84,35.86,484.7,36.28z M470.52,71.44l-0.68,2.14l0.17-0.28l0.68-0.15C470.21,72.61,471.32,71.8,470.52,71.44z
	 M485.16,44.51l0.13,0.34l-0.68-0.14c-0.14,0.46,0.44,0.26,0.64,0.47c0.12,0.12,0.04,0.42,0.3,0.53c0.32,0.01,0.21-1.35,0.08-1.43
	S485.19,44.35,485.16,44.51z M432.29,50.43v0.14h5.61v-0.14H432.29z M509.17,39.28c-0.21,0.13-0.39,0.42-0.61,0.5
	c-0.35,0.14-1.44-0.21-1.35,0.35c0.48,0.07,1.13-0.39,1.27,0.14l1.1-0.64c0.05-0.11-0.17-0.04-0.27-0.13s-0.02-0.27-0.15-0.23
	L509.17,39.28z M483.53,37.57l-0.19-0.29l-1.78,0.28l0.55,0.26l0.81-0.26l-0.17,0.34l0.34,0.37L483.53,37.57L483.53,37.57z
	 M482.91,52.2l-0.16,0.65c0.49-0.2,0.71,0.16,1.19,0.14c0.01-0.21-0.04-0.53-0.21-0.68c-0.16-0.13-0.61-0.24-0.81-0.12L482.91,52.2z
	 M481.22,53.86c0.27,1.14-1.32,0.63-0.85,2c0.31,0.04,0.09-0.25,0.21-0.39c0.08-0.09,0.32-0.1,0.39-0.19
	c0.12-0.15-0.09-0.34-0.05-0.4C480.98,54.78,482.1,54.25,481.22,53.86z M419.55,51.43v0.14h5.1v-0.14H419.55z M505.85,66.58v0.43
	l0.51,0.07l-0.67,0.28c0.2,0.41,0.05,0.68,0.67,0.79c0.02-0.34-0.03-0.87,0.51-0.86v-0.14c0,0-0.69-0.29-0.78-0.34
	c-0.13-0.08,0.02-0.29-0.23-0.23H505.85z M503.81,45.28l0.14,0.27l-0.31,0.16c0.8-0.07,0.83,0.41,1.36,0.72l-0.03-0.83L503.81,45.28
	z M484.62,67.86c-0.19-0.03-0.36-0.55-0.68-0.28s0.32,0.46,0.34,0.5c0.18,0.41-0.55-0.16-0.34,0.36c0.46,0.07,0.57-0.08,0.7-0.41
	l0.31,0.12l-0.17-1c-0.66-0.1-0.1,0.42-0.17,0.71H484.62z M505.81,51.14c-0.13,0.07-0.51,0.43-0.64,0.57l1.36,0.14l-0.17-0.86
	c-0.21-0.02-0.38,0.05-0.55,0.14L505.81,51.14z M490.05,49c0.81-0.2,2.13,0.13,2.72-0.43C491.98,48.62,490.63,48.51,490.05,49z
	 M475.01,27.7l-0.08,1.43c0.59-0.09,0.06-0.77,0.17-0.86h0.51c0.1-0.36-0.09-0.96-0.6-0.58L475.01,27.7z M479.52,33.56
	c-0.54,0.16-0.95,0.13-1.19,0.65l1.36,0.07l-0.17-0.71L479.52,33.56z M472.39,66.01l-0.51,1.71c0.57,0.14,0.35-0.54,0.55-0.69
	l0.47-0.02v-0.28l-0.3-0.03c-0.08-0.07,0.22-0.68-0.2-0.68L472.39,66.01z"/>
</svg>
