<?xml version="1.0" encoding="UTF-8"?>
<svg id="Calque_2" data-name="Calque 2" xmlns="http://www.w3.org/2000/svg" xmlns:xlink="http://www.w3.org/1999/xlink" viewBox="0 0 24 24">
  <defs>
    <clipPath id="clippath">
      <circle cx="12" cy="12" r="12" fill="none"/>
    </clipPath>
  </defs>
  <g clip-path="url(#clippath)">
    <path d="M25.29-3.42c-.05.19-.13.37-.17.56-.07.33-.1.65-.16.98-.07.42-.19.84-.2,1.27,0,.08.03.36,0,.41-.01.02-.04.04-.04.07-.02-.02-.03-.04-.04-.08-.05-.55.08-1.11.19-1.64.04-.34.09-.69.17-1.02.03-.13.09-.26.11-.4l.13-.15h0,0ZM20.69,2.33c.03.21.1.38.19.57.02.05.03.14.1.11.04-.04-.1-.28-.12-.33-.1-.25-.11-.56-.16-.82l-.07.08.06.4h0ZM19.18,12.23l.03-.02v.02s.05-.03.06-.04c.06-.07.12-.17.17-.24.02-.02.04-.04.05-.05.01-.02.01-.06.04-.07l-.05.02.12-.18v.02s.06-.06.07-.09c0-.02,0,0,.03-.04.03-.04.04-.08.08-.12l-.04.02.03-.05s-.08.03-.11.07h.03c-.09.06-.11.17-.18.24l.06-.04s-.04.05-.06.08c-.02.03-.04.07-.07.11h-.02c0,.07-.08.1-.12.14-.02.03-.03.08-.07.11l.03.04-.09.08h0s0,0,0,0h0ZM23.22,7.87s.05.06.08.05l-.06-.08s.02,0,.04.02l.07-.05v.04s.07-.02.07-.02c-.05,0-.01-.03-.05-.05h-.05s.03-.05.03-.05c-.06,0-.04.06-.09.07h-.01s0-.03,0-.03h-.03s.02-.03.02-.03h-.02s.03-.05.03-.05l.04.03v-.05s-.06,0-.06,0c-.03,0,.01.03-.01.04l-.03-.02v.03s-.01,0-.01,0v-.02s-.08.06-.08.06c-.02-.02,0-.07-.03-.09l-.02.06v-.04s-.05.01-.06-.01l.04-.04v.03s.02-.02.02-.02l-.02-.02-.03.02.02-.03-.02-.02s-.05.07-.08.04c0,.02.04.04.05.06l-.06.02v.02s-.05.03-.05.03l.02.03h-.02s.02.02.04.03v-.05s.03.02.03.02l-.03.05.02.03h.02c0,.08-.02.01-.05,0-.03,0-.05.03-.07-.02,0-.01,0-.04-.02-.06l-.02.04.03.05-.03.04-.02-.05-.02.04.06.05-.03.02s0,.02.02.03c0,0,.02-.01.03-.02.01-.02,0-.05.03-.04.02,0-.01.03,0,.05l-.03.02s.04-.03.06-.03l.04.03-.02.02s.08.03.11.06l-.02.02h.03s0,.08,0,.08h.01s.02,0,.02,0c0,.01,0,.06-.02.05l-.03-.03v.02s-.12-.05-.12-.05l.03.04h-.03v.03l-.05.03s0,.03.03.05l-.02.03-.03-.05s0,.06.02.06v.02c-.05-.02-.1.04-.15.04-.01,0-.02-.01-.04,0,0,0-.08.04-.08.05l.06.02-.02.02s.05-.04.08-.06c.03-.01.06,0,.09-.03l.03.04.02-.05.02.02s.03-.02.06-.03c0,0,.07-.03.07-.04.02-.03-.05-.01-.05-.03l.06-.04v.03s.02,0,.04.03l-.02.03h-.02s.01.03,0,.06c.01.02.02.01.03,0,.02.03,0,.05-.01.08l.02-.02v.02s.03-.02.04-.04c0,0,.05-.07.06-.05v.14s-.04-.03-.04-.03l-.02.04s-.03-.02-.04-.05c-.01.03-.02.06,0,.09h.02s0-.03,0-.03c0,.04.05.05.03.1-.06-.02,0,.02,0,.05,0,.01-.02.03-.02.04,0,.03,0,.09,0,.13-.01.04-.07.07,0,.11h-.04s.02.07-.01.09l-.02-.05s-.07.09-.09.03l.02-.03-.06.03s-.03-.09-.08-.08v.03s-.04-.02-.04-.02c.01.01.03.02.04.03,0,0-.02.02,0,.03v-.03s.04.03.04.03h-.03s.05.08.1.1v-.03s.02.02.02.02c.06-.03.04.04.08.06v-.06s.03,0,.03,0l-.02-.04.04.02s0-.06.03-.04v.07s-.03-.02-.03-.02v.04s-.03-.03-.04,0c-.01.03.03,0,.04.02h.04s0,.06-.02.11c-.03-.02-.02-.03-.02-.06l-.02.03s-.06-.08-.08-.04l.06.04-.02.05.02-.03s.04.03.02.06h.01s.01,0,.01,0h.01s.02.05.03.07c.02.03.02.2.02.24,0,.23,0,.46,0,.68,0,.09.02.18.01.26h-.02s-.03-.03-.03-.03v.02s-.06-.03-.06-.06l.06.02s-.06-.09-.07-.15c-.02,0,0,.03-.01.05,0,.01-.02.02-.03.02v-.02s0-.01,0-.01v-.03s.02-.03.02-.03l-.04-.06s0,.02,0,.03c0,0-.02,0-.02.01,0,0,0,.11.01.11,0,.01.03.02.04.04.01.02.02.1.05.13h0s.02,0,.02,0c.01.02.01.05.04.06v-.03s.04.02.04.02c0,.12.02.25.03.37,0,.03,0,.05,0,.07.02.16.06.32.08.48.02.02.01,0,.02,0,.01-.03,0-.03-.01-.06-.02-.08-.01-.16-.02-.24-.1-.6-.11-1.22-.09-1.83,0-.01.08-.14.09-.15.01-.01.02,0,.03,0s.01-.05.03-.07c.06-.1.13-.2.19-.3-.03-.03-.09.03-.1.03l-.03-.02.02-.02h-.02s.02-.04.02-.04l-.14.2.06-.04c-.05.1-.13.19-.2.28l-.02-.02.12-.14s-.05.07-.09.06c.05-.03.02-.06.04-.09l-.03-.02h.05s-.04-.03-.04-.03c.05-.04,0-.07.01-.11,0-.02.03.01.04-.02,0-.03-.03-.03-.04-.05,0,0,0-.03.01-.04,0-.06,0-.13.01-.18,0-.02.02-.04.02-.05,0-.01-.02-.02-.02-.03,0,0,.02-.01.02-.02,0-.02,0-.04.03-.05h-.04c0-.09.04-.26-.09-.17-.03-.03,0-.03.02-.05,0-.01,0-.03.01-.04l.03.04.02-.02-.04-.04.02-.03v.03s.03-.03.03-.03l.05.05.02-.04h-.05s.02-.05.03-.07c.02-.03.06-.04.06-.08-.04,0-.06.03-.08.06l.04-.02s-.09.04-.11.02c-.01-.01-.04-.12-.05-.14,0-.02.03-.05.03-.08,0-.05-.05-.06-.07-.1l.03-.02s-.05-.06-.01-.09l-.02-.02s0-.02.02-.04l.02.05s.03-.03.06-.02l-.04.04v.02s-.02,0-.02,0l.04.04h-.03s.03.03.03.03v-.03s.03.02.03.02v-.02s0-.01,0-.01c.02.03.02-.01.04-.02,0,0,.03,0,.03-.02l-.04-.03s.05.03.07,0c.02.01.02.03.02.06,0,.02.01,0,.03,0l-.02.03h0,0ZM22.28,8.8s-.02,0-.03,0c-.05-.02-.1-.01-.13-.05,0,.01-.02.02-.04.03-.04,0-.14,0-.18,0-.03,0-.06.01-.1-.02.01-.04.07-.03.09-.05,0,0,0-.02.02-.03,0,0,.07-.04.07-.04,0,0,.05.02.07.01l-.05.03s.03,0,.04,0,.03,0,.05,0,.03-.03.05,0v-.03s.03.02.05,0c-.03,0-.04,0-.05-.03.03,0,.04-.04.06-.06.04-.04.11-.08.16-.11.03-.02.08-.02.06-.08h.04s-.03.03-.03.03h.04s0,.04,0,.04c0,.01-.02.03,0,.06.01.01.08-.02.05-.03,0,0-.02.03-.02,0,.05-.04.04-.05.05-.1h.04s-.02-.02-.02-.02l.06-.02s-.04,0-.06,0l-.04-.04h.04s.02-.07.02-.07h.03s.02.03.02.03c0-.02-.02-.04,0-.05-.04,0-.06-.01-.01-.04,0,0,.01,0,.02,0,.01,0,.02-.07.05-.07l-.02-.02-.02.03h-.02s0,.01.02.02l-.09.09s-.04-.05-.02,0c-.05.01-.05-.05-.11-.04l.04-.04s0-.07-.02-.11c-.08-.05-.16-.07-.22-.14l-.12-.03s0,.02.02.03c.06.04.16.08.21.12.06.05.02.08.03.11,0,.02.03.04.03.05,0,.03-.04.06-.01.09-.03.04-.04,0-.07,0-.01,0-.02,0-.03,0-.02,0-.06-.03-.09-.02.02,0,.04.04.05.04,0,0,.03,0,.04,0,.04,0,.05.04.1,0,.04.03-.04.06-.06.08-.01.01-.02.03-.02.04,0,0-.02,0-.02.02,0,0,.04,0-.02.04v-.02s-.03.01-.04.02c-.04.03-.13.12-.16.14-.01,0-.02,0-.03,0,0,0-.02.02-.03.01,0,0-.02-.02-.02-.02,0,0,0,.02-.02.03-.05.05-.1.02-.14.05-.02.01-.02.05-.05.06l.03.03-.03.04.02.02s0,.07,0,.07l.03-.02v.03s.03-.08.03-.08l-.02-.03s.07.12.06.12c-.02-.02-.01,0-.03.01,0,0-.04,0-.04,0,0,.02-.03.05,0,.05.03,0,.05,0,.05-.03l.02.02s0-.08.03-.11l-.04-.03s.02,0,.03-.01c0,0,0-.01.01-.01,0,0,0,.02.02.02,0,0,.05,0,.07,0,.02.01-.01.03.02.04l.06-.05s-.05.05,0,.07l.02-.06h.07s.01.03.01.03l.03-.02v.02s-.05.04-.05.04h.03s-.15.09-.15.09l-.02-.02v-.02s0,.06.02.06c0,0,.09-.04.1-.05.03-.01.05-.05.08-.06v-.02s0-.01,0-.01h.01s.05-.03.03-.04h0s0,0,0,0h0ZM22.35,8.39h.02s.03-.04.04-.06c.03.02-.02.04-.02.06h.03s-.02.03-.02.03l-.04-.02h0ZM21.09,6.79s.1.03.15.02c0-.02-.02-.02-.03-.02-.16-.04-.31-.05-.47-.01-.2.05-.42.13-.62.2-.29.12-.57.23-.88.32-.03,0-.21.04-.21.06.08.04.16-.03.23-.05.09-.02.19-.03.28-.05.13-.03.24-.11.36-.16.01,0,.07,0,.09-.02v-.03s.06-.03.06-.03v.03c.13-.09.29-.1.44-.15.14-.04.33-.14.46-.13.04,0,.09,0,.13.01h0,0ZM21.45,9.15h-.02s.05-.08.07-.11c0,0,0-.02,0-.04.02-.04.07-.07.07-.12.04-.03-.02.05,0,.06l.05-.06.02-.1-.1.04v.04s-.1.26-.11.27c0,0-.04,0-.04,0l.04-.03s-.08-.06-.02-.11c0,0,.02.02.04-.02l-.02-.02s.04-.03.03-.05h.03s-.03-.02-.03-.02c.01-.02.03-.05,0-.07-.05.04-.12.05-.18.07-.06.02-.12.07-.18.09,0,0-.01,0-.02,0v.03s.08-.04.09-.04.04.03.06-.02l.02.02-.02.04.05.02v.04s0-.04-.01-.06c0-.01-.01-.09.02-.04l.06-.06v.06s-.05.07-.05.08c0,0,.02,0,.02.02,0,0-.02.08-.02.08,0,0-.03,0-.04.02-.02-.01-.01-.05-.02-.07-.02-.03-.09-.09-.13-.06l.04.05h.05s0,.08,0,.08l.02-.03.02.05s-.08.04-.1.06c-.02.02-.03.09-.08.1-.01-.02.01-.04,0-.05,0-.01-.02-.02-.02-.04,0-.01.01-.03.01-.04,0-.05-.02-.1,0-.14h-.03s-.02,0-.02,0c.02-.04-.04-.02-.06-.01-.09.04-.18.09-.27.13,0,0-.03-.02-.03,0,0,.05.17-.04.18-.05.02-.01.05-.02.08-.03-.01.03-.05.04-.06.07-.01.03,0,.03,0,.05-.04.01-.02-.03-.05-.04l-.07.03s-.05-.01-.08.01c.04,0,.03.05.01.07l-.05-.04.03-.03s-.08.04-.11.05c-.03,0-.07-.02-.1.02.03.03.04,0,.07-.01.03,0,.06,0,.09-.02.02.03.06.04.08.07.01.01,0,.03.03.05.03.03.06.04.09.06l-.02-.03h.02s-.11-.11-.11-.11c0-.06.07-.12.13-.1.03,0,.04.08.08.07,0-.06-.07-.1,0-.15.02-.02.04-.01.05-.02.02-.02.04-.05.07-.07.01,0,0,.01,0,.02.03.08.03.17,0,.25,0,.01-.02.01-.02.02,0,0,.01.01.01.01,0,0-.06,0-.06,0-.03-.02-.03-.06-.06-.06.02.05.05.1.02.15h-.02s.04.04.04.04c.02-.02.02-.05.05-.07.03-.02.06,0,.08-.04l-.03-.03h.02s0-.06,0-.06c.01,0,.01.02.02.04,0,.02-.02.03.02.03-.02-.05,0-.03.04-.06,0,0,0-.02.03-.04.02-.02.08-.03.09-.04,0-.01.04-.11.05-.06.04-.04.06-.07.09-.11l-.02.1h.02s-.04.04-.04.04h.05s.05-.05.05-.05h0s0,0,0,0h0ZM24.12,8.96s.04.1.08.14c-.01-.06-.13-.3-.09-.35,0,0,.03-.01.03-.02-.03,0-.02-.03-.04-.05l.04-.02s-.17-.04-.1-.1l.03.02.08-.04h-.08s-.02-.02-.05-.04l-.02.02.03.03-.04.04.05.04s-.02.1-.04.1c-.02-.02-.04-.03-.07,0l.02.03-.04-.04h-.04s.03-.07,0-.06l-.06.05s.04-.05.07-.08v.02s.03-.02.03-.02v.04s.03-.02.04-.02c.03-.03,0-.06.01-.07,0-.01.05-.01.03-.04h-.05s0-.03,0-.03c-.03.03-.04.03-.08.02v.04h.01s.02,0,.02,0c0,.07-.07.07-.11.1h.02s-.01.06-.01.06h.02s0,.02.03.03c-.01.02-.02,0-.04.01-.01,0-.02.02-.03.03v-.03s-.03.07-.03.07c-.03-.01-.06,0-.09.01l.02.02h-.02s-.02.04-.02.04l-.02-.04h-.02s-.02.06-.03.08c.07-.01.14-.06.2-.09.01,0,.05-.03.06-.03.02-.01.03-.03.02-.05.02,0,.04,0,.05,0,.02.02-.05.05-.01.07.03-.01.03-.06.03-.06,0,0,.1-.02.11-.02.07,0,.07.11.1.16l-.02.02s.01.01.03,0h.01s0,0,0,0h0ZM21.45,9.96l.07.08-.03.02s.1.04.1.1h.03s.04.1.06.16c.02.1.03.14.07.23.04.13.09.32.14.44,0,.02.03.03.04.05.02-.03-.02-.07-.03-.1-.08-.22-.13-.44-.21-.65,0-.06,0-.11.06-.15l-.07.06-.08-.08h.05s0-.03,0-.03h.08s.04-.04.06-.07c.01-.02.09-.13.1-.13,0,0,0-.02,0-.02-.07.04-.09.13-.16.18-.05-.06.06-.12.1-.17.03-.04.06-.09.1-.13-.03-.01-.03.03-.05.04,0,0-.02,0-.03.01,0,0,0,.01,0,.02-.02.06-.09.11-.14.14,0,.02-.09.16-.1.16l-.16-.15h0s0,0,0,0ZM22.5,9.64s.02.05.05.04c0,0,.01-.03.02-.04.04-.03.12-.05.13-.11,0-.02-.01-.05-.01-.06,0,0,.03-.03.05-.06s0-.06,0-.06c0,0,.02-.01.03-.02,0,0,.03-.14.02-.14-.02.01-.04.04-.05.02v-.03s-.02.04-.02.04h-.04c.1-.1-.05-.1-.11-.13.02-.03.04,0,.06,0,.01,0,.03-.02.05-.02l-.1-.05s-.12.14-.07.14c0-.05.06-.05.09-.03.01,0,.02.02.03.03.01,0,.03-.01.03,0,.03.02,0,.05,0,.07,0,.04,0,.08-.02.11h.02s0,.02-.01.03c0,.01.02.02.01.04,0,.03-.03.05,0,.09h-.02s-.02,0-.02,0c0,.04-.06.06-.03.09h0s-.01.01-.03.03c-.01.01-.03.02-.04.04v.02s-.03-.03-.04-.05c-.04-.04-.09-.08-.13-.12v.03s-.09-.08-.09-.08l-.07.08.07-.07c.08.05.12.13.16.22,0,.02,0,.01-.01.02-.05.03-.08.03-.13.03l.03.02h-.06s.04,0,.06.03c0,0,0-.03,0-.04,0,0,.05-.02.05-.02.01,0,.03.01.04.01.02,0,.09,0,.09,0,.03-.01-.04-.04-.05-.05-.01-.01-.04-.05-.05-.06,0-.02,0-.03,0-.03,0-.01-.03-.02-.02-.03l.08.07h-.02s.03.02.04.02h0s0,0,0,0ZM16.31,8.55c.2-.05.45-.11.64-.18.03,0,.14-.04.14-.07-.13-.02-.28.06-.41.09-.09.03-.19.05-.28.07-.03,0-.16.04-.18.05-.02,0-.02.04-.03.04,0,0-.01-.01-.03-.01-.01,0-.19.05-.2.06s-.01.02,0,.02.11-.01.13-.02c.06-.01.11-.05.16-.07,0,0,.02,0,.04,0h0ZM17.04,8.32s-.1.04-.14.05c-.03,0-.06.02-.1.02.07-.03.16-.07.24-.07ZM24.37,9.2s0-.11,0-.13c0-.04-.01-.09-.01-.12,0-.12,0-.23,0-.35l.08-.08s-.05.06-.08.03c.05-.02,0-.03,0-.04l.03-.04h-.04s0-.02,0-.02l-.07.05v-.03s-.04.02-.04.02c.01.02.01.07-.02.04,0,.03,0,.05.03.07v-.05c.05.08.05.17.04.26l-.02-.02v.03s-.04,0-.04,0h-.01s0,.03,0,.03h-.02s.03,0,.04,0c0,0,.02.05.05.06l-.03.05h.03s.01.05.02.07c0,.04-.01.14.02.17-.03.04,0,.07-.01.09,0,.02-.03.04-.03.05,0,0,.02.03.03.05,0,.03,0,.08,0,.11,0,.01-.01.03,0,.04,0-.06.01-.12.02-.18,0-.02,0-.05,0-.07,0-.01.02-.06.02-.07,0,0-.02,0-.02,0,0,0,.02-.01.02-.01h0,0ZM20.86,9.93c.03-.06.09-.09.05-.16l-.03.05v-.02s-.08.05-.08.05l.03-.04s-.04.02-.07.01l.04-.05s-.05.02-.07.03c-.01,0,0-.02,0-.04,0,0-.02,0-.03-.02,0-.01,0-.04-.04-.05l.04-.03s-.04,0-.06,0c0,0-.03,0-.06,0-.07,0-.14,0-.2.02,0,.03.16,0,.18,0,0,.04.03.08.07.1l-.04-.08h.05s.04.06.04.06l-.03.02.06.02c-.09.08-.19.16-.3.22-.01,0-.03,0-.05,0,0,0,0,.03-.02.04s-.08.04-.04.06l.51-.32s0,.02,0,.04c0,0,0,.05,0,.05-.01.03-.03,0-.03,0-.01.01-.03.03-.04.05l.03-.02v.02s.03-.02.03-.02v.05s.01-.05.03-.07h0ZM21.44,4.82s-.03-.05-.04-.08c-.09-.24-.15-.55-.22-.8-.05-.18-.07-.38-.12-.57-.01-.06-.05-.12-.04-.18-.04-.04-.04,0-.04.03,0,.05.05.19.03.23,0,.01-.01.02-.02.03,0,.02.03,0,.03,0,.03.02,0,.06,0,.06,0,0,.02.02.02.03,0,0,0,.06,0,.07.01.04.03.08.05.12.05.12.08.35.11.48.05.18.12.36.18.53,0,.01-.02.09.04.04h0ZM21.98,9.7l-.08-.05s.09.01.11,0c.13-.19.29-.37.42-.56.02-.03.03-.09.07-.09,0-.03-.04-.02-.03-.06h-.02s-.02-.01-.02-.01v-.06s.08.03.1.01v-.02s-.03.01-.03.01h-.01s0-.03,0-.03h-.05s0-.04-.03-.06l-.03.03.03.02-.03.02.04.03h-.03c.02.05,0,.04,0,.06,0,0,.02,0,.03.01.03.04,0,.1-.03.14-.02.03-.02.04-.03.05-.08.12-.2.23-.28.34-.02.03-.02.07-.03.07,0,0-.03,0-.04.02s-.01.03-.02.04c-.04.04-.1,0-.15.02.02.04.05.04.08.06v.04s.03-.04.03-.04h0s0,0,0,0ZM19.91,11.13c.08-.12.09-.24.21-.32.07-.1.14-.17.22-.26.12-.13.24-.26.34-.41.03-.04.06-.08.07-.12-.04,0-.04.05-.06.07-.02.03-.05.07-.07.09-.1.12-.24.31-.35.41-.02.02-.04.03-.06.04v-.02s-.03.03-.03.03h.03c-.05.07-.1.14-.17.2v-.02c-.08.05-.05.12-.08.19-.05.06-.1.13-.14.2,0,.01-.03.04-.02.05.03-.05.07-.09.1-.13h0ZM19.56,9.69s.03-.01.02-.02c-.16.08-.32.15-.48.21-.01,0-.03.02-.03.02s0-.02-.02-.03c-.03-.02-.08,0-.11.01-.11.01-.23.03-.34.04h0s.05.02.05.02c0,.02-.11.03-.12.02-.02,0-.02-.03-.03-.03-.02,0-.28.02-.32.03-.02,0-.15.02-.15.03.02.01.07.01.1,0,.08,0,.17-.03.25-.04.12,0,.21,0,.33,0,.14-.01.3-.02.43-.07.01,0,.06,0,.07-.02h.01s0-.03,0-.03c0-.02.3-.13.34-.16h0s0,0,0,0h0ZM22.89,10.36c-.03-.21-.1-.41-.11-.62-.04,0-.07.03-.12.01l.07-.04h-.04s.04-.09-.01-.07c-.04,0-.07.06-.1.08h.03s.02,0,.02,0c0,.03,0,.05-.03.07l.07.02v.05s.04.01.04.01v-.02s0-.02,0-.02h-.03s-.03-.04-.06-.04c0-.02.04-.03.05-.02l.08.06c0,.06.03.12.04.18,0,.02,0,.03,0,.06.01.07.08.13,0,.19,0,0,.06.03.07.03,0,0,0,.01,0,.02,0,.01.02.02.02.03,0,0,0,.02,0,.02,0,.01.02,0,.03,0h0ZM22.52,8.77h.01s0-.03,0-.03l.03-.02h-.02s-.02-.02-.02-.02l-.03.06h-.04s0-.04,0-.04l-.06-.02s.02-.04.05-.04l-.05-.06h-.04s.05-.04.09-.02c.02-.02-.03-.02-.03-.03,0,0,.03-.02.01-.03-.05.04-.1.05-.15.06h0s.01.02.01.02h-.04s.02.04.02.04h.03s-.02.01-.02.01l.04.03v-.02s.03,0,.03,0c-.05.03,0,.07-.02.1-.02.03-.05,0-.06.03.03,0,.07,0,.09-.03h.03s-.03.06,0,.07l.05-.06h-.04s.01-.05.01-.05c-.03,0-.05-.09-.03-.09.02.02.01.05.02.06,0,0,.08.08.08.08.01,0,.03,0,.04,0,0,0,.01.02.04,0h0s0,0,0,0h0ZM21.36,10s.02.03.03.02c.02-.03-.11-.14-.13-.17,0-.05.11.05.12.06v-.03l-.1-.09h.03s.02-.01.02-.01c-.01-.04-.05,0-.08,0l.04.05-.03-.02v.02s-.04-.03-.04-.03h.03c-.05-.05-.03.01-.03.02-.01.03-.03,0-.05,0-.02,0-.02.06-.06.01l.04-.02h-.04s-.01-.02-.01-.02c-.02.06-.02.02-.04.02,0,0-.02.02-.03.02h.02s0,0,0,0h.06s-.01.06-.01.06c0,.03.15.01.17-.02.05.02.06.07.1.11h0,0s0,0,0,0ZM24.62,1.69c.02-.23.02-.46.03-.68,0-.17.04-.39.02-.55,0-.01,0-.03-.01-.04-.03,0-.02.14-.02.16,0,0-.02.01,0,.04h-.02s.03.04.03.04c-.04.03-.02.05-.02.08-.01.08-.01.21,0,.29,0,.05,0,.06,0,.11-.01.19.01.37-.02.56v.13s.03-.09.03-.13h0s0,0,0,0ZM20.35,9.37s.09,0,.1-.05h-.07s0-.04,0-.04c-.03.05-.08.07-.14.09s-.11.02-.16.06l-.03-.02s-.04.03-.07.04l.04.02-.03.04.13-.05.02.02c.02-.06.06-.05.1-.09.05.08.08,0,.1-.02h0,0ZM22.89,8.6s.01-.02.02-.03c.01,0,.04,0,.05-.02h-.05s.05-.06.05-.06h-.02s0-.03,0-.03c-.03.05-.04.08-.11.06.02.06,0,.03-.03.07h.03s-.03.01-.03.02c0,.01,0,.03-.01.04-.01.02-.06.03-.06.04,0,.01.01.03,0,.05l-.09.11s.05-.03.06-.04c0,0,.02,0,.02,0,0,0,.02-.05.03-.07,0,0,0-.02,0-.02,0-.02.07,0,.06-.05h-.02s.01-.02.03-.03v.02s.05-.05.08-.07h0ZM18.72,6.25s-.02-.12-.04-.17c0-.02,0,0-.01,0-.01.01-.04.06-.06.02l.06-.06s-.03-.07-.05-.1c-.03-.05-.1-.1-.14-.15l.04.08h-.04s.09.04.09.04l.05.13v.02s-.06.03-.06.03c.02.02.04.03.06.05.01.02,0,.03,0,.04.05-.04.04.06.09.07h0ZM22.4,9.91s.13.13.14.17c0,0,.04,0,.04,0,0,0-.04-.07-.04-.08,0,0-.02,0-.03,0-.02-.01-.01-.06-.06-.06.01-.03.04,0,.05,0l.02-.04s-.01,0-.05,0c.03-.02,0-.03,0-.05l.03.03s-.01-.04.02-.05c0,0,.04.03.05.02l-.04-.04h.03s-.07-.04-.05.02c-.03,0-.04.01-.07.02,0,0-.02,0-.03,0-.01,0-.02.03-.03.03,0,0-.07-.02-.08-.02-.02,0-.03-.03-.06-.04-.02-.01-.04-.05-.06-.02.05,0,.04.03.05.05s.06,0,.08.02c.02.01.04.05.05.05,0,0,.02-.02.03-.02h0s0,0,0,0ZM24.27,10.3s.04-.06.02-.1c-.01.03-.01.05-.05.06-.01-.03,0-.04,0-.06,0,0,0-.02,0-.03,0-.02.02-.06.02-.06s-.04-.04-.03-.06c.02-.04.03.02.05-.01-.08-.03-.01-.07-.01-.07,0,0-.02-.03-.02-.04s.02-.03.03-.05c0-.02,0-.07.05-.05h0s.01-.09,0-.09l-.03.02c-.05-.05-.02.01-.02.02,0,.01-.02.02-.03.04,0,.01.01.03,0,.05,0,.03-.08.06-.04.11v.13s.02.02.02.02c-.03.02-.02.05-.02.08,0,.01-.01.02-.01.03l.05.06h0ZM23.74,13.05c.06,0,.07.03.1.06,0,0,.02.03.03.01-.02-.03-.06-.07-.08-.1-.01-.02.02-.08-.04-.08v-.04c-.06,0-.07-.06-.11-.1,0,.06.07.11.09.17l-.06.07s.04,0,.07,0h0ZM20.56,6.22s-.02,0-.04,0c-.07,0-.12.01-.2,0,0,0-.03,0-.05,0h0s0-.02,0-.02h-.02s-.02.05-.04.07c-.06.03-.16,0-.22.01,0,0-.12.05-.12.06.03.02.04.03.07,0,0,0,.02.02.04.02.02,0,.09-.01.09-.03h-.1s-.02-.02-.02-.02c0,0,.05-.02.06-.02.02,0,.09.01.11.01.02,0,.05-.02.07-.02.01.01-.08.03-.03.04l.05-.02v-.03s.04-.03.06-.04.03.04.03,0v.06s.26-.07.26-.07h0s0,0,0,0ZM18.26,7.55c.06,0,.13-.05.19-.06.1-.02.22,0,.31-.07-.12.02-.28.02-.39.06-.02,0-.04.03-.05.03s-.03-.01-.04-.01c0,0-.04.02-.04.03,0,0,.01.02.02.02h0ZM21.65,9.52s.09-.04.12-.07c.05-.04.11-.1.15-.15l-.07.03s0,.02,0,.03c0,0-.1.09-.1.07v-.02s-.02.03-.02.04c0,.01-.06.03-.08.05-.03.03-.04.08-.09.1-.02,0-.25.02-.25,0l.04-.04.02.02s.04-.02.05-.02c.01,0,.02-.03.04-.04.04-.02.15-.04.15-.08h-.02s.1-.04.12-.11h-.03c0-.07.04-.07.08-.09l-.03-.04-.04.02v-.02s-.04.06-.04.06h.02s0,.05,0,.08c-.02.09-.15.1-.22.13l.02.02s-.15.09-.09.03c.01-.02.03-.01.01-.05-.04.01-.05.08-.06.09-.01.02-.06.02-.06.03-.02.03.08.04.08.08l-.03.02.02.02-.02.03.02.02.04-.03-.02-.03.03-.02.04.03v-.04s.04,0,.05-.01c.02,0,.08-.03.1-.03.02,0,.04,0,.05.01.01,0,0-.01-.01-.03,0-.02.03-.08.04-.09h0s0,0,0,0ZM20.41,10.65s.02-.04.03-.06c.05-.06.1-.11.15-.17.06-.07.11-.18.19-.25l.03-.07c-.04.06-.09.12-.14.17-.06.08-.13.17-.19.26-.05.07-.08.1-.14.15,0,0-.04.04-.03.05.02-.06.08-.05.11-.08h0ZM22.09,7.55h-.02s.09-.11.09-.11c-.01,0-.02-.02-.03-.02-.03,0-.13.08-.15.1,0,0,0,.05,0,.05,0,0,.06.03.02.06-.03-.03-.02-.07-.07-.06v.08s.05-.02.05-.02l.02.02s.02-.06.04-.1c0,0,.01,0,.01,0,.02,0,.03-.01.05-.02h0s0,0,0,0ZM17.15,10.02s.02.03.04.02c.04,0,.05-.04.1,0,.03,0,.01-.02.02-.03,0,0,.06,0,.06-.01l-.09-.03-.25.03s.02.02.03.02c.02,0,.05-.01.08,0h0ZM21.55,9.23c.07.03.06-.02.08-.05.02-.02.05-.05.06-.07.03-.05.03-.09.05-.14v-.15s-.03,0-.03,0c.03.04,0,.17-.02.2h-.02s-.03.12-.06.15c0,0-.04.04-.05.02,0-.03.02-.06.01-.08,0-.02-.04-.03.02-.07l-.02-.02.03-.04s-.04.06-.05.06v-.03s-.05.06-.05.06h.05s0,.07-.02.08c0,0-.03,0-.03.01l.02.03.02-.03v.06h0s0,0,0,0ZM19.86,9.54s.1-.07.14-.06l-.03-.02v-.02s-.06.05-.07.05c0,0-.02-.01-.03-.01-.02,0-.12.06-.14.08,0,0,0,.02,0,.03-.01.01-.07.03-.08.06l.08-.02-.04.05s.07-.03.1-.04c0,0,0-.01.02,0,0-.02-.03-.05-.05-.04v-.03s.03-.05.07-.05c0,0,.02.02.04.02h0ZM22.03,9.74s0,.02,0,.03c.04.02.07,0,.11,0,.05,0,.08.02.12-.03l-.2-.02s.04-.01.05-.03c0,0,0-.03.01-.04.01-.02.04-.03.06-.05,0,0,.03-.05.03-.06l-.17.2h0ZM20.05,9.71c0-.09-.13-.04-.18-.05l-.03.04s.04-.02.05-.02c0,0,.07.08.09.01v.06s.08-.04.08-.04h0ZM20.9,9.75l-.06-.04.02-.03h-.04s.07-.01.07-.05c-.04-.04.03-.05,0-.09h.03s-.07-.06-.06-.1h-.04c.08.04.03.06.03.08,0,.01.02.03.02.03,0,.01-.03.02-.04.03,0,0,.02.06-.02.08-.02-.02-.08-.01-.08.02,0,.02.04,0,.04.02,0,.03-.03,0-.03.01.04.03.09.02.11.07l.04-.04h0,0ZM24.29,11.75c0-.12.02-.24,0-.36-.01.01-.01.03-.01.05,0,.08,0,.2,0,.28,0,.01,0,.09.01.09s.01-.04.01-.05h0ZM22.1,9.09l.04.03s-.04.05-.07.06v-.05s0,.03-.01.03c0,.02-.04,0-.05.03h.04s0,.03,0,.03c.04-.05.1-.04.13-.11l-.06-.07-.03.04v-.03s-.03.03-.03.03c.04.02-.01.04.01.05.01-.01.03-.03.04-.04h0ZM20.99,9.84s.04-.03,0-.05c-.01.02-.04.03-.05.05,0,0,.01.01,0,.03-.02.03-.07.06-.06.09h.02s0-.03,0-.03l.04-.03s.03,0,.06.03c.03-.04.03-.08-.02-.1h0ZM19.09,6.46v-.03s.01-.02.01-.02h-.2s.06.06.08.06c0,0,.03-.01.05-.02.02,0,.05,0,.07,0h0ZM22.45,9.81s-.02-.03-.03-.03c0,0-.1.01-.11.01-.01,0-.02,0-.02.02.02,0,.03.03.05.04,0,0,.01,0,.02,0,0,0,.03.02.04.02l.06-.05h0ZM17.62,10.02s.03-.01.04-.01c.02,0,.16,0,.16-.02l-.13-.02s-.09,0-.14.03c0,0,.07.03.07.03h0ZM21.86,9.62s-.02-.04-.02-.07h-.03s.04-.04.05-.06c0,0,0-.01,0-.02,0-.01.03-.02.01-.03l-.06.04h.04s-.08.09-.08.09c.01.02.05.01.06.03.01.01,0,.04.02.05l.02-.03h0s0,0,0,0ZM22.23,11.87c-.01-.1-.06-.2-.11-.3,0,.1.07.2.11.3ZM21.4,9.38s.05-.02.06-.03c.02-.02.04-.06.06-.08l-.06-.06-.02.03h.05c.01.07-.03.06-.06.08,0,0,0,.02-.02.03,0,0-.03,0-.05.02-.02,0-.02.04-.04.03l.04-.06-.05.05v.02s-.03,0-.04.02v.03s.07-.02.08-.03c0,0,.03-.04.05-.06h0ZM22.58,9v-.03s.05-.08.05-.08l-.02-.02s-.05.04-.06.04c-.02,0-.03-.03-.05-.01l.08.1h0ZM22.29,8.91s-.06.03-.09.05v-.02s-.02-.01-.02-.01c-.01,0,0,.01,0,.02,0,0-.02,0-.03.02,0,.01-.01.03-.02.04,0,0-.04-.02-.03.02h.05s0-.02,0-.02l.07-.06s-.01.03-.02.05c0,.02.02.05-.02.07h-.03s.03.01.03.01c.01-.02.03-.03.04-.05,0-.02,0-.03,0-.03,0-.02.09-.02.06-.08h0s0,0,0,0ZM24.66.39s.02-.1.02-.14c0-.04,0-.09,0-.14,0-.05.04-.11.04-.16,0-.01,0-.03-.01-.04,0,0-.03.13-.03.15s0,.09,0,.09c0,.01-.03.03-.03.04,0,.04,0,.12,0,.16,0,0,0,.02,0,.02h.02s0,0,0,0h0ZM21.82,9.23s-.08.08-.02.11l.02-.02h-.03s.02-.04.02-.04c.04.07.07-.04,0-.05h0ZM18.97,7.37s-.19.03-.19.05c0,0,.02,0,.03,0,.04,0,.13-.02.16-.05h0ZM20.67,9.18v-.03s-.06.01-.06.01c-.02,0-.03.04-.08.03-.05.03,0,.06.02.04.01-.01.01-.03.03-.04,0,0,.06,0,.06,0,0,0,.01,0,.02-.02h0ZM21.66,8.13l.08.03s-.09-.08-.14-.11c-.01,0-.03-.02-.04-.01l.11.08h0ZM20.66,7.82s.01,0,0-.01c-.07,0-.15,0-.21.03.03,0,.09,0,.12,0,0,0,.08-.02.08-.02h0ZM19.77,11.39l.05-.11s-.03.05-.05.07c-.01.01-.02,0-.03,0-.01,0-.04.04-.02.05.01,0,.02-.01.02-.01,0,0,.01,0,.02,0h0ZM24.14,13.48l-.13-.18-.04-.03.17.21h0ZM22.18,8.24s-.12-.03-.13-.04c0,0-.02,0-.01,0v.03s.03,0,.04,0c.03,0,.08.03.1,0h0ZM19.6,9.7s-.04,0-.06.01c-.05.02-.1.05-.15.08.07-.01.14-.06.21-.09h0ZM21.57,7.63s-.07,0-.1.02c0,0,0,.03.01.03,0,0,.09-.03.09-.05h0ZM8.49,21.48s-.08.05-.12.09v.05s.07-.03.07-.03l-.12.11.11-.04-.06.07h-.04s-.02.02-.02.02h.06s-.06.02-.08,0v.09s-.06.01-.06.01c-.03.02.07.08.09.09.05.03.05.03.09.07.02.01.13.06.16.07,0,0,.05.02.05.02.02,0,.03-.06.09-.02.02.01-.02.04-.02.06l.02.02c-.05.01-.08-.02-.12-.04-.09-.03-.2-.07-.29-.09-.02,0-.11-.02-.11,0v.02s-.05,0-.05,0l-.02.04.03-.09s-.03-.03-.07-.02c.02-.04.05-.09.03-.13h0c.06.02.02-.06.07-.06l-.03.07.07-.02s-.02-.06,0-.06c0-.02-.05-.02-.06-.02-.02.01-.03.05-.07.05v.02s-.06-.04-.06-.04c.02-.04.05-.02.09-.07,0,0,.05,0,.05,0,.01,0,.03-.02.04-.03.04-.01.09,0,.08-.07l-.04.03c.03-.05.07-.11.12-.14.02-.02.06-.02.09-.03h0ZM8.29,21.97s.03,0,.02-.02c-.03-.06-.08-.02-.13-.04,0,0-.04.01-.04.02,0,0,.04.01.05.01.01,0,.02-.01.04,0,.02,0,.03.03.05.03h0ZM8.16,21.71s0-.04-.02-.05c0,0-.02,0-.02.02-.06.06-.11.15-.16.21-.02.02-.04.01-.06.03s-.09.12-.1.12l-.02-.03-.02.03s0-.04-.03-.06c-.02.02-.07,0-.09.01-.02,0-.03.03-.05.02v-.03s-.04.08-.08.12v.03s.03-.02.03-.02l.04.03-.03.03h.03s-.05,0-.05,0c.02,0,.03.05.05.05,0,0,.01,0,.02,0,.01,0,.02.02.03.02,0,0,.02-.01.03,0,.02,0,.01.03.02.05,0,0,.1.08.1.05-.07-.04-.15-.09-.07-.17v.05s.09-.04.09-.04c0,0-.04.07,0,.08l.02-.06v.04s.05-.04.05-.04h.03s-.02,0-.04.03v.02s0,0,0,0c-.02.08-.04.03-.06.04,0,0-.07.03-.07.03l.03.03v-.03s.07.07.07.07c0-.02,0-.03,0-.05,0-.05.03-.02.04-.03,0-.01,0-.04.03-.03,0,.05-.02.05-.05.07v.03c.07-.07.16-.1.22-.18.01,0-.13.18-.14.2s0,.05-.03.06c.01.01.03.02,0,.03l-.08-.06-.06.04-.04-.04-.02.04h-.03s0,.03,0,.03l-.02-.03-.04.07c0-.06.07-.1.02-.16l-.03.04-.03-.03.04-.02s-.05-.05,0-.07c-.06,0-.02-.05-.06-.07,0,.04-.05.07-.08.1l.02.02s-.02.09-.05.05l.03-.04h-.04s.04-.08.04-.08h.02s0-.04.01-.05c0,0,.01.02.03-.02h-.09c-.05,0-.02.11-.09.08.04-.03.03-.04.04-.07,0-.02.03-.03.02-.06-.02-.03-.15-.07-.15-.09.03-.04.08-.02.11-.03.02,0,.04-.01.06-.02.03,0,.07.02.1,0s.03-.05.05-.07.04,0,.06-.02l-.02.04s.01-.01.03,0,.02.02.03.03c0,0,.07-.03.07-.04.02-.02.06-.07.03-.08,0,.05-.09.07-.04.02l-.04-.05v.05s-.07-.02-.07-.02l-.03.08s-.01-.07-.02-.08c-.01-.01-.03-.01-.03,0h-.09s0-.03,0-.03l-.1-.02v-.02s-.04.04-.04.04c-.03,0,0-.05,0-.05,0,0,.07,0,.07.01,0-.03.11-.05.12-.03v.05s.05,0,.06,0c0,0,.11-.13.12-.13.02-.04-.02-.04-.02-.04.01-.02.03,0,.04-.02.02-.02,0-.04.05-.04v.02s-.01.05-.03.07c-.03.04-.1.08-.13.13l.18-.09s.02-.04.03-.05c0,0,.09-.03.09-.03.03.01-.02.02-.03.03,0,0-.02.02-.03.03-.02,0-.02-.03-.04,0l.03.03-.1.09s.03,0,.04-.01.03-.05.04-.04l-.1.13s0,.01,0,.01c.02,0,.02,0,.05,0,.03.01,0,.03.06,0v.02c.09,0,.05-.07.1-.12v.04s.08-.06.02-.03c0-.02.01-.04.01-.05,0-.05,0-.02,0-.07,0-.03,0-.06.02-.09-.03-.03-.05.03-.07.05v-.02s-.02,0-.02,0l.04-.05h-.04s.03-.03.03-.03c.03,0,.07.06.08.03l-.03.2h.02s.02-.03.02-.04c0,0-.02-.02,0-.05.03-.03.07.01.06-.05l-.03.02.09-.16h-.04c.03-.08.02-.01.03-.01.02-.04.07,0,.08-.03.02-.05-.08,0-.1,0-.05,0-.05,0-.1.01,0,0-.01.01-.02.02l-.04-.07s.06,0,.07-.01c.02,0,.04-.05.07-.05.02.04-.06.06-.03.09.02-.03.04-.02.07-.03,0,0,.02-.02.02-.02,0,0,.02.02.04.03,0,0,.05-.01.07,0v.02s.02,0,.02,0l.02-.02v.04s.04-.06.04-.06l-.03-.04c.06.03.15.01.22,0,.06-.02.07-.05.14-.05.08,0,.04,0,.08-.02,0,0,.06,0,.08,0,.35-.06.73-.2,1.09-.29.15-.04.3-.07.45-.09,0,.02-.04.02-.06.02-.04,0-.08.03-.12.04-.41.1-.81.21-1.2.31-.07.02-.25.04-.29.09-.03.04-.05.09-.09.13-.04.05-.11.09-.16.13-.01,0,0-.02.02-.03.08-.07.17-.13.22-.23l-.07.04v-.03c-.08.03-.12.07-.18.11,0,0,.02-.02.03-.03.03-.02.07-.04.09-.07v-.02s-.22.05-.22.05c-.08.09-.15.21-.24.3h0s0,0,0,0h0ZM7.7,22.4l.08-.03-.05-.04c-.01.05-.03,0-.06.04h.02s.01.03.01.03ZM8.24,21.61s.09-.1.11-.14c0-.01.01-.03,0-.03-.02-.01-.07.07-.09.09,0,.01,0,.03-.01.04,0,0-.11.1-.07.1.03,0,.05-.04.06-.06h0ZM8.18,21.62s.02-.04.03-.05c0,0,.03-.02.03-.02,0,0-.02,0-.02-.02s.03-.06.02-.07c-.04,0-.03.04-.04.06,0,.02-.02.04-.03.06h.03s-.04.03-.04.03l.03.03h0,0ZM7.49,22.14l.04-.08s-.1.01-.11.03c-.01-.03-.07-.01-.1-.01.03.02.06.04.09.05.03,0,.06,0,.07.02h0ZM7.49,21.84l.03-.02-.04-.06s-.02.08,0,.08ZM6.09,23.05s-.06-.02-.08-.06c0,.03.02.07-.02.09h.02s-.11.13-.11.13v.06s-.03-.02-.02-.04h-.05c.09-.1,0-.06-.04-.11l-.04.05h.05s-.03.04-.03.04c-.04-.02-.03.02-.04.04,0,.01-.06.01-.07.04h.07s0,.02,0,.02l.03-.03s.05.02.05.02c.05.05.03.07,0,.12.05,0,.06-.08.05-.11l.06-.06-.02-.02.05-.06v.03s-.04.02-.02.04c.02-.03.04-.02.06,0v-.03s.05.04.06,0c.01-.04-.05-.04-.03-.09,0-.03.03-.02.05-.03,0,0,0-.03.01-.04h-.02s0,0,0,0h0s0,0,0,0ZM6.05,22.96s.03.03.06.02c0,0,0-.04.03-.03.03.02.02.1-.03.08,0,.01,0,.02,0,.03l.03-.02c-.01.07.03.07.08.03l-.06.02s.06-.15.08-.16h-.05s-.02-.01-.02-.01l.06-.04s-.03-.03,0-.05c0,0,.02,0,.02,0,0,0-.02.02,0,.02.02,0,0-.02.01-.03.04-.02.06.04.08.04.03,0,0-.04,0-.04,0-.04.02.01.04,0-.01-.02-.08-.03-.08-.06,0-.01.03-.02.01-.03l-.07.03s-.02-.04-.05-.05c0,0-.02,0-.02,0-.04-.02.01-.04.02-.04v.02s.04-.03.04-.03c.02.03.03,0,.06,0h.01s-.01-.04-.01-.04h.04s-.02,0-.02,0l.02.02-.03.02.02.02s.04-.04.07-.03c0,0-.02-.03,0-.05.02.01.05,0,.06-.01l.02.02h-.04s0,.06,0,.06l.02-.02s.07,0,.1.04c-.02,0-.05,0-.07,0-.03,0-.04,0-.06,0-.03,0-.05-.03-.07.02l.04.03s.04-.01.02.02c-.02.02-.03.05-.03.06,0,0-.02,0-.02,0-.05.02.02.07.05.05-.02.05.02.05.03.07,0,0,0,.01,0,.02,0,0,.01,0,.01,0,0,0-.02.01,0,.02.02-.02.05-.07.05-.09,0-.02-.02-.03-.02-.03,0,0,.03-.01.02-.03-.03.01-.03.04-.07,0l.07-.1h-.02s.01-.03.01-.03l.05.05.03-.05s-.03.03,0,.04c.02,0,.04-.03.06.01l.02-.02.02.03.03-.07s-.06.04-.07,0l.02-.08-.04.04-.04-.03.06-.07s0,.02,0,.03c0,.02.04.04.05,0,0,0-.04.02-.02-.02,0-.02.02,0,.03,0v-.03s-.01,0-.01,0c.05-.01,0-.07-.03-.07-.01,0-.05.02-.04.04.02.03.03-.05.04-.02v.03s.02,0,.02,0v.03s-.06-.03-.06-.03l-.03.04v-.04s-.05,0-.05,0l-.02-.04s-.06.02-.07.03c0,0,0,.03-.02.03s-.03-.01-.04-.01c-.02,0-.04.03-.06.03v-.04s-.06.04-.08.06c-.02.01-.03.03-.07.04-.01,0-.03,0-.05,0l.04-.06h-.02s-.01-.02-.01-.02c-.03.03-.07,0-.07.06v-.04c-.06.03,0,.08-.05.09-.02-.09.07-.12.11-.19-.02-.03-.04.02-.05.04h-.02s0,0-.02-.04c-.02-.04.02-.06.05-.08h-.03s.03-.05.04-.05c.01,0,.02.02.03-.02l-.06-.02.06-.03h-.04s0-.05,0-.05c.02-.02.04.02.06.02l.02-.04s.03.03.05.02c-.05-.03,0-.05,0-.09,0-.02-.01-.04.02-.07l.03.04.04-.03-.02-.03v-.02s-.02,0-.02,0c.01-.04.04-.02.05-.02,0,0,.01-.02.02-.03,0,0,.03.02.04-.04-.02-.03-.04-.01-.05-.01s-.02-.02-.03-.02-.04.03-.07,0l.03.05h-.05s.05.02.02.05l-.03-.05c-.02.06-.02.02-.04.02-.01,0-.03,0-.05,0v.02s-.07.07-.07.07h.02s0,.03,0,.03h-.02s-.02.02-.02.02c.06.02.04.04.05.09h-.04s-.03.05-.03.05h-.03c.06.04-.01.09-.02.04,0-.03.04-.05,0-.07l-.04.03.03.07c-.05-.01-.03-.08-.07-.1l-.06.05h.02s0,.09-.06.11h.04v.03s.02,0,.02,0c-.02.04-.04.05,0,.06v-.03s.04.02.04.02c0,0,.01-.02.02,0l-.04.03c.08.04.02.08.03.1,0,0,.02.02.02.04,0,0-.02.02-.03.04,0,.01,0,.03-.01.05.03,0,.03-.04.04-.06.02-.03.06-.04.08-.07l.02.03s-.06.03-.08.06c.01.01.02-.02.04-.02,0,0,.06,0,.06.01l-.03.03s.03,0,.05.02c0,0-.06.04-.04.06l.05-.05v.03h.03s.02.04.02.04l.02-.05s.02,0,.03.02l.02-.04.03.02c0,.06-.06.04-.06.1,0,0-.06-.05-.04,0h-.05s0,.01,0,.01h-.02s-.02.03-.02.05l.04-.04h0s0,0,0,0ZM4.15,21.72s.05-.11.07-.14h.03s-.02.04-.02.04h.02s.02.06.02.06c0,.04-.06.05-.06.1-.03,0,.02-.1.02-.11-.02-.01-.03.04-.04.06,0,0-.02.01-.02.01h.01s-.02.04-.02.04l.09.04.03-.04v.04s.03-.06.07-.07l-.02-.03h-.02s.02-.02.02-.02h-.03s.01-.02,0-.02c-.01-.05-.06-.12-.08-.17-.04-.11-.09-.27-.11-.39,0-.02,0-.04,0-.05,0-.02-.03-.03-.03-.05.02-.03.1.02.14,0,.01,0,.03-.02.05-.03.09-.04.19-.07.28-.12l.04.05.02-.02h-.03c.05-.07.13-.14.21-.12.02-.05.07-.06.07-.11,0-.03-.08,0-.02-.09,0-.02.02-.03.04-.04l-.04.08s.04.05.03,0c0,0,.04.02.05-.02,0,0-.03-.03,0-.05.02-.02.03.02.03.02,0,0,0-.01.01-.02,0,0,.02,0,.03-.01-.05,0-.09,0-.11-.06,0,0-.01.02-.02.02-.01-.02-.03-.03-.05-.04,0,0,.01,0,.02,0h0s-.04-.09-.06-.06l-.02-.02h.02s-.16-.15-.16-.15c0,0,0-.02,0-.04-.01-.06-.04-.02-.06-.02-.04-.01-.11-.08-.07-.13-.04-.04-.06.02-.1-.01v-.02s-.03-.02-.04-.03c-.01-.01-.08-.03-.06,0,.04.04.1.07.12.12v-.03c.06.03.09.06.12.12,0,0,0,.02,0,.02.01.02.09.06.12.08.06.05.11.11.17.17h-.01s.03.04.03.04c-.02.02-.04.03-.06.05-.04.03.03.02.03.02.03-.02.03-.04.04-.06,0,0,0,.01.03,0,0,0,0,.02.01.03-.01,0-.08.06-.08.07,0,.02.02.06,0,.09,0,.01-.08.07-.1.08-.06.04-.15.05-.23.07-.13.05-.25.11-.38.15-.02,0-.05-.01-.08.02l.19.58s-.09.12-.09.18c-.03,0-.06-.02-.09-.03-.02,0-.03-.01-.04-.02-.07-.03-.16-.07-.23-.09-.02,0-.02-.02-.03,0,.07.02.13.06.19.1.02.01.14.09.15.1,0,0,0,.03,0,.04.03.1.04.18.05.29,0,.03-.02.06.02.09l.03-.02-.03-.04v-.07s.12.14.05.19c0,0-.02,0-.02,0v.03s-.03-.03-.03-.03l-.07.05-.02-.02s-.03,0-.05.04l.03.04s.03-.03.05-.06c.02.05.04,0,.06-.03,0,.04.02.02.03.04,0,0,.04.06.02.06l-.02-.02h-.02s.01-.02,0-.03l-.08.02v.02s-.07.02-.11,0c.03-.02.02-.02.02-.05l-.08.08.1.02c.05.04.12.09.19.06l.18.07-.19-.11.02.03s-.1-.04-.1-.04v.02s-.03-.02-.03-.02v-.02c.05-.02.06.02.08.02.01,0,.03-.01.05,0v-.02s.04-.02.04-.02v-.06s-.03-.01-.03-.01c.06-.04.03-.03.04-.07,0,0,.03-.02.03-.03,0,0,0-.05,0-.07l-.02.03-.02-.02.06-.07s-.06-.08-.06-.13c0-.03.02-.05,0-.07,0,0-.04-.05-.05-.03.07.04,0,.06,0,.12.05-.07.03,0,.04.02.01.03.03.07.04.1l-.03.03v-.03h-.02s0,.03,0,.03c-.02-.04-.04-.07-.06-.1s-.06-.14-.07-.17c0-.01.01-.02.01-.02,0,0-.02-.04-.03-.05l.03.02v-.04s.04.02.04.02c0,0,.01-.03.02-.04,0,0-.01,0-.02,0h0s0,0,0,0h0ZM6.64,21.92c-.04.06-.13.07-.16.14-.01-.02.01-.07.02-.08.01-.02.04.01.05-.01-.02-.08-.04-.07-.11-.05v.06s-.06,0-.06,0l.02-.05h-.02s-.02-.02-.02-.02h-.01s-.08,0-.03-.03v.03s.1,0,.15-.03c0,0-.03.05.03.01l-.02-.02s.05-.12.11-.08h-.02s.02.03.02.03c-.02.04-.07,0-.06.05.03,0,.1-.04.12-.04.05,0,.05.07.1-.04h.04s.03-.03.03-.03c-.06.01-.05-.04-.09-.08l.03-.02s-.01-.02-.01-.03c0-.06.03-.12.02-.18v.02s.03,0,.03,0v.03s.05-.07.07-.11c.03.03,0,.06-.02.08l.06-.02c.08-.11.18-.21.26-.32.03-.04.08-.14.11-.16.02-.01.04-.01.05-.02.03-.04.04-.09.06-.13.06-.13.17-.22.26-.33.08-.1.18-.23.25-.32.03-.04.05-.11.07-.14.02-.03.06-.05.09-.07.12-.13.24-.28.35-.42l.22-.23s0,.02-.02.03c-.07.09-.16.17-.23.25-.11.12-.21.25-.32.37-.1.11-.16.21-.25.32-.1.14-.23.27-.34.42-.05.08-.08.18-.14.24-.09.09-.16.18-.23.28-.01.02-.02.05-.02.05,0,0-.03,0-.05.02,0,0,0,.05-.02.07h-.02s0,.03-.02.04c-.02.03-.07.03-.06.08h-.03s-.02.01-.02.01c.02.04,0,.08.01.11.01-.04.04-.06.07-.08,0,0,.02-.07.05-.03.01.02,0,.05-.01.07l-.03-.03s.01.02,0,.03c-.02.03-.05.01-.07.03l.04.04.03-.06h.07s0-.01,0-.03c.02.05.05.04.09,0l-.03-.02s.05-.04.08-.06c0,0,.06-.05.07-.02,0,0-.01.03-.02.02-.02,0-.05.04-.08.06h.03s0,.02,0,.02l-.19.13.03.02v.04s-.02,0-.02,0h-.01s-.02.06.03.07c0,0-.06.04-.06.04-.01,0-.02-.02-.04-.02-.01,0-.03.02-.04.02l.03-.04-.07.02-.04.08.04.03-.03-.02s0,.02,0,.04c0,.03-.02.02-.04.03.01-.06-.06-.05-.1-.04-.03,0-.02.01-.05.01.02-.02,0-.03,0-.06-.04.07-.02.03-.05.03-.02,0-.03.04-.02.05.03,0,.03-.03.07-.02h0s0,0,0,0ZM6.8,21.91l.05-.08h-.03s0-.03,0-.03l-.02.02s0,.05-.03.07l.03.03h0ZM6.91,21.71l.06-.02s-.05-.04-.05-.08l-.13.06.05.02v.02s.03-.02.07-.03v.02h0s0,0,0,0ZM13.19,20.14s-.08,0-.11.02c-.17.06-.34.13-.51.18-.05.01-.17.05-.22.06-.02,0-.04-.01-.05-.01,0,0-.01.03-.03.04-.02.01-.16.03-.2.04-.28.08-.55.18-.83.22l-.43.12s.19-.03.21-.04c.36-.06.72-.15,1.07-.27.14-.05.3-.08.45-.12.07-.02.14-.04.2-.06.05-.01.19-.07.25-.09.03-.01.19-.07.19-.1h0s0,0,0,0ZM7.54,22.48l-.02.03h-.02c-.03-.06-.02,0-.06,0l.03-.04s-.05.05-.07.08c-.03-.02,0-.03,0-.07,0-.02-.02-.03-.03-.04l.02-.03-.07-.04.02-.06h-.05s.02.02.02.02l-.04.05.06.07-.05.09.04-.02s-.08.11-.1.11l-.04-.06s.02.03.01.05c-.04.01,0,.05-.03.04,0,0-.02,0-.02-.01l-.03.04s.02-.09,0-.05c-.03.05-.07.1-.1.15l.09-.04-.04.06h.03s-.07.09-.05.12l-.02.04.06-.05h-.02s.02-.03.02-.03v.02s.08-.07.09-.09c0-.01,0-.03.02-.05.02-.03.05,0,.06-.02.02-.01.07-.09.09-.12.04-.04.09-.07.14-.1h.01s0,.03,0,.03c.02-.02.07-.04.05-.08h0s0,0,0,0h0ZM7.64,20.98s-.05.03-.07.06l.04.02-.02.05s.03.01.03.04l.04-.02v.05s.04,0,.04,0c-.02,0,0,.03,0,.03s-.06.02-.04.04c.01,0,.05-.04.07-.02v.03s-.03,0-.03,0v.02s-.03,0-.03,0h0s.02.07.02.07h-.02s.05.07.05.07c.04-.05.12-.01.03,0v.06s.03-.01.05-.03v.04s.01-.03.03-.03c.02,0,.09-.02.11-.03s.03-.02.03-.04c0-.02-.03-.04-.02-.06l.05.09v.02c-.06-.02-.08.03-.1.04s-.05.02-.08.03c-.01,0-.05.04-.06.04-.02,0-.02-.02,0-.03h-.03s-.02-.04-.02-.04c-.03.03,0,.05-.04.07l-.02-.03h.03s-.01-.08,0-.09l-.02-.02h.02s-.02-.09-.03-.11c0-.02-.06.03-.08.04-.05,0-.04-.05,0-.07-.05-.02-.03-.04-.04-.06,0-.01-.03-.03-.03-.04,0-.05.05-.06.07-.08,0,0,0-.05-.02-.04l.03-.05s-.02,0-.03.01v-.02s-.03.01-.03.01v.02s-.04.01-.04.01v-.04s-.03,0-.03,0l-.11.14c0-.05.05-.08.07-.1,0-.01,0-.03,0-.03,0-.01.07-.03.07-.08.01,0,.03.07.05.03l-.03-.04h.03s.02.05.04.08c0,0,.01.03.02.03,0,0,.02-.02.03,0,0,0,.02-.02,0-.04,0,0,.01,0,.01,0,.01.02.05.15.05.16.02.02.03-.06.05-.02l-.03.03.02.02-.04.04-.02-.02.02-.02-.06-.13h-.02s0-.02,0-.02h0s0,0,0,0h0ZM7.59,21.24l.06-.04s-.05,0-.01-.03h0s-.06.01-.06.01l.04.03h-.02s.01.03.01.03h0ZM13.22,14.24l-.05-.02c-.36.38-.7.77-1.04,1.16-.04.04-.07.06-.1.1-.03.04-.05.09-.1.12v.04s1.21-1.36,1.21-1.36l.05-.04v.02s.03-.02.03-.02h0ZM4.68,21.83h-.03s.01-.02.01-.02h-.01s.05-.22.05-.22c-.03-.04,0-.04,0-.06.03-.11.02-.26.05-.38.02-.04.04-.03.07-.05v-.02s.02.03.02.03l.02-.04v-.02s-.1.01-.1.01c-.06-.03-.12-.01-.18-.01.04,0,0,.05.03.08l.03-.03s-.03-.01-.01-.03h.03s0-.02,0-.02c.06.01.02.04.05.07l-.03.02s.03.11.03.15c0,.03-.01.07-.02.11,0,.01,0,.02,0,.02,0,.03-.04-.02-.06.02-.02.03.05.03.05.03l-.03.02h.03c-.03.06,0,.06,0,.08,0,0-.03.17-.04.19,0,.04-.03.04-.03.05,0,0,0,.02,0,.02,0,0-.05.02-.07.04-.02.02-.01.03-.02.05-.01.01-.04.02-.05.04l.02.03.05-.03s.01-.06.02,0c.03-.02.04-.04.05-.08l.02.03.06-.07h0s0,0,0,0ZM7.13,17.35l.06.02-.09.14h.02s.02.05.02.05c.02-.02.02-.04.04-.06.02-.03.05-.01.03-.06h.02s0-.1-.06-.11c-.08-.02-.08.11-.15.14,0,0,0,0,.01.01-.09.11-.09.19-.15.3-.07.16-.19.36-.28.52-.2.36-.41.7-.63,1.05-.07.11-.25.39-.36.45-.02,0-.04,0-.05.01-.04.03,0,.12.03.01l.05.04.05-.05h-.05s.1-.08.14-.14c0-.01,0-.03.01-.04.01-.01.05-.01.07-.02.03-.01.07-.05.06-.08l-.04.03s.04-.11.05-.13c.11-.17.23-.33.33-.5.23-.36.42-.75.64-1.12,0,0,0-.02,0-.02.05-.07.05-.16.09-.22.01-.02.06-.05.07-.09,0,0,0,0-.01-.01.04-.05.08-.07.1-.14h0s0,0,0,0ZM6.86,21.17s-.02-.04.02-.07h-.04s.05-.14.04-.17c0-.01-.02-.01-.02-.03,0-.1.03-.26.02-.38,0-.01,0-.02,0-.03-.02,0,0,.1-.01.11,0,.02-.03.02-.03.03,0,.01.03.08-.01.11h.03s-.05.09-.07.13c-.01.03,0,.07-.02.1,0,.03-.03.06-.04.09h.02c0-.06.06-.08.04-.14l.08-.05s-.04.07-.04.07c0,0,.03.04,0,.05v-.04s-.04.05-.04.06c0,.03.03-.01.02.01-.02.03,0,.06-.03.08.02.03.02-.01.04-.02l.02.02s-.02.14,0,.14c0,0,.04-.07.04-.08h0s0,0,0,0h0ZM5.86,20.21h.04l-.08-.13h-.05s.03-.03.03-.03c-.02-.02-.03-.06-.06-.05,0,.04-.03.05.02.07l-.02.03h.05s0,.04,0,.04h.02s0,0,0,.02c-.03.08-.05.12-.13.18-.12.09-.24.14-.38.2-.03.02-.07.01-.1.05v-.02s-.05.05-.05.05c0,.02.12-.02.13-.03.06-.02.1-.05.14-.1.03.02,0,.03.02.05l.13-.07v-.02s.07-.08.09-.08c.04-.01,0,.04,0,.05l.06-.05h-.03c.02-.06.12-.04.11-.12h-.02s.04-.04.04-.04h-.03s.05-.02.05-.02v.03h0,0ZM5.69,21.99l-.05-.02s.06,0,.03-.03c-.04-.02-.07-.02-.11-.01,0,.02.11,0,.07.04,0,0-.02,0-.03,0,0,0-.02.01-.03.02-.03,0-.11,0-.14-.02l-.04.05s-.02-.01-.03,0c-.04,0-.14.06-.17.06-.03,0-.03-.02-.05-.03,0,0-.07,0-.07.01v.03s-.08,0-.09,0-.02.04-.04.04l-.04-.02s.02.04-.01.06c.02,0,.03-.02.05-.02.09-.02.21-.04.3-.06.04,0,.06-.03.1-.02v.05s.03-.02.03-.02v.06c.06-.03.04-.04.05-.08h-.03s-.01-.03-.01-.03c.02,0,.03.02.05.02,0,0,.15-.05.17-.05.02,0,.06,0,.07,0h.01s0-.01,0-.01h0ZM7.93,22.26l.02-.06-.05.03s.05-.05.06-.09c0,0,0-.02,0-.02s.1-.09.08-.11c-.04-.02-.07.06-.09,0v.05s-.02-.02-.02-.02l-.05.07-.02-.02s.08-.16.15-.14c0-.02-.02-.02-.02-.03,0-.02.02-.04.04-.06v.05s.04-.09.04-.09c.02-.03.06.02.06.04-.05.02,0,.05-.03.08-.02.02-.07-.01-.08.03l.06.02-.03.11.03-.04.03.03-.06.05h.02s.04-.02.04-.02l-.15.15h0s0,0,0,0ZM7.97,22.2s.04-.07.05-.11c-.02.01-.03.03-.04.05,0,0-.03.05,0,.06h0ZM5.38,20.14s.06-.06.03-.1l-.07.07h.03s-.08.11-.11.16c0,.02,0,.05-.02.06h-.02s-.08.09-.1.15c-.03-.02-.02-.05-.01-.08-.07-.02-.02.05-.03.07-.03-.01-.04.02-.06.04.02,0,.07-.01.08-.01,0,0,0,.02.02.02.04,0,.09-.1.11-.11,0,0,.02,0,.02,0,.04-.01.12-.22.14-.26h0s0,0,0,0ZM6.05,21.88s-.06-.07-.04-.13h.02c-.04-.06-.05-.13-.08-.19,0-.02-.02-.02-.02-.02,0,0,0-.07,0-.07.03-.06.05-.03.07-.03.01,0,.02-.02.03-.02,0,0,.02.02.04.02.05,0,.1,0,.15,0v-.02s.02.01.04-.02c.02,0,.02.02.04.02.04.01.07-.02.05-.03-.02,0-.04.04-.05,0,0,0,.06-.01,0-.04.02-.02.04.01.04,0,0,0,.02-.05.05-.05-.02-.01-.04,0-.03-.04h.03s0-.03,0-.03h.03s.02,0,.02,0l-.04-.04v.03l-.02-.02-.11.17-.04-.04s-.03.03-.05.04c-.01,0-.09.03-.1.03-.01,0-.02-.02-.04-.02-.02,0-.05.02-.07-.02v.03s-.07-.02-.07-.02c.03.02,0,.03-.02.05,0,.02.02.08.02.09,0,.02-.02.06-.02.07,0,0,.02.02.03.04.01.04,0,.09.05.11l-.03.04s.03-.03.06,0l-.03.02.05.03h-.03s.04.02.04.02l-.03.02s.03,0,.04,0c0,0,.02.01.02-.01h0s0,0,0,0h0ZM6.38,21.72l-.03-.03.05-.08s-.03.02-.05.02c0,0,0-.02-.02-.02,0,0-.01.01-.04,0-.02-.01-.03-.03-.05-.04-.01,0,0,.01,0,.02,0,0-.03.02-.03.03,0,.02,0,.04-.02.05h-.02s-.03-.03-.03-.01c.01.02,0,.04.04.05-.03.03-.05.04-.04.08-.05.04-.03.02-.05,0-.01,0-.03-.01-.04-.02l-.02.05h.04s0,.03,0,.03h-.02s.01.04.01.04c.02,0,.05-.06.07-.03l.02-.05s.02-.02.03-.03c.04-.06.12-.07.13-.15l.04.02-.06.07s.04.03.08-.01h0s0,0,0,0ZM5.54,21.95l-.06-.03s.04,0,.07,0c0,0,.03-.02.02-.03-.12.04-.25.02-.37.04-.01,0-.03,0-.04,0-.02,0-.03.02-.04.03,0,0-.02-.01-.03-.01s-.02.02-.03.02c0,0,0-.02-.02-.01-.04,0-.07.03-.1.06-.03-.06-.05.01-.09.02-.02,0-.04-.03-.05-.04l-.03.04s.02-.02,0-.03c0,0-.02.02-.02,0l.02-.04s-.04.01-.07-.02v.09s-.04.04-.08.01v.04c.07-.02.14-.03.21-.04.08-.01.14-.04.23-.05.02,0,.05,0,.08,0,.07-.01.16-.04.23-.02v-.03s.06.01.09.02c.01,0,.02.02.03.02,0,0,.05-.03.08-.02h0s0,0,0,0ZM5.54,20.79s.07,0,.09,0,.03-.02.04-.02c.01,0,.07.01.09,0,.03-.01-.03-.01,0-.03.06-.05.15-.08.22-.15.03-.04.02-.06.02-.07.01-.02.04-.01.05-.03v-.02s0,0-.02-.03l-.06.05.02.05s-.05.03-.07.06l-.02-.02s-.04.07-.09.09c-.03.01-.01,0-.04.03-.07.05-.27.06-.34.05-.03,0-.2-.04-.21-.05v-.02s-.03.04,0,.06l-.03.03s.03.02.03-.01c.03.03.05,0,.07,0,.02,0,.04.03.05.03,0,0,.02,0,.04,0,.02,0,.03.02.06,0l.02.02h-.03s.03.04.03.04c0-.02.02-.04.04-.03l-.08.09-.03-.03v.03s-.09.01-.12.03h.07s-.01.05.02.04c.03-.02.06-.05.08-.08l-.03.08.15-.17h0,0s0,0,0,0ZM5.08,21.08c.05-.03.02-.11-.02-.13-.02,0,0,.03-.01.04,0,0-.03,0-.04,0,0,0-.02.09-.06.06.02-.02.08-.09.08-.12,0-.01-.02-.02-.03-.05-.01-.04,0-.08,0-.12,0-.06-.04-.06-.08-.05l.05.04c-.03.05,0,.06.01.09,0,.02.01.04.02.06,0,0,.02.01.02.02,0,.04-.03.06-.05.08-.02.02-.01.05-.06.05,0,.02.08,0,.09,0,.02,0,.08.02.09.02h0s0,0,0,0ZM7.44,21.64c-.06-.02,0-.04,0-.04h-.04s.03-.04.03-.04l-.07.04-.02-.04-.06.03v-.05s-.07.04-.07.04c.03.05,0,.07-.03.02-.02.02,0,.02,0,.03l-.05.03s.1-.02.1-.01c.02,0,.05.05.1.03v-.05s.06-.01.06-.01c0,0,.02.02.02.03,0,.02-.03.03,0,.04l.03-.04h0ZM7.12,21.97l-.03-.03.05-.06s-.02,0-.03,0c-.02.01-.04.02-.04.05h-.02s-.03.06-.03.06v-.02s-.03.01-.03.01c-.01-.03,0-.05.03-.07,0,0-.08,0-.05-.05.02.02.04.04.07.04.05,0,0-.05,0-.09-.05,0-.08.04-.11.06.02.02.03.03.06.04l-.04.06s.06.03.05.06c.01,0,.06-.01.06-.01.02,0,.03-.04.05-.05h0s0,0,0,0ZM3.86,20.94s-.06-.02-.08-.02c-.02,0-.05-.03-.07-.03s-.04.02-.07.02c-.02,0-.05-.03-.06-.03,0,0-.02.02-.05.02-.04,0-.13,0-.16-.01-.01,0-.02-.02-.03-.02,0,0-.08.04-.08.06,0,0,.02.02.03.02.05.01.14-.02.19-.02.03,0,.05.02.08,0-.03-.01,0-.03.02-.03.02,0,.04.03.05.04.02,0,.08-.02.09.02.05-.04.1-.01.16-.02h0ZM10.11,17.72s.09-.1.13-.15h-.02c.08-.12.19-.22.29-.33-.02-.01-.02,0-.03.01-.1.1-.18.21-.27.32-.04.05-.11.1-.12.17l-.02-.02-.41.47s.04-.04.05-.04v.02s.09-.1.09-.1h-.03s.04-.02.04-.02c.02,0,.26-.28.3-.33h0ZM11.93,15.65h-.04s.01-.03.01-.03c-.06.09-.17.17-.23.26-.01.02.01.03-.01.05v-.03l-.11.12v.03s.05-.05.05-.05h-.02s.02-.03.02-.03v.02s.32-.35.32-.35h0ZM7.12,18.06s-.04.11,0,.15c.04-.08,0-.16.05-.24l-.04.02v-.04s.03,0,.03,0h.01s0-.18,0-.18c-.07.07-.04.19-.04.27h0ZM8.06,20.93s.08-.07.07-.11c-.04.02-.08.05-.1.09-.02.02,0,.05-.04.07-.02.02-.06.02-.08.05l-.03-.02v.03s-.04,0-.04,0c0,0,0,.02-.02.02-.01,0-.02-.02-.03,0,.04.04.08-.01.12-.03.02,0,.03,0,.04,0,.05-.01.09-.08.12-.12h0s0,0,0,0ZM13.08,14.4h0s-.79.9-.79.9h0s.79-.9.79-.9ZM5.81,21.27s-.04,0-.04-.01c0,0-.02-.07-.06-.07h.02s-.06-.04-.07-.02l.1.07s-.03,0-.04,0c-.01,0-.03.02-.04.02-.02,0-.05-.03-.07-.03-.05-.02-.04,0-.09-.04-.03-.02-.06,0-.08-.01-.03-.01-.04-.1-.12-.03l.02.02.04-.02-.05.05.09.04-.03-.04c.07-.01.11.03.17.05.05.02.07.03.1.04.01,0,.04,0,.05.01v-.02c.03.06.1.06.13.1.05-.04-.02-.08-.06-.1h0,0ZM5.34,20.45h-.02s0-.04,0-.04l-.05.08c-.03-.05.07-.11.11-.14l-.02.05.04-.04v-.05c-.05.06-.14.08-.19.16h.05s-.09.07-.09.07l.04.02c.04-.05.08-.08.13-.11h0ZM8.13,20.09c0-.06.08-.14.12-.19l.04-.07c-.04.06-.1.11-.14.16-.03.04-.05.1-.09.14s-.08.08-.12.12c0,0-.03.02-.02.03l.2-.2h0,0ZM11.54,16.09v-.03s-.01.03-.01.03l-.06.07v-.03s-.18.21-.18.21h.02s-.06.02-.09.06c.04,0,.09-.03.1-.06,0,0-.02-.02,0-.04h.02s0-.03.02-.05v.02s.16-.18.16-.18h0s0,0,0,0ZM8.23,22.75s.07.07.12.11c.01,0,.03.02.05.02.01-.01-.23-.22-.24-.23,0,0-.01-.02-.03,0,.04.03.07.07.1.1h0ZM6.27,20.97l.04-.03s-.09-.05-.06-.11c-.08,0,.01.09,0,.11l-.06.07s.04,0,.06.04l.02-.08h0ZM7.04,22.83l-.05.05v-.03s-.03.04-.03.04h-.03s-.03.04-.03.04l.02.02-.04.03h.04c.06-.04.08-.11.12-.15h0ZM10.88,22.73s.06.02.08.01c-.09-.05-.2-.09-.3-.09.07.03.15.05.22.08h0ZM9.26,18.62s.02-.01.03-.02c.02-.02.04-.05.07-.08.03.04.01-.01.02-.02l.08-.09h.02s0-.02.02-.04v.02s.09-.09.09-.12c-.01.02-.05.03-.06.05-.09.09-.17.2-.26.29h0,0ZM11.59,16.09h0s-.43.49-.43.49h0s.43-.49.43-.49ZM6.72,21.17s.02-.08,0-.09l-.09.11s.03-.02.04,0c0,0-.03.01-.01.03.01-.04.07-.03.08-.05h0ZM4.37,22.04s.05-.17-.04-.13c.01.03,0,.07.02.1,0,.01,0,.03.02.03h0ZM4.67,22.15h-.02s.03-.06,0-.07c-.04,0-.06.07-.08.1,0,.04.03,0,.04-.01.02,0,.04,0,.04,0,0,0,.01-.01.02-.02h0ZM7.6,21.57l.03-.06s-.06.03-.08.04c-.02,0-.04-.02-.06-.03-.02,0-.02-.02-.03,0l.06.03-.02.03.05.02v-.02s.05,0,.05,0h0s0,0,0,0ZM6.98,22.14v-.04s-.06.02-.06.02l.04-.06-.03-.03-.05.06s0,.04,0,.05c0,.02.03,0,.05,0,.01,0,.03,0,.04,0h0ZM7.46,21.48s-.06,0-.08-.01c-.03,0,0-.03-.02-.04l-.06.04.02.03s.08,0,.12,0v-.02s0,0,0,0ZM8.18,21.3c-.06-.03-.1-.06-.14-.11l-.06.03.03.02.02-.04.02.02h-.02s.09.11.15.09h0ZM6.77,22.03l.02-.02v-.02s.01-.02.01-.02c0-.01-.13-.03-.05.01-.03,0-.04,0-.05.04l.06.04s.02-.01,0-.03h0s0,0,0,0ZM11.95,15.68h0s-.35.39-.35.39h0s.35-.39.35-.39ZM5.53,19.87s-.04,0-.04,0c-.02.01-.04.12-.08.14l.02.02c.03-.07.05-.11.1-.17h0ZM7.58,22.54s-.06.02-.06.02c-.03.03-.03.05,0,.08l.04-.07.02.05s.03-.09.01-.09h0ZM9.64,22.46c-.06-.03-.14-.07-.2-.06.06.03.13.07.2.06ZM10.62,22.65s-.01-.02-.02-.03c-.05-.02-.1-.03-.15,0,.02.02.16.04.17.04h0ZM5.89,21.96s0-.02,0-.03c.02-.03.08-.05.06-.11-.03-.01-.05.08-.06.09-.05.05-.1,0-.14.02-.02,0-.03.03-.04.03,0,0-.02-.04-.04-.02.01.02.04.05.07.04.03,0,.03-.03.04-.03,0,0,.05,0,.06,0,.01,0,.02.01.03,0h0ZM5.82,19.75s.02-.03.01-.04l-.03.04-.03-.02-.05.04h.06s-.06.06-.06.06l.03.03s.04-.06.07-.09h0ZM9.2,18.79h0s-.3.34-.3.34h0s.3-.34.3-.34ZM10.48,17.35h0s-.3.34-.3.34h0s.3-.34.3-.34ZM6.62,23.38s-.07,0-.08-.06l-.03.04h.03s-.03.03-.03.03c.01.02.02,0,.03,0,.03,0,.06.02.08-.01h0ZM10.62,17.09s.02-.01.03-.02c.08-.08.16-.17.23-.26,0,0,.03-.02.02-.03l-.27.31h0ZM7.52,22.67h-.05v-.07s-.01.04-.02.06c0,.01,0,.09.02.09l.04-.07h0ZM5.53,21.11c-.07-.02-.13-.06-.17-.12-.02.02,0,.02,0,.03.03.03.06.07.1.09l-.03.02h.1s0,0,0,0ZM6.61,21.19l-.06.03v-.03s-.06.05-.06.05v.04s.07-.07.11-.05c.03-.03-.02,0,0-.04h0ZM7.88,21.24l-.08-.1-.05.1s.02-.03.04,0v-.02s.03-.02.03-.02l.06.05h0ZM10.91,16.75s.05-.03.06-.04c.05-.05.1-.11.15-.17,0,0,.04-.04.03-.05l-.23.27ZM7.65,21.64l-.02-.02.03-.02s-.07.02-.1,0l.02.03v.02s0-.02,0-.03c.02-.04.04.02.06.01h0ZM5.74,19.99s-.03-.06,0-.1h-.03s0,.06,0,.06h-.07s.05.02.06.02c.02,0,.02.02.03.02h0ZM6.4,21.04l-.04-.03h-.06s0,.04,0,.06l.04.02v-.04s.02-.02.03-.02c.01,0,.02.03.03,0h0ZM9.9,18h0s-.24.27-.24.27h0s.24-.27.24-.27h0ZM11.34,22.79l-.06-.06s.01.07,0,.11c.02-.03.02-.05.06-.05h0ZM7.19,22.53s.01-.01.03.02c.01.02-.02.03-.02.03.08.03.09-.12,0-.05h0ZM6,20.34l-.08-.12v.02s-.01.04-.01.04c.05,0,.04.09.09.07h0ZM6.76,22.19h-.02s.03-.03.03-.03c-.02-.03-.03,0-.05,0-.01,0-.02-.02-.04,0-.01.01.06.07.07.07s.01-.02,0-.03h0ZM8.54,19.55h0s-.22.25-.22.25h0s.22-.25.22-.25ZM6.08,23.5s0-.04,0-.05c0-.02.07-.06.04-.08-.02.02-.02.07-.06.05v.08s0,0,0,0,.01.01.02,0h0ZM7.17,22.42h.02s.06-.09.06-.09h-.03s-.02.06-.02.06v-.02s-.04,0-.04,0l.02.05h0ZM6.46,21.75l-.03-.04s-.04.03-.05.05c0,0,.03.02.04.02.01,0,.04-.02.04-.03h0s0,0,0,0ZM6.45,21.6c-.07-.04.02-.09-.07-.13-.01.01,0,.01.01.03,0,0,0,.02,0,.03,0,.01.02.01.02.02,0,0-.01.08.04.06h0ZM8.99,18.93h0s-.2.22-.2.22h0s.2-.22.2-.22ZM4.85,22.15l-.02-.02-.02.02v-.04s-.02-.03-.05,0c.02.02.04.04.02.06h0s.04-.01.05-.01c0,0,.01.01.02,0h0ZM5.99,22.99h-.02s0-.03,0-.03c-.03.04-.05.02-.09.03l.04.04.06-.04h0ZM5.62,21.13s.04,0,.04-.02-.04,0-.04,0c-.03,0,.03-.02,0-.03-.02.02-.02.03,0,.05h-.02s.06.05.06.05c.03-.03-.02-.02-.03-.04h0s0,0,0,0ZM5.62,22.82s0-.04,0-.05l-.06.05.05.03s.01-.02.01-.03h0ZM6.34,22.21s-.09.09-.09.14c.03-.04.09-.09.09-.14ZM7.99,22.47l-.07-.07s.04.04.04.05l-.02.02s.05.04.05,0h0s0,0,0,0ZM7.52,22.42s.03-.05.01-.08l-.06.06.04.02h0ZM6.19,20.67l-.07-.1s.01.04.01.06l-.02.02h.01s.01,0,.01,0c0,0,.03.04.04.02h0Z"/>
    <path d="M6.31,11.32c-.1-.16-.17-.35-.28-.52-.18-.28-.39-.53-.58-.81-.25-.35-.46-.73-.76-1.03-.06-.06-.28-.23-.29-.29,0-.03,0-.05-.02-.08.03,0,.05,0,.08.03.43.35.73.84,1.03,1.3.21.27.42.55.6.84.07.12.12.24.2.36v.2s.01,0,.01,0h0ZM5.5,3.99c-.17-.13-.34-.2-.54-.27-.05-.02-.12-.08-.15-.01,0,.06.27.13.32.15.25.11.47.32.7.47v-.1s-.33-.24-.33-.24h0ZM-.44-4.07v.04s-.02-.02-.02-.02c.02.03-.02.06-.02.07,0,.09.04.2.05.29,0,.03,0,.06,0,.08,0,.02.03.05.02.08l.02-.05.04.21h-.02s0,.07.02.1c0,.02,0,0,.01.05,0,.05.03.09.03.14l.02-.04.02.06s.04-.07.02-.13l-.02.02c.02-.11-.04-.2-.04-.3v.08s-.02-.07-.03-.1c0-.04-.02-.08-.03-.12h.02c-.05-.07-.02-.14-.02-.2,0-.04-.04-.08-.03-.13h-.04s0-.12,0-.12h0,0s0,0,0,0h0ZM-.22,1.87s-.07,0-.09.02l.1.02s-.02.01-.05.01v.09s-.05-.03-.05-.03l-.03.06s.03.01.07,0l.03-.04.02.06s-.02-.07.02-.11h.02s0,.02,0,.02h.03s0,.02,0,.02h.02s.01.05.01.05h-.05s.03.04.03.04c0-.02.05-.05.05-.05.01-.02-.03,0-.02-.04h.04s-.03-.02-.03-.02v-.02s.04,0,.04,0v-.09s.05.05.08.04l-.02-.06.04.03s.02-.04.05-.03v.06s-.02-.02-.02-.02v.03s.03,0,.03,0v-.03s.02.03.02.03h.03s-.02-.08.02-.09c0-.02-.06,0-.08,0l.03-.05h-.02s.02-.07.02-.07h-.03s.02-.01.02-.01c-.02-.02-.03,0-.06,0l.03.04h-.04s-.01-.05-.01-.05H0s0,.01,0,.01c-.06-.06,0-.03.03-.05.03-.02.01-.06.07-.03.01,0,.03.04.06.02v-.05s-.07-.01-.07-.01v-.05s.05.03.05.03v-.05s-.09,0-.09,0v-.03s0-.01-.03,0c0,.01,0,.02,0,.03,0,.02.03.04,0,.05-.02,0,0-.03-.04-.03v-.03s0,.05,0,.07h-.05s0-.03,0-.03c-.04.03-.08.03-.13.04v-.03s-.03.02-.03.02l-.05-.06h-.02s0,.02,0,.02c-.01,0-.04-.04-.02-.05h.04s0-.03,0-.03l.11-.04h-.05s.02-.03.02-.03l-.02-.02.02-.06s-.02-.02-.06,0v-.04s.05.02.05.02c.01-.02-.04-.04-.05-.03v-.02s.03-.09.07-.13c0,0,.02,0,.03-.02,0,0,.03-.09.02-.09l-.06.02v-.03s-.01.06-.02.1c0,.03-.04.05-.04.08h-.05s.02.04.02.04h-.03s0,.04-.02.07c0,0-.02.07-.02.08,0,.04.04-.03.06-.02l-.02.07v-.03s-.04.02-.07.01v-.04s.02-.01.02-.01c-.03,0-.04-.02-.04-.05-.02,0-.02,0-.02.02-.04-.01-.03-.04-.05-.06v.03s-.02-.02-.02-.02c-.04.03,0,.04,0,.06,0,0,.01.08,0,.07l-.09-.1h.04s-.01-.04-.01-.04c.03.03.04,0,.07,0-.01-.03-.03-.05-.07-.06v.02s0,.02,0,.02c-.03-.03-.07,0-.09-.05.06-.03-.02-.01-.04-.03-.01-.01,0-.03-.01-.04-.02-.03-.07-.06-.09-.1-.02-.04,0-.1-.08-.08l.03-.03c-.05.01-.06-.03-.05-.07l.05.02s-.02-.11.04-.08v.03s.03-.06.03-.06c.04.01.09.04.11,0l-.02-.02h.05s-.03,0-.05,0c0,0,0-.03-.03-.02v.03s-.03,0-.03,0l.02-.03s-.09-.02-.13,0v.03s0,0,0,0c-.02.06-.06,0-.1.01l.03.05h-.02s.04.02.04.02h-.05s.05.05,0,.06l-.06-.05h.04s-.02-.04-.02-.04c.01,0,.04,0,.03-.02-.02-.03-.03.02-.04,0l-.02.04s-.06-.05-.08-.1c.04-.01.03,0,.06.02v-.04s.09.01.08-.02h-.07s-.02-.03-.02-.03v.04s-.05,0-.05-.03h-.02s0,.02,0,.02h-.02s-.04-.01-.06-.01c-.04,0-.15-.13-.18-.16-.16-.16-.32-.33-.48-.48-.06-.06-.14-.11-.19-.18v-.02s.06,0,.06,0v-.02s.05-.02.07,0l-.05.03c.06,0,.11.02.15.06.02-.02-.02-.03-.03-.04,0-.01,0-.03,0-.04h.02s0,.03,0,.03h.03s0,.06,0,.06l.07.02s-.02-.01-.02-.02c0,0,0-.02,0-.02,0,0-.08-.07-.09-.07-.02,0-.04,0-.05,0-.03,0-.08-.06-.12-.06h-.02s0,.02,0,.02c-.03,0-.05-.03-.07-.01l.03.02-.04.02c-.08-.09-.18-.16-.28-.24-.02-.02-.04-.04-.05-.05-.13-.1-.27-.19-.4-.28-.02,0-.01,0,0,.02.01.03.02.01.05.03.07.04.12.11.19.15.5.36.93.78,1.35,1.23,0,.01.04.16.04.17,0,.02-.02.01-.02.03s.02.04.03.07c.03.11.05.23.07.35.04,0,.04-.08.05-.09h.04s0,.02,0,.02h.02s.01.03.01.03l-.05-.24v.07c-.05-.11-.06-.22-.08-.34h.03s.01.18.01.18c.03-.02-.01-.09.02-.11-.01.06.03.05.03.09h.04s-.04.02-.04.02h.06c0,.06.05.04.07.08,0,.02-.03,0-.02.04.01.03.04,0,.06,0,0,0,.01.03.02.04.04.04.09.09.12.14.01.02.02.04.02.05,0,0,.03,0,.04.01,0,0,0,.02,0,.03,0,.02.02.02.01.05l.04-.02c.06.05.15.2.18.05.04,0,.02.03.02.05,0,.01.02.02.02.03h-.05s0,.02,0,.02h.06s0,.04,0,.04l-.03-.02v.04s-.06,0-.06,0l.02.04.04-.03s.02.04.02.06c0,.04-.02.07.01.1.03-.03.02-.06.02-.1l-.02.04s.03-.1.06-.1c.02,0,.12.06.13.07.01.01.02.05.04.07.03.03.08.01.12.02v.03s.07,0,.06.05h.03s.01.01.01.05l-.05-.02s0,.05-.02.06v-.06s-.02,0-.02,0l.02-.02h-.06s.02-.02.02-.02h-.04s.01.03.01.03h-.03s.02.01.02.01v.02s0,.03,0,.04c0,.01-.02.02-.01.03h.05s-.06.01-.05.05c-.03,0-.04-.01-.05-.02-.02,0,0,0-.02.02v-.04s0,0,0,0h0ZM-.21.55s.01-.02.03-.02c.05-.02.08-.06.13-.06,0-.02,0-.03,0-.04.02-.03.1-.09.13-.12.02-.02.04-.05.08-.06.02.04-.03.07-.03.09,0,.01,0,.02,0,.04,0,0-.02.07-.02.08,0,0-.05.02-.06.04v-.06s0,.02-.01.03-.03.02-.04.03,0,.04-.03.04l.02.02s-.04,0-.04.03c.02-.02.03-.02.06-.01-.02.03,0,.05,0,.09,0,.06-.02.14-.03.19,0,.03-.04.08,0,.1l-.02.03v-.05s-.04.02-.04.02c-.01-.04-.03-.02-.03-.02,0,0-.01-.03-.05-.03-.02,0-.04.07-.01.06.01,0,0-.03.02-.01-.01.06,0,.06.04.11l-.04.02h.04s-.02.07-.02.07c.04,0,.03-.02.04-.05H-.03s-.02.03-.02.03l.03.06-.02.02h-.03s.04,0,.03.04c.03-.03.05-.03.04.01,0,0-.01,0-.01,0,0,.01.03.06.01.09h.03s0-.03,0-.03h.02s-.02-.02-.03-.02v-.13s.06,0,.02,0c.03-.04.07,0,.1-.05v.06c.05-.02.05.05.1.06.09-.02.16-.06.25-.06l.11-.06s-.02,0-.03,0c-.07.01-.17.05-.23.06-.07,0-.06-.04-.1-.06-.02-.01-.04,0-.05-.01-.02-.01-.01-.07-.06-.08,0-.05.02-.04.04-.05,0,0,0-.02.02-.03.02-.01.07-.02.08-.05-.02,0-.06,0-.07,0,0,0-.02.02-.03.03-.03.02-.06.01-.07.07-.05,0-.02-.07-.02-.1,0-.02,0-.03-.01-.05,0,0,0-.02,0-.03,0,0-.03.03-.01-.04h.02s0,0,0-.02c0-.05,0-.18.01-.22,0-.01.02-.01.03-.02,0,0,0-.02,0-.03,0,0,.02,0,.03,0,0,0,0-.02,0-.03,0-.07.06-.09.06-.13,0-.02-.02-.05,0-.08h-.04s0-.05,0-.05h-.03s-.05-.05-.05-.04v.03s-.02-.03-.02-.03l.03.08h.04S-.02.2,0,.19c.03,0,0-.01,0-.03,0,0,.03-.02.03-.03,0-.01-.02-.05-.04-.04-.02.02-.03.04-.01.06h-.03S0,.23.01.27h.05s0,.02-.01.03c0,0,0,.02,0,.02,0,0-.02,0-.03,0,0,0-.03.04-.05.05-.02,0-.01-.03-.04-.02v.08s-.01-.07-.06-.05l.03.06-.05.06-.03-.02v.04s-.03-.01-.03-.01v-.06s-.01.02-.01.02l.05-.17h.03s.02.01.02.01c.01-.04-.04-.05-.06-.03,0,0-.04.09-.04.1,0,.03,0,.07-.02.1h.02s0,.02,0,.02h-.02s0,.07.02.06h0s0,0,0,0h0ZM.04.88v.02s0,.04,0,.07c-.04.01-.01-.05-.02-.06H0s0-.02,0-.02h.05s0-.01,0-.01ZM2.05,1.12s-.09.05-.12.09c0,.01.02,0,.03,0,.14-.08.26-.18.34-.32.11-.18.21-.39.29-.58.12-.29.24-.57.4-.84.01-.03.12-.18.11-.19-.08.03-.09.13-.13.2-.05.08-.11.16-.16.23-.07.12-.09.25-.14.37,0,.01-.05.05-.05.08l.02.02-.02.06-.02-.02c-.03.16-.13.28-.2.41-.07.12-.13.33-.24.42-.03.02-.07.06-.1.08h0s0,0,0,0ZM.13-.29h.02s.01.08.03.11c0,0,.02,0,.02.02.02.04,0,.1.03.14,0,.05-.03-.05-.04-.04V.02s.07.09.07.09l.04-.1-.04-.02s-.11-.26-.11-.28c0,0,.02-.03.03-.02v.05s.09-.01.08.06c0,0-.03,0-.02.04h.03s0,.05.01.06l-.02.02h.03s.01.05.04.04c.01-.06.05-.12.07-.18.02-.05.04-.13.07-.19,0,0,0,0,.02,0h-.03s-.02.06-.03.07-.05,0-.03.06h-.03s-.01-.04-.01-.04l-.05.02-.02-.03s.03.03.05.04c.02,0,.07.05.01.05v.09s-.05-.03-.05-.03c0-.01,0-.09-.01-.09,0,0-.02,0-.03,0,0,0-.04-.07-.04-.08,0,0,.02-.03.01-.04.03,0,.05.03.07.03.03,0,.13,0,.13-.05h-.06s-.03.03-.03.03l-.06-.06v.04s-.04-.02-.04-.02c-.02-.04.03-.09.03-.11,0-.02-.04-.09-.02-.13.02,0,.02.03.03.04.01,0,.03,0,.05.01.01,0,.01.03.02.03.03.03.09.05.1.1v-.03s.04,0,.04,0c.01.04.04-.01.05-.03.03-.09.06-.2.1-.28,0,0,.04-.01.02-.03-.04-.03-.09.15-.09.16,0,.02-.02.05-.04.07-.01-.03,0-.06,0-.09-.01-.03-.03-.02-.03-.04.02-.03.04.01.06,0l.03-.07s.04-.03.05-.07c-.03.02-.05-.01-.06-.04h.07s0,.03,0,.03c.03-.03.02-.08.04-.12.02-.03.06-.04.05-.09-.05,0-.03.03-.04.06-.01.02-.04.05-.05.08-.03,0-.07,0-.1,0-.02,0-.03-.02-.06-.02-.04,0-.07.02-.11.02h.03s0,.03,0,.03h.15s.03.13-.02.16c-.03.02-.09-.03-.11,0,.05.04.12.02.11.11,0,.02-.02.04-.02.05,0,.03,0,.07,0,.1-.01,0,0-.01-.02-.02-.08-.04-.14-.09-.18-.17,0,0,0-.02,0-.03,0,0-.02,0-.02,0,0,0,.04-.05.04-.05.03,0,.07.02.09,0-.05-.02-.11-.03-.12-.1l.02-.02h-.06s.02.04.01.07c0,.04-.04.05-.03.08h.04s0,.02,0,.02l.03.04s-.02,0-.04-.01c-.02-.01,0-.04-.03,0,.05.02.02.03.02.07,0,.01,0,.02,0,.04,0,.02-.04.08-.04.09,0,.01.05.11,0,.08,0,.06,0,.09.02.14l-.06-.08h-.02s0-.05,0-.05l-.04.03v.07s0,0,0,0h0s0,0,0,0ZM-1.62,1.73s-.1-.04-.15-.04c.05.03.3.12.31.18,0,0,0,.03,0,.03.02-.02.04,0,.07,0l-.02.04s.15-.1.14,0h-.04s-.02.09-.02.09l.05-.06c.05.02.03,0,.07,0v-.03s-.04,0-.04,0v-.05s-.07,0-.07,0c.02-.03-.06-.08-.05-.1.03,0,.05-.01.05-.04h-.03s.06,0,.06,0l.02-.04s.03.08.05.05v-.08s.02.07.01.1h-.02s0,.02,0,.02l-.02-.04s-.02.04-.02.05c0,.04.04.05.04.06,0,.01-.02.04.01.05l.03-.04.03.03s0-.05.04-.06l-.03-.03h-.02s0,.02,0,.02c-.05-.05,0-.1,0-.15h-.02s-.03-.04-.03-.04v.02s-.03-.02-.05,0c0-.03.02-.01.02-.04,0-.02,0-.03,0-.05l.03.02-.03-.06s.04-.04.05-.07h-.03s.02-.02.02-.02v-.04s.03.02.03.02v-.02s-.01-.04-.03-.07c-.04.06-.06.14-.08.21,0,.02-.01.06-.02.06,0,.02,0,.04.02.05,0,.01-.02.03-.04.03-.03,0,0-.07-.04-.05-.01.03.02.06.02.07,0,0-.06.08-.06.09-.05.04-.13-.03-.19-.04v-.03s-.02,0-.02.02h-.01s0,0,0,0h0,0ZM-.44-.86h-.11s0-.04,0-.04c-.05,0-.1.04-.14,0l-.02.03s-.1-.04-.16-.08c-.09-.06-.12-.07-.21-.12-.12-.06-.28-.16-.41-.21-.02,0-.04,0-.06-.01,0,.03.06.04.09.05.21.1.4.22.61.32.04.05.07.08.06.15v-.09s.13,0,.13,0l-.05.03.02.04-.05.05s0,.06,0,.09c0,.02.02.16.03.16,0,0,.01.01.02,0,.02-.08-.03-.16-.02-.24.08,0,.05.13.05.19,0,.05.03.11.02.16.03-.01,0-.04,0-.06,0,0,.02-.02.02-.03,0,0-.01,0-.02,0-.03-.05-.02-.14,0-.2-.02-.02-.05-.17-.05-.18h.22s0-.01,0-.01h0ZM-.95.11s-.05-.02-.07,0c0,0,0,.03,0,.04,0,.05-.05.13-.02.17.01.02.05.03.05.03,0,0,0,.04,0,.08s.04.05.04.05c0,.01,0,.02,0,.04,0,0,.07.12.08.12,0-.02,0-.05.03-.05v.03s0-.05,0-.05l.04-.02c0,.13.1.02.16,0,0,.03-.03.03-.04.04,0,.01-.01.03-.02.05l.1-.03s-.01-.18-.05-.15c.04.03,0,.08-.04.09-.01,0-.03,0-.04,0-.01,0-.01.03-.02.03-.04,0-.03-.03-.04-.05-.02-.03-.05-.06-.07-.09v.02s-.03-.03-.03-.03c0,0-.03,0-.04-.02-.02-.02-.02-.05-.06-.07v-.02s.03,0,.03,0c-.02-.03,0-.09-.04-.09h0s0-.02,0-.05c0-.02,0-.03,0-.05h-.02s.05,0,.07,0c.06,0,.12,0,.18-.01l-.02-.02h.12s0-.11,0-.11v.09c-.1.02-.18,0-.27-.04-.02,0,0-.01,0-.02.01-.05.03-.08.07-.12h-.04s.03-.04.03-.04c-.02-.02-.03.03-.05.03,0,0,.02.02.02.03,0,0-.02.05-.03.05,0,0-.03,0-.03.02,0,.01-.06.07-.06.07-.01.03.06,0,.07,0,.02,0,.07,0,.08,0,.02,0,.02.02.02.02.02,0,.04,0,.04,0h-.11s0-.01,0-.01c-.02,0-.02.02-.03.02h0s0,0,0,0ZM4.19-3.5c-.11.17-.24.4-.33.58-.01.03-.07.13-.05.15.11-.08.16-.24.22-.35.05-.08.1-.17.15-.24.01-.02.09-.14.09-.16,0-.02-.01-.04,0-.05,0,0,.02,0,.03-.01.01-.01.1-.17.1-.18s0-.02-.02-.01-.07.09-.08.1c-.03.05-.05.11-.07.16,0,0-.02,0-.03.02h0ZM3.84-2.82s.04-.1.06-.14c.02-.03.03-.06.06-.08-.03.07-.07.16-.12.22ZM-1.97,1.74s.08.08.09.09c.03.03.07.05.1.08.08.08.16.17.25.25v.11s0-.08.03-.08c-.02.05.02.02.02.03v.05s.02-.03.02-.03l.02.03v-.09s.04.02.04.02v-.04s-.05-.04-.01-.04c-.02-.02-.04-.04-.07-.03l.04.04c-.09-.02-.16-.09-.22-.16h.03s-.01-.03-.01-.03l.03-.02v-.02s-.02,0-.02,0v-.02s-.02.03-.02.03c0,0-.05-.02-.08,0v-.06s-.04.01-.04.01c-.01-.03-.03-.02-.06-.03-.04-.02-.09-.11-.13-.11,0-.05-.05-.05-.06-.08,0-.02,0-.05-.01-.05,0,0-.03,0-.05-.02-.02-.02-.05-.06-.08-.08-.01,0-.01-.03-.03-.02.04.05.08.1.11.14.02.02.04.03.05.05,0,0,.03.06.04.06,0,0,.01,0,.02,0,0,0,0,.02,0,.03h0s0,0,0,0ZM0-1.26c.02.06,0,.13.08.15v-.06s0,0,0,0l.02-.09v.05s.02-.05.04-.06v.07s.03-.05.03-.07c.02,0,.01.02.03.03,0,0,.02,0,.04,0,.02,0,.04.02.06.01v.05s.01-.04.02-.05c0,0,.03-.02.04-.04.05-.05.1-.09.13-.15-.02-.02-.12.11-.13.13-.02-.04-.08-.03-.12-.02l.08.03-.03.04-.08-.02v-.04s-.05.03-.05.03c.01-.12.02-.25.06-.36,0-.01.02-.02.03-.04,0-.01-.02-.02-.02-.04s.03-.08-.01-.07l-.13.59s-.01-.02-.02-.03c0,0-.04-.03-.04-.03,0-.03.02-.02.02-.03,0-.02,0-.04,0-.06v.03s-.03,0-.03,0v.03s-.03-.04-.03-.04c0,.03.02.05.03.07H0s0,0,0,0h0ZM3.2,2.76s.06.01.08.02c.23.11.49.28.72.41.17.09.32.22.49.32.05.03.12.05.16.1.06,0,.04-.03,0-.05-.04-.03-.17-.1-.19-.14,0-.01,0-.03,0-.04-.02-.01-.02.02-.02.02-.04,0-.04-.04-.05-.04,0,0-.02,0-.04,0,0,0-.04-.04-.06-.05-.04-.02-.08-.03-.12-.05-.12-.05-.3-.19-.42-.26-.16-.1-.34-.17-.5-.25-.01,0-.05-.07-.06,0h0ZM-.63-.3l.09-.02s-.08.06-.08.08c.04.23.05.46.09.69,0,.04.05.09.02.11.02.03.04-.01.06.02v-.02s.04,0,.04,0l.04.05s-.07.02-.07.06h.03s0-.01,0-.01h.02s0,.02,0,.02l.04-.03s.03.02.06.01v-.04s-.04.01-.04.01v-.04s-.04,0-.04,0l.02-.02s-.03-.02-.04-.04c0,0-.02.01-.03.01-.05,0-.07-.07-.08-.11,0-.03-.01-.04-.02-.05-.03-.14-.03-.3-.04-.44,0-.04-.03-.06-.03-.07,0,0,.01-.02.01-.04s-.02-.03-.02-.05c0-.05.08-.07.09-.11-.04-.02-.06,0-.1.02l-.04-.03v.05h0s0,0,0,0ZM-.18-2.78c.03.14.11.23.08.37.02.12.02.22.03.34,0,.18.02.35.05.53,0,.04.02.09.03.14.02-.03,0-.06,0-.09,0-.04-.01-.08-.02-.11-.02-.15-.05-.39-.05-.54,0-.03,0-.05.02-.07h.02s0-.03,0-.03l-.02.02c-.02-.09-.03-.18-.02-.27h.02c.01-.07-.06-.1-.08-.18,0-.08-.02-.16-.04-.24,0-.01,0-.05-.02-.05.02.05.01.11.02.16h0ZM1.09-2.01s-.01.03,0,.03c.06-.17.12-.33.19-.49,0-.01,0-.03,0-.04s.02,0,.03,0c.04-.01.05-.06.07-.08.07-.09.14-.18.21-.27h0s-.04.02-.04.02c-.01-.01.06-.1.07-.1.02,0,.03,0,.04,0,.01,0,.18-.22.21-.25.01-.01.09-.12.08-.13-.02,0-.06.04-.08.06-.05.06-.1.14-.15.2-.08.09-.15.15-.23.24-.09.11-.2.22-.25.35,0,.01-.04.05-.04.06v.02s.02,0,.02,0c0,.02-.12.31-.13.36h0s0,0,0,0h0ZM-1.74-.13C-1.57,0-1.37.09-1.22.24c.03-.03.03-.07.07-.09l-.02.08.04-.02s.03.08.05.03c.02-.03,0-.09.02-.13l-.02.02h-.02s-.03-.03-.02-.07l-.06.04-.04-.02h-.03s.02.02.02.02v.03s.02-.02.02-.02c0,.04.06,0,.07-.01.02.01,0,.05-.02.05l-.1.02s-.11-.07-.16-.1c-.01,0-.02-.03-.04-.04-.06-.04-.15-.04-.13-.14,0,0-.06.02-.07.02,0,0,0-.01-.01-.02-.01,0-.02,0-.03,0,0,0,0-.02,0-.02-.01,0-.02,0-.03.02h0s0,0,0,0ZM-.35.73v.02s.02,0,.02,0v.03s0-.02,0-.02h.03s-.02-.05-.02-.05l.04-.03.02.03.06-.03s.02.04,0,.07h.08s.02-.02.02-.02c.02.04,0,.06-.04.08,0,.03.03,0,.04,0,0,0,0,.03.01.03,0-.06.03-.1.07-.15h0s-.02-.01-.02-.01l.03-.03h-.04s-.01.02-.01.02v-.03s-.05,0-.05,0v.02s0,0,0,0c.01-.05-.05-.06-.05-.09,0-.03.04-.03.02-.06-.03.02-.05.05-.04.08l-.02.02s-.02-.06-.05-.04v.08s.03-.03.03-.03l.03.04s.1.03.09.04c-.03,0-.04-.03-.05-.03,0,0-.11,0-.12,0-.02,0-.02.03-.02.03,0,0-.03,0-.03.02h0s0,0,0,0h0ZM-.41-.95s-.04-.01-.03,0c0,.03.18.02.21.03.04.03-.12.04-.13.04l.02.02h.13s-.03,0-.03,0v.03s.05-.03.05-.05h-.07s.04-.01.04-.01v-.02s.04,0,.04,0l-.02.02c.07,0,0-.03,0-.03-.01-.03.02-.02.03-.04,0-.02-.03-.05.03-.05l-.02.04.03-.03h.03c-.03-.05,0-.02.01-.03,0,0,0-.03,0-.04h-.03s0,.02,0,.02l-.05.03-.03-.05s-.11.09-.11.13c-.05.02-.1,0-.15,0h0s0,0,0,0h0ZM3.17,7.23c.15.18.31.34.46.51.11.12.25.3.37.41,0,0,.02.02.04.02.02-.02-.09-.11-.1-.13,0,0,0-.03-.02-.03v-.03s-.03,0-.03,0c0-.05-.02-.05-.04-.07-.05-.07-.14-.16-.2-.21-.04-.03-.04-.05-.08-.09-.12-.14-.27-.25-.38-.41l-.1-.09s.05.08.07.11h0s0,0,0,0ZM.75-1.22s-.06.07-.04.11l.04-.06.04.04c-.01-.06,0-.11.03-.16s.06-.1.07-.15h.04s.01-.05.02-.08h-.05s0-.03,0-.03l-.05.13h-.03c.03.06,0,.08-.01.13-.09-.02-.05.06-.05.09h0s0,0,0,0ZM-.5,1.12s0,.03,0,.04c0,.01-.03.03-.02.05l.04-.03v.08s.01-.02.01-.02l.03.02c-.02-.06-.02-.08.03-.12-.05-.03-.03-.02-.02-.07h-.03s.02,0,.02-.01c0-.02-.02-.02-.02-.04,0-.02.02-.06.01-.08,0-.01-.03,0-.03-.03v-.14s-.03.06-.03.07c0,0-.02,0-.02,0,0,0,.02.05.02.07,0,0,.02,0,.02.01,0,.02-.04.06,0,.08v-.02s.01.03.02.05h-.02s0,.06,0,.09h0ZM4.11-.17s.1.07.14.09c.02,0,0,0,0-.01,0-.02-.01-.07.02-.06v.08s.07.03.11.04c.06.01.14,0,.2,0l-.08-.03.02-.03-.09.04-.12-.05v-.02s0-.06,0-.06c-.03,0-.05,0-.08,0-.02,0-.01-.02-.03-.02,0,.06-.07-.01-.11.02h0ZM-1.07-.15s-.18,0-.22-.02c-.01,0-.03.02-.03.03,0,0,.08.03.08.02,0,0,.02-.02.03-.02.02,0,.05.03.08,0,.01.03-.03.02-.05.03v.04c.06,0,.02-.01.05-.03,0,.03.02.03.03.05h-.04s.04.02.02.05c0,0-.05,0-.05.02h.06s-.02.02-.02.02c.04,0,.07-.03.02-.05.02-.02.02-.04.03-.06,0,0,.02-.02.02-.03,0-.02,0-.04,0-.05,0,0,.06-.04.07-.04.02,0,.04,0,.07-.02.02,0,.06,0,.06-.03-.03.04-.05,0-.07,0s-.05.04-.08.04c-.02,0-.07,0-.07,0,0,0,0,.02,0,.03h0s0,0,0,0h0ZM-2.67.89s.02.07.05.08c-.01-.03-.03-.04,0-.08.03,0,.03.03.04.04,0,0,.02,0,.03.02.01.02.02.06.03.06s.06,0,.07.02c.01.04-.03,0-.03.04.08-.04.06.04.06.04,0,0,.03,0,.04.02s0,.04.01.06c0,.02.05.05,0,.07h0s.05.08.06.06v-.03c.08,0,.01-.02,0-.02,0-.01,0-.03,0-.05,0,0-.03-.01-.04-.03-.01-.03.02-.1-.05-.1l-.08-.1h-.04s-.02-.04-.04-.06c0,0,0-.03-.01-.03h-.08s0,0,0,0ZM-4.25-1.42s-.07.03-.11.03c-.01,0-.03,0-.03.01.04,0,.09,0,.13.01.02,0,.04.07.09.03l.02.04c.05-.05.1-.02.16-.02-.05-.04-.13-.03-.19-.06v-.09s-.04.03-.06.05h0s0,0,0,0ZM2.83,1.15s.02-.01.03-.02c.05-.05.08-.1.14-.14,0,0,.02-.03.03-.04h0v.02s.02-.02.02-.02c-.03-.02-.03-.05-.02-.08.02-.06.11-.12.15-.16,0,0,.05-.12.04-.13-.04,0-.05,0-.05.05,0,0-.03,0-.04.02-.01.01-.06.07-.05.08l.06-.08h.03s-.02.05-.03.06c-.02.02-.07.05-.09.07-.02.02-.02.05-.04.06-.02,0,.03-.08,0-.05l-.02.04.02.02s-.01.05-.01.07-.04,0-.02.03l-.05-.03-.13.23h0s0,0,0,0ZM3.52-1.41s-.06.13-.09.18c-.06.09-.15.16-.17.26.07-.1.18-.21.23-.32,0-.02,0-.05.01-.06s.03,0,.04-.02c0,0,.01-.04.01-.05,0,0-.02,0-.03,0h0ZM-.27-.4s-.03.1-.04.13c0,.07,0,.15,0,.21l.02-.07s-.02-.01-.02-.02c0-.01,0-.13.02-.12v.02s0-.04,0-.05c0-.02.02-.06.02-.09,0-.05-.03-.09,0-.13.01-.02.17-.19.18-.17v.06s-.02,0-.02,0c.01.04-.02.04-.02.05,0,.01,0,.04,0,.05-.01.04-.08.13-.05.16h.02c0,.05-.05.09-.01.15l.03-.02s.02.07,0,.11h.04s.01-.03.01-.03h.02s-.01-.06-.01-.06h-.02s-.03-.03-.05-.04c-.05-.07.03-.18.06-.24h-.03s.04-.17.05-.09c0,.02,0,.03.02.04.01-.04-.02-.09-.02-.11,0-.02.03-.05.02-.07-.01-.03-.08.02-.11,0v-.03s-.02,0-.02,0v-.04s-.03,0-.03,0v.05s.03,0,.03,0v.04s-.05,0-.05,0l.03.02s-.02.04-.03.05c-.01.01-.03.07-.05.09-.01.01-.03.02-.05.03,0,.02.02,0,.03,0,.02,0,.04.07.04.09h0s0,0,0,0h0ZM-.2-2.09s.02.04.02.07c.01.08.01.15.02.23,0,.09.05.21.04.31l.03.07c-.02-.07-.02-.15-.02-.22-.01-.1-.03-.21-.05-.31-.02-.09-.01-.12,0-.21,0,0,0-.06-.01-.06.02.05-.02.09-.02.13h0ZM.82,1.3h.02s0,.13,0,.13c0,0,.02,0,.03,0,.02-.02.04-.14.04-.17,0,0-.03-.04-.03-.05,0,0-.06.02-.06-.03.04,0,.07.03.09-.01l-.06-.05v.04s-.04,0-.04,0c-.01.06.03.06.04.1,0,0-.01,0-.01,0,0,.02-.02.03-.02.05h0s0,0,0,0h0ZM2.56-3.94s-.03,0-.05.01c-.02.03,0,.06-.08.07-.02.02,0,.02,0,.04,0,.01-.04.05-.03.05l.09-.04.15-.19s-.03,0-.03,0c-.02.02-.03.05-.06.06h0ZM0-.27c-.06.03-.03.06-.02.09,0,.03,0,.06,0,.09C0-.03.04,0,.05.05l.11.11.02-.03C.12.13.05.01.05-.03l.02-.02S0-.16,0-.2c0,0,0-.06.02-.05.02.02.03.05.05.07.01.01.05,0,.04.06h.03s0,.05,0,.05c.03,0-.01-.07,0-.08l.03.02v-.07s-.04.04-.04.04c0-.03-.05-.06-.05-.08,0,0,.02-.02.01-.03h-.04s0,.03,0,.03l-.05-.03h0s0,0,0,0ZM.99-1.69s-.02.12-.06.14h.03s.02.01.02.01c0-.02.01-.08.01-.08,0,0,.02,0,.03-.01.01-.01.04-.13.04-.15,0-.01-.01-.02-.01-.02,0-.02.03-.07.02-.1l-.04.07v-.07s-.03.07-.05.1c0,0,0,.01-.02.01.01.02.05.02.06,0h.02s0,.08-.02.1c0,0-.03,0-.04.01h0s0,0,0,0ZM-.69-.29s-.01-.02-.02-.02c-.04.02-.05.05-.08.08-.04.04-.07.04-.07.11l.15-.13s-.02.04-.01.05c0,.01.02.02.02.04,0,.03,0,.05,0,.08,0,0,0,.06.02.06l-.02-.26h0s0,0,0,0ZM.73-1.67c.06.06.12-.06.16-.09v-.05s-.02.05-.02.05c0,0-.1-.01-.07.05l-.05-.03-.02.08h0s0,0,0,0ZM.1-1.1h.07s0,.02,0,.02l.04-.02s-.05.05-.02.08c.06,0,.01.06.07.06l-.02.03s.09-.01.1.02l.02-.04c-.08.03-.06-.01-.07-.02-.01,0-.03,0-.03,0,0,0,0-.04,0-.05,0,0-.05-.03-.04-.07.03,0,.06-.04.05-.07-.01-.02-.03.02-.04.01-.02-.02.03-.02.01-.03-.05,0-.08.05-.13.03v.06s0,0,0,0h0s0,0,0,0ZM-3.71-.12c.08.09.16.18.26.25,0-.02-.01-.03-.02-.04-.05-.06-.13-.15-.19-.2,0,0-.06-.06-.07-.05s.02.04.03.04h0ZM-.29.21h-.05s0-.06.01-.09l.04.03s-.02-.02-.02-.03c-.01-.01.03-.03.01-.06l-.02.03-.03-.03c0,.06-.04.1-.02.17h.09s0-.04,0-.04l.03.02v-.04s-.02-.03-.05-.03c0,.02,0,.04,0,.06h0s0,0,0,0ZM-.03-1.1s0,.05.03.04c0-.02,0-.05,0-.07,0,0-.02,0-.02-.02,0-.03.01-.09-.02-.11v.02s.01,0,.01,0v.04s-.03.02-.07.02c.01.05.03.07.08.06h0s0,0,0,0ZM3.7-.05l.02.02V-.01s.14-.15.14-.15c-.02,0-.08,0-.09.02,0,0-.01.03-.02.04-.01.02-.04.03-.05.05h0s0,0,0,0ZM-1.04-.05s.03,0,.04,0c0,0,.06-.08.07-.09,0-.01,0-.01,0-.03-.02.01-.05,0-.06,0,0,0,0,.01,0,.02,0,0-.03,0-.04.02V-.05h0ZM2.23-3.61s0,.03-.02.04c0,.01-.11.12-.1.13l.11-.08s.07-.07.08-.12c0,0-.07.03-.07.03h0s0,0,0,0ZM-.49-.33s.04,0,.06.03l.02-.02s0,.06,0,.08c0,0,.02,0,.02.01,0,.01,0,.03.01.03v-.08s-.02.02-.02.02v-.11s-.04.02-.06.02c-.02,0-.02-.03-.05-.02v.04s0,0,0,0h0s0,0,0,0ZM-2.33-1.66c.08.06.19.1.29.13-.08-.07-.19-.1-.29-.13ZM0-.49s-.02.05-.02.06c0,.02.02.07.01.1h.09s0-.04,0-.04l-.04.03c-.05-.04-.02-.06-.01-.09,0-.01,0-.02,0-.04,0,0,.02-.03.02-.05,0-.02-.02-.04.01-.05v.07s0-.07,0-.07h-.02s.02-.04.02-.06h-.03s-.03.05-.03.06c0,0,.01.05,0,.07h0ZM-.56.62h.03s0,.11,0,.11h.03s0-.06.02-.08c.01-.01.04,0,.04-.02h-.12s0-.01,0-.01ZM-.29.48s.02-.06.03-.1v.02s.04-.01.04-.01c0-.02-.01,0-.02,0,0,0,0-.02,0-.03,0-.02-.01-.03-.01-.05,0-.01.05-.02.01-.04l-.04.04.02.02v.09s-.02-.03-.03-.05c0-.01-.05-.03-.04-.06h.03s-.04,0-.04,0c0,.02,0,.05,0,.07,0,.02.02.02.02.02,0,.02-.05.07.01.1h0s0,0,0,0h0ZM4.06,8.18s.06.09.09.12c.02.03.06.06.09.1.03.04.05.11.09.14,0,0,.02.02.03.02,0,0-.07-.12-.09-.13s-.06-.06-.06-.06c0-.01,0-.04,0-.05-.02-.03-.09-.09-.12-.11,0,0,0-.02-.01-.02h-.02s0,0,0,0h0ZM-.19-.08c0-.05,0-.11-.06-.09v.03s.03-.01.03-.01v.04c-.07-.02-.02.08.03.04h0ZM3.15-.78s.11-.15.1-.17c0,0-.02,0-.02.01-.03.03-.07.11-.08.15h0ZM.66-.86h.03s.02-.03.02-.03c0-.02,0-.05.03-.07.01-.06-.04-.04-.05-.01,0,.02.01.03,0,.05,0,0-.04.04-.04.04,0,0,0,.02,0,.03h0s0,0,0,0ZM.71.58l-.08.03c.06,0,.12,0,.18-.03.01,0,.04,0,.04-.02l-.14.02h0ZM1.63.09s0,.02,0,.01c.04-.05.11-.1.13-.17-.02.02-.07.06-.09.08,0,0-.05.07-.05.07h0ZM-.26-3.06l.04.12s-.02-.05-.02-.08c0-.02.02-.01.02-.02,0-.02,0-.05-.03-.05-.01,0,0,.02,0,.03,0,0-.01,0-.01,0h0ZM-4.83-1.45l.22.03h.05s-.27-.03-.27-.03h0ZM.26.87s.11-.06.12-.07c0,0,.02-.01,0-.01l-.02-.02s-.02.03-.03.04c-.02.02-.07.03-.08.07h0ZM1.06-1.99s.02-.04.03-.05c.02-.05.03-.11.05-.16-.04.06-.06.14-.08.21h0ZM1.12.87s.04-.06.06-.08c0,0-.02-.02-.03-.01,0,0-.04.08-.03.1h0ZM.58-18.17c0-.05.02-.1.02-.15l-.04-.02-.02.06v-.16s-.04.1-.04.1v-.09s.03-.02.03-.02v-.04s-.05.03-.05.03c0-.03.04-.05.06-.05l-.06-.06.03-.05s-.11,0-.12,0c-.06.01-.06.01-.12.02-.02,0-.14.05-.16.06,0,0-.05.02-.05.02-.01.02.02.06-.05.08-.02,0-.02-.04-.03-.06h-.03s.07-.04.11-.06c.08-.04.19-.09.27-.14.01,0,.09-.06.08-.07h-.02s.05-.05.05-.05v-.04s.03.09.03.09c.04,0,.04,0,.06-.03.02.04.03.1.07.11h0c-.06.03.02.06-.02.1l-.03-.07-.03.06s.05.03.04.05c.01.02.05-.02.05-.03,0-.03,0-.06.01-.08h-.02s.07-.02.07-.02c.01.05-.02.05-.02.11,0,0-.04.03-.04.03,0,.01,0,.03,0,.05-.02.04-.06.07,0,.1v-.05c.02.06.04.12.02.18,0,.03-.03.06-.04.08h0s0,0,0,0ZM.38-18.66s-.01.03,0,.03c.06.02.07-.04.12-.06,0,0,.02-.03.01-.04,0,0-.04.02-.04.03,0,0,0,.02-.02.03-.02.01-.04,0-.06.01h0ZM.65-18.57s.03.02.05.02c0,0,0-.02,0-.03,0-.08-.03-.18-.03-.26,0-.03.02-.04.02-.06s-.02-.15-.01-.16h.03s-.01-.03-.01-.03c.03-.03.03.03.06.02,0-.03.04-.05.06-.08,0-.02,0-.04.02-.05l.02.03c0-.05-.03-.09-.02-.14l-.03-.02v.03s-.05,0-.05,0v-.04s-.03.02-.03.02l.04-.04s-.06,0-.07,0c0,0,0,.02-.01.02-.01,0-.03,0-.04,0,0,0,0,.02-.01.03-.02,0-.03-.01-.05-.02-.01,0-.13.02-.11.03.08-.02.17-.04.18.07l-.04-.03-.03.09s-.02-.08-.06-.06l.03.06-.04-.02v.05s-.02,0-.02,0c0-.03.02-.01.02-.04h-.02s.02-.02.02-.02c-.04-.07,0-.05.02-.07,0,0,.03-.07.02-.07h-.04s.01.03.01.03h-.09s.03.01.04.03c.03.04,0,.04,0,.04,0,.01.02.03,0,.04-.04-.03-.02-.05-.01-.09h-.03c0,.08-.03.16-.02.26-.01,0-.04-.22-.04-.24s-.04-.04-.02-.07c-.02,0-.03.01-.03-.02h.1s.01-.09.01-.09h.06s-.01-.04-.01-.04l.03-.02-.02-.03h.03s-.02-.07-.02-.07c.05.04.02.12.09.13v-.05s.03,0,.03,0l-.02.05s.07,0,.05.05c.04-.03.05.02.1,0-.03-.03-.02-.08-.02-.13h-.03s-.05-.08,0-.07v.05s.04-.02.04-.02l.02.09-.02.02s.04.03.03.05c0,0-.02,0,0,.03l.07-.05s-.07-.1,0-.13c0,.04,0,.05.02.08,0,.02,0,.05.03.05.03,0,.16-.06.17-.04,0,.05-.04.07-.06.1-.01.02-.02.04-.03.05-.02.03-.06.03-.07.07s.01.06.01.09-.02.03-.02.06v-.04s-.02.02-.03.02-.03,0-.04,0c0,0-.02.07-.02.08,0,.02,0,.09.03.07-.03-.04,0-.11.02-.04h.07s-.04-.02-.04-.02l.07-.04-.03-.07s.06.04.07.04c.02,0,.03,0,.02-.03l.06-.06v.02s.09-.06.09-.06v.02s.02-.06.02-.06c.02-.02.03.04.03.04,0,0-.04.06-.05.04.01.03-.05.11-.06.11l-.04-.02s-.02.02-.03.04c0,0,0,.17.01.18.01.04.05.01.05.01,0,.02-.02.03-.02.05,0,.03.02.03,0,.07h-.02s-.02-.06-.02-.08c0-.05.01-.13,0-.19l-.06.19s.01.04,0,.06c0,0-.04.09-.04.09-.03.02,0-.03,0-.04,0-.01,0-.03,0-.04,0-.02.04,0,.03-.03h-.04s.01-.13.01-.13c-.02,0-.02.02-.02.04s.01.05,0,.06l-.02-.16s0-.01-.01,0c-.01.02-.01.02-.04.03-.03,0-.02-.02-.05.04h-.01c-.06.05.02.07.01.14l-.03-.03s-.02.1,0,.04c.02,0,.02.04.03.05.04.03.02.02.05.06.02.02.05.04.05.08.04,0,.01-.06.01-.08l.02.02v-.02s.02.06.02.06l.03-.02v.04s-.09,0-.08.03l-.12-.16h-.02s0,.05.01.05c0,0,.03,0,.03.04,0,.04-.06.04,0,.08v-.03s.06.18.06.18l.03-.02c.03.07,0,.02-.02.03.01.04-.05.05-.03.08.02.05.06-.05.08-.07.03-.04.04-.04.06-.08,0,0,0-.02,0-.03l.08.02s-.04.05-.04.06c0,.02,0,.07-.02.09-.04,0,0-.09-.04-.08,0,.04-.02.04-.03.06,0,0,0,.03,0,.03,0,0-.03,0-.04,0,0,0-.03.04-.04.05v-.02s-.04.01-.04.01v.03s-.03-.03-.03-.03v.07s.06,0,.06,0c-.07.02-.12.1-.15.16-.03.05-.02.08-.06.13-.05.05-.02.03-.04.07,0,0-.04.04-.06.06-.21.29-.37.66-.57.97-.08.13-.16.26-.26.38-.02-.02.02-.04.03-.06.02-.04.04-.08.05-.11.21-.36.42-.72.63-1.07.04-.06.15-.21.14-.27,0-.05-.02-.1-.03-.15,0-.06.01-.15.02-.21.02,0,0,.02,0,.03,0,.11-.03.22,0,.32l.02-.08h.03c.02-.06.02-.12.04-.19,0,.01,0,.03,0,.04,0,.03-.02.08-.02.11h.02s.11-.18.11-.18c0-.12-.04-.26-.04-.38h0s0,0,0,0h0ZM.49-19.38l-.03.07h.07s.02-.03.01-.08v.02s-.05-.02-.05-.02ZM.67-18.44s0,.13.02.17c0,.01,0,.03.02.02.02,0,0-.1,0-.13,0-.01-.02-.02-.02-.04,0,0,.01-.15-.02-.12-.02.02,0,.06,0,.09h0ZM.7-18.49s.01.04.02.05c0,0,0,.03,0,.04,0,0,.02,0,.03,0s.03.06.04.06c.03-.03,0-.04-.02-.07,0-.02,0-.04-.02-.06l-.02.02v-.05s-.03,0-.03,0h0s0,0,0,0ZM.82-19.35l.03.09s.06-.08.06-.09c.03.02.06-.04.08-.07-.03,0-.07.02-.1.03-.03.01-.04.05-.07.04h0s0,0,0,0ZM1.03-19.13v.04s.06.02.06.02c.01-.04-.04-.07-.06-.06ZM1.16-20.98s.05-.03.1-.02c-.02-.03-.06-.03-.05-.08h-.02s-.01-.15-.01-.15l-.04-.04s.03,0,.04.02l.04-.02c0,.13.04.03.1.04v-.06s-.04.04-.04.04v-.05s-.01-.04-.01-.05c0-.01.03-.05.02-.08l-.04.05-.02-.02v.04s-.05.02-.05.02c-.07,0-.07-.03-.09-.09-.03.03.01.09.04.12v.09s.02,0,.02,0v.07s-.02-.01-.02-.01c0,0,.02-.05,0-.05,0,.04-.02.04-.04.04l.02.02s-.06,0-.05.03c.02.04.06,0,.08.04.01.03-.01.04,0,.05,0,0,.01.02.02.04h.01s0,0,0,0h0s0,0,0,0ZM1.26-20.95s-.04,0-.06.03c0,0,.03.03,0,.04-.03,0-.08-.06-.04-.07,0,0-.02-.01-.02-.02v.03c-.05-.06-.08-.03-.08.04l.03-.05s.07.15.06.17l.03-.04h.03s-.01.08-.01.08c.01.02.04,0,.04.03,0,0,0,.02-.02,0,0,0,0-.02-.02,0-.02.01,0,.02,0,.03-.01.04-.07.01-.08.03-.02.03.02.03.02.03.02.03-.02,0-.03.03.02,0,.07-.03.09-.01,0,0,0,.03.01.03l.02-.07s.04.02.07,0c0,0,0-.02.01-.02.04-.02.02.04.01.04h-.02s0,.03,0,.03c-.04,0-.02.03-.04.04v.02s.03.01.03.01l-.02.04v-.03s-.03,0-.03,0v-.04s-.02,0-.02,0c0,.02,0,.06-.02.07,0,0,.04,0,.03.03-.02,0-.04.03-.03.05h-.03s.02-.03.02-.03l-.04-.02v.03c-.06,0-.06.05-.1.05.01-.02.03-.04.04-.06.02-.02.03-.03.04-.05.02-.02.05-.01.04-.06h-.05s-.02.05-.03,0c0-.03-.02-.05-.02-.06,0,0,.02,0,.02,0,.02-.05-.06-.04-.07,0-.02-.05-.05-.02-.07-.03,0,0,0-.01,0-.02,0,0-.01,0-.02,0,0,0,0-.02-.01-.02,0,.03,0,.08.03.1.01.01.03,0,.03,0,0,0-.01.03,0,.04.01-.03,0-.05.04-.05l.02.12h.02s0,.01,0,.01h-.07s.01.06.01.06c-.02,0,0-.04-.03-.03-.01,0,0,.04-.05.03v.03s-.03,0-.03,0l.02.07s.01-.06.04-.05l.04.07v-.06s.05,0,.05,0v.09s-.01-.01-.02-.02c-.02-.01-.06,0-.04.03,0,0,.01-.04.03,0,0,.02-.01.01-.02.02v.02s.03-.01.03-.01c-.02.04.05.05.07.03,0,0,.02-.05,0-.06-.03-.01.01.05-.02.04v-.03s-.04.02-.04.02l-.02-.03h.06s-.01-.06-.01-.06l.03.03.03-.04h.04s.03-.05.03-.06c0,0-.01-.02,0-.03s.03-.01.04-.02c.01-.02,0-.05.02-.06l.03.02s0-.06,0-.09c0-.02,0-.05.02-.08,0,0,.03-.02.03-.04l.02.07v-.02s.04,0,.04,0c0-.04.04-.05,0-.09l.04.02s-.06-.05-.04-.09c.08.05.03.13.06.21.03,0,.01-.04,0-.06v-.02s.03,0,.06.02c.04.02.03.06.02.09l.02-.03s.02.06.01.07c0,.01-.03,0,0,.04l.05-.03-.02.06.04-.02.02.03s-.04.01-.06.02v.04s-.03,0-.03.02c.06-.01.04.03.06.06,0,.02.04.02.03.07h-.05s0,.04,0,.04h.04s0,.02,0,.02h.02s-.01.03-.02.04c0,.01,0,.03,0,.04,0,0-.03,0,0,.06.03,0,.04-.02.05-.03s.03,0,.04,0,0-.05.04-.05h-.06s.04-.04.04-.04c-.03,0-.05.02-.05-.03l.06.02c-.02-.06,0-.03.01-.04,0,0,.01-.03.03-.03h-.02s0-.12,0-.12h-.02s-.01-.01-.01-.01h.02s0-.05,0-.05c-.05.03-.06,0-.1-.03l.03-.02v-.06s0-.02,0-.02c-.07.01-.05-.07-.01-.05.02.01,0,.06.04.05v-.05s-.06-.03-.06-.03c.05-.03.07.04.12.02v-.08s-.01.01-.01.01c0-.04-.06-.06-.04-.12l-.03.03-.02-.03-.02.02s0-.06-.05-.04v.03s-.02,0-.02,0c0,0,0,.02-.01.02v-.05c-.08.03-.07-.04-.08-.05,0,0-.03,0-.04,0,0,0,0-.03,0-.05,0-.02-.03-.02-.02-.04-.03.01,0,.05.01.07,0,.04-.02.07,0,.11h-.04s.02-.07.01-.11c-.02,0,0,.02-.01.04,0,0-.04.04-.05.03v-.04s-.02.03-.05.02c0,0,.02-.07-.01-.07v.07s-.01-.02-.01-.02v.02s-.06-.02-.06-.02l.02.04s-.02.01-.04,0v.04s-.02.01-.02.01c-.03-.05,0-.07-.03-.11,0,0,.08-.01.03-.03l.05-.03v-.02s0,0,0,0c0-.02,0-.04-.02-.06v.05s0,0,0,0h0s0,0,0,0ZM3.48-21.41s.04.11.05.15l-.02.02v-.04s-.02.02-.02.02l-.05-.03s0-.08-.03-.12c.02-.02.06.09.06.1.02,0,0-.05-.01-.07,0-.01,0-.02,0-.02h-.02s0-.03,0-.03l-.09.04v.05s-.02-.03-.02-.03c0,.04.02.07,0,.1h.04s0-.01,0-.01v.03s.02-.02.02-.02c0,0,0,.02.01.02.04.03.13.04.18.07.11.05.25.13.36.2.02.01.03.03.03.04.02,0,.04,0,.06.02,0,.03-.09.06-.1.09,0,.01,0,.04-.01.05-.04.1-.09.19-.11.29h-.07s0,.03,0,.03h.03c0,.06,0,.17-.07.21.02.05,0,.09.03.13.03.02.06-.05.08.05,0,.02,0,.04,0,.05l-.03-.08s-.06,0-.02.03c0,0-.04.01-.03.05,0,0,.04,0,.04.03,0,.02-.03,0-.04,0,0,0,0,.01,0,.02,0,0-.02.02-.01.03.03-.04.07-.06.12-.04,0,0,0-.02,0-.03.02,0,.05,0,.07,0,0,0,0,0,0,.02h0s.08.03.08,0h.02s0,.02,0,.02h.21s.01,0,.02.02c.05.03.04-.02.06-.02.04-.02.14-.02.14.04.06,0,.03-.06.08-.07v.02c.02-.05.05-.01.07-.01.02,0,.08-.04.04-.04-.05,0-.12.02-.17,0l.02.03c-.06.02-.1.01-.16,0,0,0,0-.02-.01-.02-.02,0-.11.02-.14.03-.08,0-.16,0-.24,0v-.02s-.04,0-.04,0c0-.03,0-.05,0-.08,0-.05-.03,0-.03,0,0,.03.01.05.01.07,0,0-.01,0-.02.03,0,0-.02-.01-.03,0,0-.02.01-.1,0-.11,0-.02-.05-.03-.07-.06,0-.01,0-.11.01-.13.02-.07.08-.14.11-.21.06-.12.1-.25.17-.37.01-.02.05-.03.04-.07l-.54-.27c0-.06-.02-.15-.06-.19.02-.03.06-.03.08-.04.02,0,.03,0,.04-.02.07-.03.16-.06.23-.1.01,0,.03,0,.02-.02-.06.03-.14.05-.2.07-.03,0-.16.04-.17.03-.01,0-.01-.02-.02-.03-.09-.06-.15-.1-.24-.17-.02-.02-.03-.05-.07-.05v.04s.04,0,.04,0l.05.05c-.05-.01-.18-.02-.17-.09,0,0,.02,0,.02-.01v-.02s.02,0,.02,0v-.09s.04,0,.04,0c-.03-.04.02-.02,0-.06h-.05s0,.03,0,.07c-.05-.02-.04.02-.02.06-.03-.03-.03,0-.05,0,0,0-.07,0-.06-.03h.03s0-.01,0-.01c0,.02,0,.02.02.02l.04-.07h-.02c.02-.05.04-.08.09-.09-.01.04,0,.02.02.05v-.11s-.08.05-.08.05c-.07,0-.15.02-.17.09l-.18.08.22-.05h-.03s.1-.05.1-.05v-.02s.02,0,.02,0v.03s-.04.02-.06.03c-.01,0-.01.03-.03.03h.02s-.02.05-.02.05l.05.04h.03c-.01.05,0,.03.02.06,0,0,0,.03,0,.04,0,0,.04.03.04.05v-.03s.02,0,.02,0v.09c.05.01.11.01.14.05.02.02.02.05.05.05,0,0,.06,0,.06-.01-.08.02-.04-.05-.09-.09.02.08-.02.02-.04.01-.03-.01-.07-.03-.1-.04v-.04s.02.02.02.02l.02-.02-.02-.02s.08.02.11.03.14.05.17.07c0,0,0,.02,0,.02,0,0,.04.02.06.02h-.04s.03.04.03.04h-.05s.01.04.01.05c0,0,0-.01.02,0h0s0,0,0,0h0ZM1.58-19.79c-.01-.07.04-.14.01-.21.02,0,.04.06.04.07,0,.02-.03.02-.03.05.07.04.08.02.11-.04l-.03-.05.03-.04.03.05v-.02s.05,0,.05,0h0s.06-.06.04,0l-.02-.02s-.07.07-.09.13c0,0-.02-.06-.03.01h.03c0,.06.05.12-.02.14v-.02s-.02,0-.02,0c-.01-.05.05-.05,0-.08-.03.02-.04.1-.05.11-.03.03-.08-.01-.04.1l-.04.02v.05c.04-.05.07,0,.12,0v.04s.02,0,.02.01c.04.05.07.1.11.15h-.02s0,.02,0,.02l-.02-.02c0,.05,0,.09.03.13-.04,0-.04-.04-.04-.07l-.03.06c.02.14.02.28.04.41,0,.05.04.16.04.19,0,.02-.02.04-.02.05,0,.05.04.09.05.13.05.13.03.27.05.41.01.12.04.28.06.4,0,.05.04.11.05.15,0,.03,0,.08,0,.11,0,.17.03.37.05.55v.32s0-.02,0-.03c-.01-.11,0-.23-.02-.34-.01-.16-.03-.32-.04-.49,0-.15-.03-.26-.05-.4-.02-.17-.03-.36-.06-.53-.02-.09-.07-.19-.07-.27,0-.13-.01-.24-.04-.37,0-.02-.02-.05-.02-.05,0,0,.02-.02.02-.05,0,0-.03-.03-.03-.07h.02s-.02-.04-.02-.05c0-.04.03-.07-.02-.1l.03-.02v-.02s-.05-.06-.09-.07c.02.04,0,.07.01.11,0,0,.03.06-.01.06-.02,0-.04-.04-.04-.06h.04s-.02,0-.02-.02c0-.03.03-.04.02-.07h-.06s.02.06.02.06l-.05.04s.02,0,.02.03c-.05-.02-.06.01-.06.06h.04s-.01.06-.01.09c0,0-.01.08-.03.06,0,0-.01-.03,0-.03.02-.01,0-.07.02-.09l-.02.02h-.02s.04-.23.04-.23h-.04s-.02-.02-.02-.02h.02s0-.03,0-.03c-.03,0-.02-.04-.06-.02,0,0,.01-.06.02-.07,0,0,.03,0,.04-.01.01,0,0-.03.02-.04v.05s.04-.07.04-.07l-.02-.09h-.05s.04,0,.04,0c0-.02-.02-.01-.03-.02-.02-.02,0-.03.01-.05.03.05.08,0,.1-.05.02-.03,0-.02.03-.04,0,.03.02.02.04.04-.02-.07,0-.04.01-.05.02-.02,0-.05-.02-.05-.02.02,0,.04-.03.06h0s0,0,0,0ZM1.47-19.67l.03.09h.03s.01,0,.01,0v-.03s-.02-.04-.03-.07h-.04s0,0,0,0ZM1.54-19.45l-.02.06s.06,0,.09.02l.04-.13-.05.02v-.02c-.06.03-.02.04-.04.07l-.02-.02h0s0,0,0,0ZM-1.8-13.9s.05-.06.06-.09c.08-.17.14-.33.23-.49.03-.05.09-.16.11-.2.01-.02.04-.02.04-.02,0,0-.01-.03,0-.05,0-.02.09-.13.11-.17.14-.25.26-.51.43-.75l.22-.39s-.11.16-.12.17c-.21.3-.4.61-.57.95-.07.14-.16.27-.23.41-.04.06-.07.12-.1.18-.03.05-.08.18-.11.24-.01.03-.09.18-.06.2h0s0,0,0,0ZM.55-19.55v-.04s0-.02,0-.02c.07.03.02,0,.05-.03v.05s0-.07,0-.1c.03,0,.02.03.05.05.02,0,.03,0,.05,0v.04s.08-.02.08-.02l.02.06.04-.04h-.03s0-.06,0-.06h-.09s-.03-.1-.03-.1v.04c-.06,0-.04-.13-.02-.15h.07s-.03,0-.05-.02c.02-.03-.04-.03,0-.06,0,0,.02,0,.03,0v-.05s.04.08.03.03c-.01-.06-.02-.12-.03-.18l-.03.09v-.07s-.04.01-.04.01c0,0-.01-.1-.04-.11v-.04s-.01.08-.01.08h.02s0,.02,0,.02h-.02s0,.09,0,.12c0,.02.02.03.02.05,0,.04-.03.04-.03.05,0,.02.02.11.02.15,0,.06-.02.11-.03.17h0s-.02,0-.02,0c0,.03-.02.08.02.09h0s0,0,0,0h0ZM1.53-18.42s0-.06,0-.09h-.04s-.02-.04-.02-.04c-.02,0-.03.01-.04,0l-.02.04-.04-.03-.02.03s-.02-.02-.02-.02.03-.06,0-.06c-.01,0,0,.06-.04.06v-.03s0,0,0,0v-.03s0,0,0,0h0s-.05-.04-.05-.04l.02-.02-.09-.02c0,.07-.08.09-.03.02l-.04-.04s-.02.03-.02.05l-.03-.03s.01.03,0,.04c0,.02-.05.08-.05.1s0,.04,0,.05c.01.02.05,0,.05.03l-.1-.02v-.02s.02-.07.03-.09.02-.05.03-.07c0-.02,0-.07.01-.07,0-.01.02,0,.02.02v-.02s.07.02.07.02c0-.04-.03-.03-.02-.08h.03s-.02.03-.02.03c.03,0,.06.05.06.07h.03s0,.02,0,.02c.04-.03.07.05.09.05.02,0,.02-.07.03-.08.03-.04.06.01.05.05.05-.02.05,0,.07.02.01,0,.04,0,.05.01.03.03,0,.08,0,.1,0,0,.03.03.04.02v.06s.03-.01.03-.03h.02s0-.02,0-.02h-.02s.03-.05.03-.05l.04.02h.02s-.02-.19-.02-.19c.04.04.02.09.02.12,0,.01.02.02.02.03,0,.02-.03.07,0,.11,0,.01-.07-.03-.06.01h.05s-.02.04-.02.04c-.02-.05-.05-.03-.09-.02-.01,0-.03,0-.04,0,0,0,0,.03-.02.02,0,0,0,.03.02.03,0,0,0,0-.01,0-.03,0-.14-.07-.15-.07-.03,0,.02.06-.02.05v-.04s-.03,0-.03,0v-.06s.03,0,.03,0v.03s.14.05.14.05v-.02s.03.02.03.02h0s0,0,0,0h0ZM1.38-18.64v.07s.03-.03.02.01h.02s.02-.06.02-.06h-.05s0-.02,0-.02h-.02s0,0,0,0ZM2.36-9.7l.05-.02c-.01-.52-.05-1.04-.09-1.56,0-.06,0-.09,0-.14,0-.05-.03-.1-.01-.16l-.03-.02.11,1.82v.07s-.02,0-.02,0v.03h0ZM3.02-21.11l.02-.02v.03s.02,0,.02,0l.12.19c.05.01.03.02.04.05.06.1.17.2.23.3.02.04,0,.05-.01.08h.02s-.04.02-.04.02v.04s.03,0,.03,0l.06-.07c.07-.02.09-.07.14-.12-.04.02-.04-.03-.08-.04v.04s.03,0,.03.01l-.03.02.02.02s-.04-.01-.09-.02v-.04s-.09-.06-.12-.09c-.02-.02-.04-.06-.06-.09,0,0-.02,0-.02,0-.02-.02.05-.02.03-.06-.01-.03-.05.01-.06,0v-.04s-.02,0-.02,0c-.01-.06-.02-.04-.04-.05,0,0-.1-.14-.11-.16-.02-.03,0-.05-.01-.06,0,0-.02,0-.02,0,0-.01.02-.05.02-.08,0-.02-.02-.03-.02-.05,0-.02.02-.04,0-.06h-.03s-.02.05-.02.05c.05.02.03.05,0,.02-.01.04,0,.06.02.09h-.03s0,.08,0,.08h0s0,0,0,0ZM4.46-16.21l-.06.03-.04-.16v.02s-.07-.03-.07-.03c0,.02.01.04.01.07,0,.04-.02.04.02.06l-.02.02s.07.07.12.04c.07-.04-.02-.13,0-.21,0,0-.01,0-.02,0-.01-.14-.07-.2-.11-.32-.06-.17-.12-.39-.17-.57-.11-.39-.21-.79-.29-1.19-.03-.13-.1-.45-.06-.57,0-.02.02-.03.02-.04,0-.05-.08-.09-.03,0h-.07s0,.08,0,.08l.04-.03c0,.07-.02.13,0,.2,0,.02.02.03.02.04,0,.02-.03.04-.03.06,0,.03-.01.08.02.1v-.05s.06.11.06.13c.04.19.07.39.12.59.1.42.24.83.34,1.24,0,0,.02,0,.02.01.01.09.08.15.1.22,0,.02,0,.08.01.11,0,0,.01,0,.02,0,0,.06,0,.1.03.17h0s0,0,0,0ZM1.95-19.1s.04.02.03.06l.03-.02s.06.13.09.14c0,0,.02,0,.03,0,.08.06.17.21.25.28,0,0,.02.01.03.02.01-.02-.06-.08-.07-.09,0-.02,0-.04,0-.04,0,0-.08-.04-.07-.09h-.03s-.02-.08-.03-.12c-.01-.03-.04-.05-.06-.08-.01-.03-.02-.06-.04-.09v.02s0,.09.06.12l-.02.09s-.02-.07-.03-.08c0,0-.05,0-.03-.04l.03.02s-.02-.05-.02-.06c-.02-.03-.01.03-.02,0-.01-.03-.04-.04-.03-.07-.03,0,0,.02-.02.04h-.03s-.09-.12-.09-.1c0,0,.03.08.03.09h0s0,0,0,0h0ZM3.33-19.13l-.03.03.15.03.04-.03v.04s.05.02.07,0c-.03-.03-.01-.06-.06-.04v-.03s-.04.04-.04.04l-.04-.03v.02s-.02,0-.03-.02c-.04-.08-.05-.12-.04-.21.02-.15.07-.27.13-.41.01-.03.04-.06.03-.11h.02s0-.05,0-.05c-.02-.02-.07.1-.08.11-.02.06-.04.1-.03.17-.04.01-.02-.03-.05-.02l-.04.14h.02s0,.12-.01.14c-.02.03-.02-.03-.04-.03v.08s.01-.02.01-.02c.03.05-.05.12,0,.16v-.02s.02.06.02.06l.02-.02-.02.05-.02-.03h0ZM2.2-20.52l.05-.02s-.04.05,0,.04c.04-.01.06-.03.09-.07-.01-.02-.08.08-.07.02,0,0,.02-.01.02-.02,0,0,0-.02.01-.03.02-.03.07-.09.11-.08v-.06s0,0,.01-.01c.02-.03.06-.14.08-.16.02-.02.04,0,.05-.01,0,0,.04-.05.04-.06l-.03-.02s.06-.06.07-.07-.01-.04,0-.06l.04-.02s-.04-.01-.03-.05c-.02,0-.01.03-.02.05-.05.08-.12.17-.17.26-.02.03-.02.07-.06.08l-.04-.03v.03s-.05-.04-.05-.04c-.02.05,0,.05.03.09l.02-.03.04.02s-.03.01-.04.02c0,0-.07.13-.09.16-.01.02-.03.05-.05.05v.02s0,0,0,0h0s0,0,0,0ZM.43-19.12l.03.06.02-.05s0,.07.02.1c0,0,.02,0,.02.01s0,.13.02.13c.05-.01,0-.09.06-.06l-.03-.04h.03s-.02-.08-.02-.08h.03c0,.06.06.17,0,.21,0,.02.03,0,.04,0,.02.01.01.05.01.07l-.03-.04.03.09s-.05.03-.07,0c.02-.05-.03-.04-.04-.08,0-.03.06-.04.04-.08l-.06.02-.06-.1v.05s-.03,0-.03,0v-.08s-.01,0-.01,0v.05s0-.21,0-.21h0s0,0,0,0h0ZM.44-19.05s.02.08.05.11c0-.02,0-.04,0-.06,0-.01-.02-.06-.04-.05h0ZM3.72-19.42s0,.08.05.09v-.1s-.03.01-.03.01c0-.06-.01-.13-.03-.18,0-.02-.04-.03-.03-.06h.03c-.04-.05-.02-.14-.04-.19.03,0,.05.03.06.05.07-.04-.02-.05-.03-.06.03,0,0-.04.01-.07-.02,0-.04.06-.05.06,0,0-.02,0-.03,0-.03.02,0,.14,0,.16,0,0-.01,0-.02,0-.02.04.07.24.09.28h0ZM2.02-20.18s.09,0,.12.06l-.02.02c.07.01.13.05.19.08.01,0,.03,0,.03,0,0,0,.05.05.05.05.02.06-.02.06-.03.07,0,0,0,.03-.01.04,0,0-.03,0-.04.01-.04.03-.08.07-.11.1h.02s-.03.02-.02.06c0,.01-.03,0-.04,0-.04.02-.04.07-.01.05.02-.01,0-.06.03-.04,0,0-.03.05.03.03,0,.02-.03.02-.04.02,0,0,.02.05,0,.07.02,0,.03-.02.05,0l-.02.03h.02s-.03.03-.03.03v.03s.05,0,.05,0l-.02-.02h.03s-.04-.2-.04-.2h.06s0-.05,0-.06c0-.02.05-.09.06-.09.01,0,.03,0,.04-.01.02-.01.02-.05.06-.03v-.03s.04-.02.04-.02c-.03,0-.02-.02-.02-.05,0-.02-.07-.04-.08-.05-.01-.01-.03-.06-.04-.06,0,0-.03,0-.05-.01-.04-.02-.06-.06-.11-.04v-.05s0,.04-.05.03v-.03s-.05.01-.05.01l.02-.03-.04.02v-.04s-.02.02-.02.03c0,0-.03,0,0,.02h0s0,0,0,0h0ZM1.9-19.83h.04s.02.09.02.09c.02,0,.01-.04.02-.05,0,0,.02,0,.03,0,0,0,0-.02.03-.03.02,0,.04,0,.07,0,0-.02-.01,0-.02-.01,0,0,0-.03,0-.04,0-.02-.02-.03-.03-.05l.02-.02s.04,0,.03-.01c-.02,0-.04-.02-.06,0,0-.04,0-.07-.03-.08,0-.07,0-.03.03-.04.01,0,.03,0,.04-.01l-.02-.05-.04.02-.02-.02h.02s-.04-.03-.04-.03c-.01.02,0,.08-.02.07l.02.04s0,.02,0,.04c0,.07-.03.14,0,.2h-.05s0-.08,0-.08c-.05,0-.05,0-.04.06h0s0,0,0,0ZM2.33-20.59l.07-.02s-.03.03-.04.05c0,0-.01.03,0,.03.06-.12.16-.19.24-.29,0,0,.02-.01.03-.02.01-.02,0-.04,0-.04,0,0,.03,0,.03-.02s0-.03.01-.04c0,0,.02,0,.03,0,.02-.03.03-.07.03-.11.07.02.03-.04.05-.07,0-.01.05-.01.06,0v-.05s0,.03.02.02c.01,0,0-.02,0-.02l.02.04s.02-.04.06-.03l-.06-.07s0-.05.04-.06l-.03-.03c-.04.06-.08.12-.12.18-.05.07-.08.13-.12.2-.01.02-.04.03-.05.05-.04.06-.08.14-.15.18l.02.02s-.05.03-.07.05c-.01,0-.03,0-.03,0,0,0-.01.06-.05.07h0s0,0,0,0h0ZM3.15-19.77s-.05.06-.06.07,0,.03-.02.04c0,.01-.06.04-.07.06-.02.03.03-.01.03.02,0,.07-.05.16-.05.26,0,.05.03.06.03.06,0,.02-.02.04-.02.06l.02.02s.01,0,.03,0v-.08s-.05-.02-.05-.02c.02-.03.01-.06,0-.09h.03c-.02-.05-.02-.08,0-.13.01-.03,0-.01.01-.05.02-.08.15-.23.21-.28.02-.02.17-.11.18-.11v.02s0-.05-.03-.05v-.04s-.03,0,0,.03c-.04,0-.03.03-.05.05-.01.01-.05,0-.06.02,0,0-.01.02-.02.03-.02.01-.03,0-.04.04h-.02s.02-.03.02-.03h-.04s.02.04,0,.05v-.12s.03,0,.03,0l-.02-.02s.05-.07.07-.11l-.06.04s-.02-.04-.03,0c0,.03,0,.08,0,.11l-.03-.08.02.23h0s0,0,0,0h0ZM3.28-20.3c-.02.06.06.09.11.08,0-.02-.02-.03-.02-.03,0,0,.02-.02.02-.03,0,0-.05-.08,0-.09,0,.03,0,.12.03.14.01,0,.03,0,.05.01.04.02.06.06.09.08.04.04.07.01.09-.03h-.06c-.02-.05-.04-.03-.07-.05-.02,0-.04-.02-.06-.03,0,0-.02,0-.02,0-.03-.02-.02-.06-.03-.09,0-.03-.02-.04,0-.08-.01-.01-.06.05-.07.06-.02.01-.07.04-.08.06h0s0,0,0,0h0ZM1.21-19.03c.05-.03.03.02.03.03l.03-.02v.05s.03-.08.03-.08l.04.02.02-.06.04.03v-.07s-.03-.06.02-.04c0-.03,0-.02-.02-.02l.02-.06s-.06.08-.06.08c-.02.01-.07,0-.09.05l.04.03-.04.06s-.03,0-.03,0c-.01-.01,0-.04-.03-.03v.05s0,0,0,0h0ZM1.2-19.49h.05s0,.08,0,.08c.03,0,.02,0,.02-.02,0-.02,0-.04,0-.06h.02s-.02-.08-.02-.08h.03s0-.01,0-.01c.03.01.03.04.02.07,0,0,.06-.05.07,0-.03,0-.05,0-.08.02-.04.04.04.04.06.06.04-.03.03-.08.03-.12-.03,0-.04,0-.07.01v-.07s-.07.02-.1,0c0,.02-.04.05-.04.05,0,.02,0,.05,0,.07h0s0,0,0,0ZM4.23-21.06s.05-.03.08-.04c.02-.01.05-.01.07-.03s.01-.05.03-.06c.02-.01.06-.02.06-.02,0,0,0-.03.02-.05.02-.03.1-.08.12-.1.01,0,.03,0,.04,0,0,0,.03-.09.01-.1-.01,0-.02,0-.03,0-.04.02-.09.11-.12.14-.02.02-.05.03-.06.05.03,0,.02.02,0,.04-.02.02-.05,0-.06,0-.02,0-.04.07-.08.04,0,.06-.06.08-.1.12h0s0,0,0,0ZM2.09-14.36c0,.07.01.14.01.2l.02-.02c.03.14.02.29.03.43.02,0,.01-.02.01-.03,0-.14-.02-.28-.03-.42,0-.07,0-.15-.03-.21h.03s-.04-.62-.04-.62c-.02,0,0,.06,0,.07h-.02s0,.12,0,.12l.02-.02s-.01.04-.01.04c0,.02.02.38.02.45h0s0,0,0,0ZM2.26-11.62l.03-.02v.03c0-.11,0-.24-.01-.35,0-.02-.03-.01-.02-.04l.02.02v-.17s-.04-.01-.04-.01v.06s.02-.01.02-.01v.04s-.02,0-.02,0l.02.47h0s0,0,0,0ZM3.96-16.72s-.05-.11-.11-.11c.03.08.11.12.13.21l.02-.05.02.03h-.02s0,.03,0,.03l.12.11c0-.1-.1-.16-.16-.22h0s0,0,0,0ZM1.27-18.09s0,.1.03.12c.02-.04.02-.09,0-.14,0-.03-.03-.04-.02-.08,0-.03.03-.06.02-.09h.04s-.02-.03-.02-.03c0-.02.02-.03.02-.03,0,0,0-.02,0-.03,0-.01.03,0,.02-.03-.06,0-.04.06-.06.1,0,.02-.02.02-.03.03-.03.05,0,.12,0,.16h0s0,0,0,0ZM2.34-9.91h0s-.08-1.19-.08-1.19h0s.08,1.19.08,1.19ZM2.62-19.92s.03-.02.04-.02c0,0,.06.03.09.01v.02s.05-.02.05-.04l-.12.02s.02-.01.04-.03c0-.01,0-.03.02-.04.01-.01.05-.02.07-.03.05-.02.03-.02.09-.04.03,0,.05-.04.06-.05.03-.01.09.04.1-.06h-.03s-.02.04-.02.04v-.07s-.1.04-.1.04h.05c-.04.07-.1.07-.15.1-.04.02-.07.03-.11.04-.01,0-.03.03-.05.03v.02s-.1.03-.15.02c0,.06.07.04.11.03h0s0,0,0,0ZM3.54-19.67h.02s.02.02.02.02l-.02-.09c.06.01.03.12.02.17l-.02-.05v.05s.03.04.03.04c0-.08.04-.16.02-.25l-.04.03v-.11s-.03.01-.03.01c.01.06,0,.11,0,.17h0s0,0,0,0h0ZM1.82-17.44s.05.16.05.22l.02.08c0-.07,0-.15-.02-.22,0-.05-.03-.11-.04-.16s0-.11,0-.17c0-.01,0-.04-.01-.03v.29s0,0,0,0h0ZM2.23-12.2h.03s-.02,0-.02,0v-.09s.01.02.01.02l-.02-.28h-.02s.03-.05.02-.09c-.03.03-.04.08-.03.12,0,0,.03,0,.02.03l-.02.02s.02.03.02.05h-.02s.02.23.02.23h0s0,0,0,0h0ZM-.14-19.25c-.05,0-.1,0-.16.01-.02,0-.04,0-.05.02,0,.02.31,0,.33,0,.01,0,.02,0,.03-.02-.05,0-.1,0-.15,0h0ZM2.51-19.38v.05s.1-.03.11.03c.05-.05-.08-.06-.09-.08v-.09s-.03.02-.07.01l.04.07h0s0,0,0,0ZM.65-20.15v-.07s.03.02.03.02v-.05s.02-.01.02-.01l-.02-.06h-.03s0-.05,0-.05l-.02.04c-.02.06.01.13.01.19h0ZM-2-17.36s-.05.02-.07.05c.09-.03.21-.07.28-.15-.07.03-.14.07-.21.1h0ZM2.06-15.6s0,.02,0,.04c0,.03,0,.07,0,.1-.05,0,0,.02,0,.03v.12s-.01,0-.01,0c.03,0,.02.02.02.04h-.02s0,.11.02.13c0-.02,0-.06,0-.08,0-.13-.03-.26-.03-.39h0s0,0,0,0ZM2.2-12.17h0s-.05-.66-.05-.66h0s.05.66.05.66ZM2.05-19.2s.04.07.07.06v-.14s-.01.04-.04.02c0,0,.01-.03-.01-.03.02.03-.02.07-.02.09h0ZM3.1-21.48c0,.06.09.16.12.07-.03-.01-.06-.04-.08-.06-.01,0-.02-.02-.03-.01h0ZM2.81-21.34h.02s.02.05.04.03c.03-.03,0-.09-.01-.13-.03-.02-.02.02-.02.04,0,.02-.02.03-.02.03,0,0,0,.02,0,.03h0s0,0,0,0ZM1.15-18.86l.03.06s.02-.07.03-.08c.02-.02.05-.01.07-.02.02,0,.03,0,.02-.02l-.07.02v-.03s-.06.02-.06.02v.02s-.02.03-.02.03h0s0,0,0,0ZM1.18-19.7l.02.03.03-.06v.07s.05,0,.05,0v-.08s-.04-.03-.05-.03c-.02-.01-.02.02-.03.04,0,.01-.02.02-.03.03h0ZM1.31-18.9c.05,0,.05-.04.06-.04.03-.02.02.03.04.02v-.07s-.02,0-.02,0c-.01.04-.06.06-.09.09v.02s0,0,0,0ZM.92-18.27c.06-.03.12-.03.18-.02l.02-.06h-.04s.01.05.01.05h-.03s0-.02,0-.02c-.05.01-.14-.01-.16.05h0ZM1.41-19.78v.03s.02,0,.02,0v.03s.11-.07.02-.04c.02-.03.02-.03,0-.06h-.07s0,.03.02.03h0s0,0,0,0ZM2.23-11.62h0s-.04-.53-.04-.53h0s.04.53.04.53ZM3.81-19.13s.03-.03.03-.03c0-.02-.06-.11-.05-.16h-.03c.02.07.04.12.05.19h0ZM.47-19.56s.02-.05.02-.06c0-.04-.01-.06-.05-.06l.02.08-.05-.03s.04.08.05.07h0ZM-.93-18.06c.06-.02.14-.05.18-.1-.06.02-.14.05-.18.1ZM-1.75-17.49s.02,0,.03,0c.05-.02.09-.05.11-.1-.02,0-.15.09-.15.09h0ZM2.08-20.35s.01.02.02.03c.01.03-.02.09.03.12.03-.02-.02-.09-.02-.1,0-.07.07-.08.09-.12,0-.02,0-.04,0-.05,0,0,.04,0,.04-.01-.03,0-.06,0-.07.02-.01.02,0,.04,0,.05,0,0-.04.03-.05.04,0,0-.02,0-.03.02h0ZM3.68-18.84s0,.04.02.04v-.05s.03,0,.03,0v-.06s-.03.05-.03.05v-.09s-.04,0-.04,0c.02.04.01.08.02.11h0ZM1.98-15.76h0l-.03-.46h0l.03.46ZM2.09-13.85h0s-.03-.46-.03-.46h0s.03.46.03.46ZM.56-20.83s.05-.04.09-.02v-.05s-.03.01-.03.01v-.03s0,.01-.01.02c-.02.02-.06.03-.05.07h0ZM2.18-13.56s0,.02,0,.04c0,.11.01.23.02.34,0,.01,0,.04.01.03l-.03-.41h0ZM.43-19.7l.03-.03.05.06s-.01-.04-.03-.06c0,0-.07-.06-.07-.05l.02.08h0ZM2.94-20c.06-.03.13-.05.21-.03,0-.03,0-.02-.02-.02-.04,0-.09,0-.13,0v-.03s-.05.07-.05.07h0ZM2.11-19.29l.02-.06.03.02v-.07s-.03-.02-.03-.02c0,.04,0,.09-.04.1,0,.04.02,0,.03.03h0ZM1.18-18.43h.12s-.04-.09-.04-.09c-.02,0,0,.04-.03.03h.02s0,.05,0,.05h-.07s0,0,0,0ZM2.21-13.12s0,.06,0,.07c0,.07,0,.15.02.22,0,.01,0,.06.02.06l-.02-.35ZM1.06-18.88h.03s0,.03,0,.03c.06,0,.04-.07.07-.08h-.04s0-.03,0-.03c-.03.03,0,.03,0,.03.02.04-.04.01-.05.04h0ZM3.58-19.06s.07.02.07.07h.03s-.05-.06-.05-.06l.04-.05s-.05.02-.06.03c-.01,0-.03,0-.03.01h0s0,0,0,0h0ZM2.36-19.34h.05s.04-.05.04-.05c-.04.02-.03-.03-.05-.04h-.04s.03.04.03.04c0,0,0,.03,0,.04,0,0-.03,0-.03.01h0ZM2.04-14.71h0s-.03-.36-.03-.36h0l.03.36h0ZM-2.36-17.08h.09s-.06-.05-.08-.08c0,.03.02.05,0,.08h0ZM.76-19.84s0,.02-.03,0c-.02,0,0-.04,0-.04-.08.04.02.15.04.03h0ZM3.15-19.13l.14.03h-.02s-.01-.05-.01-.05c-.03.03-.09-.03-.11.02h0ZM1.3-19.9h.02s0,.03,0,.03c.03,0,.02-.03.03-.04,0,0,.03,0,.03-.02,0-.02-.09,0-.09,0s0,.03.02.03h0ZM1.91-16.77h0s-.02-.33-.02-.33h0s.02.33.02.33ZM.86-21.3s.03.02.04.03c.01.02,0,.09.03.08,0-.03-.03-.07,0-.08l-.05-.06s0,.01,0,.02-.02,0-.01,0h0ZM.85-19.77h-.02s.03.12.03.12l.02-.03-.02-.05h.02s.02-.01.02-.01l-.05-.02h0ZM1.82-19.79h.04s0-.04,0-.06c-.01,0-.04,0-.04.02,0,.01-.01.04,0,.05h0s0,0,0,0ZM1.94-19.7c.07-.02.05.08.14.04,0-.02-.02,0-.03-.01,0,0,0-.02-.01-.02-.01,0-.02,0-.03,0,0,0-.05-.07-.07-.01h0ZM2.03-16.02h0l-.02-.3h0l.02.3ZM2.68-21.21h.03s0-.03,0-.03l.02.04s.05,0,.05-.04c-.02,0-.06,0-.06-.03h0s-.02.04-.02.05c0,0-.02,0-.01.01h0ZM1.28-21.01h.02s.01,0,.01,0c0-.05.02-.05.04-.08h-.05s-.02.08-.02.08h0ZM2.85-19.96s-.04.02-.02.04.03-.02.03-.02c.03-.01,0,.03.02.02,0-.03,0-.03-.03-.04v-.02s-.06.01-.06.01c0,.04.03,0,.05,0h0s0,0,0,0ZM1.66-21.15s.03.03.04.04v-.08s-.05.01-.05.01c0,.01,0,.02.01.03h0ZM1.58-20.21s0-.13-.04-.16c0,.05,0,.13.04.16ZM.23-19.23h.09s-.05,0-.06,0v-.03s-.07,0-.04.04h0s0,0,0,0ZM.6-19.52s.01.06.05.07v-.08s-.05.01-.05.01h0s0,0,0,0ZM2.78-19.22l.12.02s-.04-.02-.05-.03v-.03s-.02,0-.02,0v.02s-.05-.01-.05.02h0s0,0,0,0Z"/>
  </g>
</svg>