<?xml version="1.0" encoding="UTF-8"?>
<svg id="chrono-visuel" xmlns="http://www.w3.org/2000/svg" viewBox="0 0 24 24">
  <path id="icon" d="M14.63.91c.1.1.24.31.28.44.08.24.09,1.14.04,1.4-.13.62-.84.96-1.44.87v.9c1.66.28,3.26.98,4.5,2.1h.05s1.07-1.1,1.07-1.1c-.26-.29-.98-.72-.48-1.13.23-.19.45-.11.66.05.53.41,1.03,1.09,1.58,1.52.34.39-.13.96-.59.68-.09-.06-.48-.5-.52-.5l-1.08,1.1c3.3,3.41,3.61,8.66.75,12.44-3.58,4.73-10.28,5.08-14.33.7C.95,15.85,2.08,8.62,7.47,5.6c.93-.52,1.92-.83,2.96-1.07l.02-.91c-.52.05-1.08-.13-1.31-.61-.15-.31-.18-1.18-.11-1.53.1-.48.56-.85,1.05-.89,1.23.06,2.55-.08,3.77,0,.29.02.58.12.79.33ZM12.61,4.42v-1.62s-.03-.02-.03-.03l.05-.05h1.24s.11-.07.13-.09c.12-.14.12-1.03-.07-1.12h-3.85s-.14.09-.15.12c-.05.11-.03.85.02.95.01.02.11.13.12.13h1.26v1.74l1.28-.03ZM17.64,20.28c4.17-3.86,3.66-10.69-1.24-13.7-5.22-3.2-11.75.12-12.74,5.89-1.32,7.75,7.94,13.4,13.98,7.8Z" fill="currentColor"/>
</svg>